M48
; DRILL file {KiCad (6.0.4)} date Thu Apr 28 10:57:54 2022
; FORMAT={-:-/ absolute / inch / decimal}
; #@! TF.CreationDate,2022-04-28T10:57:54-05:00
; #@! TF.GenerationSoftware,Kicad,Pcbnew,(6.0.4)
; #@! TF.FileFunction,NonPlated,1,2,NPTH
FMAT,2
INCH
; #@! TA.AperFunction,NonPlated,NPTH,ComponentDrill
T1C0.0689
; #@! TA.AperFunction,NonPlated,NPTH,ComponentDrill
T2C0.1200
; #@! TA.AperFunction,NonPlated,NPTH,ComponentDrill
T3C0.1570
%
G90
G05
T1
X1.1125Y-2.0625
X1.2063Y-2.8125
X1.2063Y-4.3125
X1.3938Y-3.5625
X1.5125Y-2.0625
X1.6062Y-2.8125
X1.6062Y-4.3125
X1.675Y-1.3125
X1.7937Y-3.5625
X2.05Y-2.0625
X2.075Y-1.3125
X2.1437Y-4.3125
X2.2375Y-2.8125
X2.425Y-1.3125
X2.45Y-2.0625
X2.5437Y-4.3125
X2.6125Y-3.5625
X2.6375Y-2.8125
X2.8Y-2.0625
X2.825Y-1.3125
X2.9875Y-2.8125
X3.0125Y-3.5625
X3.175Y-1.3125
X3.2Y-2.0625
X3.3625Y-3.5625
X3.3875Y-2.8125
X3.55Y-2.0625
X3.575Y-1.3125
X3.7375Y-2.8125
X3.7625Y-3.5625
X3.925Y-1.3125
X3.95Y-2.0625
X4.1125Y-3.5625
X4.1375Y-2.8125
X4.3Y-2.0625
X4.325Y-1.3125
X4.4875Y-2.8125
X4.5125Y-3.5625
X4.7Y-2.0625
X4.8625Y-3.5625
X4.8875Y-2.8125
X5.2625Y-3.5625
X5.425Y-4.5
X5.8Y-2.0625
X5.825Y-4.5
X5.9875Y-2.8125
X6.2Y-2.0625
X6.3625Y-3.5625
X6.3875Y-2.8125
X6.55Y-2.0625
X6.7375Y-2.8125
X6.7625Y-3.5625
X6.95Y-2.0625
X7.1125Y-3.5625
X7.1375Y-2.8125
X7.3Y-2.0625
X7.4875Y-1.125
X7.4875Y-2.8125
X7.5125Y-3.5625
X7.7Y-2.0625
X7.8625Y-3.5625
X7.8875Y-1.125
X7.8875Y-2.8125
X8.05Y-2.0625
X8.2375Y-1.125
X8.2375Y-2.8125
X8.2625Y-3.5625
X8.45Y-2.0625
X8.6125Y-3.5625
X8.6375Y-1.125
X8.6375Y-2.8125
X8.7062Y-4.3125
X8.8Y-2.0625
X8.9875Y-1.125
X9.0125Y-3.5625
X9.1062Y-4.3125
X9.2Y-2.0625
X9.3625Y-1.125
X9.3875Y-1.125
X9.4562Y-2.8125
X9.6437Y-3.5625
X9.6437Y-4.3125
X9.7375Y-1.125
X9.7375Y-2.0625
X9.7625Y-1.125
X9.8562Y-2.8125
X10.0437Y-3.5625
X10.0437Y-4.3125
X10.1375Y-1.125
X10.1375Y-2.0625
T2
X1.125Y-3.2875
X2.0625Y-3.2875
X3.375Y-4.225
X7.875Y-4.225
X9.0925Y-0.85
X9.1875Y-2.5375
X10.0325Y-0.85
X10.125Y-2.5375
T3
X1.125Y-3.8875
X1.3125Y-2.0625
X1.4062Y-2.8125
X1.4062Y-4.3125
X1.5938Y-3.5625
X1.875Y-1.3125
X2.0625Y-3.8875
X2.25Y-2.0625
X2.3438Y-4.3125
X2.4375Y-2.8125
X2.625Y-1.3125
X2.8125Y-3.5625
X3.0Y-2.0625
X3.1875Y-2.8125
X3.375Y-1.3125
X3.375Y-4.825
X3.5625Y-3.5625
X3.75Y-2.0625
X3.9375Y-2.8125
X4.125Y-1.3125
X4.3125Y-3.5625
X4.5Y-2.0625
X4.6875Y-2.8125
X5.0625Y-3.5625
X5.625Y-4.5
X6.0Y-2.0625
X6.1875Y-2.8125
X6.5625Y-3.5625
X6.75Y-2.0625
X6.9375Y-2.8125
X7.3125Y-3.5625
X7.5Y-2.0625
X7.6875Y-1.125
X7.6875Y-2.8125
X7.875Y-4.825
X8.0625Y-3.5625
X8.25Y-2.0625
X8.4375Y-1.125
X8.4375Y-2.8125
X8.8125Y-3.5625
X8.9062Y-4.3125
X9.0Y-2.0625
X9.0925Y-1.45
X9.1875Y-1.125
X9.1875Y-3.1375
X9.5625Y-1.125
X9.6562Y-2.8125
X9.8438Y-3.5625
X9.8438Y-4.3125
X9.9375Y-1.125
X9.9375Y-2.0625
X10.0325Y-1.45
X10.125Y-3.1375
T0
M30
