%TF.GenerationSoftware,KiCad,Pcbnew,(6.0.4)*%
%TF.CreationDate,2022-04-28T10:57:54-05:00*%
%TF.ProjectId,keyboard,6b657962-6f61-4726-942e-6b696361645f,rev?*%
%TF.SameCoordinates,Original*%
%TF.FileFunction,Legend,Bot*%
%TF.FilePolarity,Positive*%
%FSLAX46Y46*%
G04 Gerber Fmt 4.6, Leading zero omitted, Abs format (unit mm)*
G04 Created by KiCad (PCBNEW (6.0.4)) date 2022-04-28 10:57:54*
%MOMM*%
%LPD*%
G01*
G04 APERTURE LIST*
G04 Aperture macros list*
%AMRoundRect*
0 Rectangle with rounded corners*
0 $1 Rounding radius*
0 $2 $3 $4 $5 $6 $7 $8 $9 X,Y pos of 4 corners*
0 Add a 4 corners polygon primitive as box body*
4,1,4,$2,$3,$4,$5,$6,$7,$8,$9,$2,$3,0*
0 Add four circle primitives for the rounded corners*
1,1,$1+$1,$2,$3*
1,1,$1+$1,$4,$5*
1,1,$1+$1,$6,$7*
1,1,$1+$1,$8,$9*
0 Add four rect primitives between the rounded corners*
20,1,$1+$1,$2,$3,$4,$5,0*
20,1,$1+$1,$4,$5,$6,$7,0*
20,1,$1+$1,$6,$7,$8,$9,0*
20,1,$1+$1,$8,$9,$2,$3,0*%
G04 Aperture macros list end*
%ADD10C,0.150000*%
%ADD11C,0.120000*%
%ADD12C,3.987800*%
%ADD13C,1.750000*%
%ADD14C,2.250000*%
%ADD15C,3.048000*%
%ADD16RoundRect,0.062500X-0.062500X0.475000X-0.062500X-0.475000X0.062500X-0.475000X0.062500X0.475000X0*%
%ADD17RoundRect,0.062500X-0.475000X0.062500X-0.475000X-0.062500X0.475000X-0.062500X0.475000X0.062500X0*%
%ADD18R,5.200000X5.200000*%
%ADD19RoundRect,0.200000X-0.200000X-0.275000X0.200000X-0.275000X0.200000X0.275000X-0.200000X0.275000X0*%
%ADD20RoundRect,0.200000X0.275000X-0.200000X0.275000X0.200000X-0.275000X0.200000X-0.275000X-0.200000X0*%
%ADD21R,1.800000X1.100000*%
%ADD22RoundRect,0.225000X-0.225000X-0.250000X0.225000X-0.250000X0.225000X0.250000X-0.225000X0.250000X0*%
%ADD23RoundRect,0.225000X0.225000X0.250000X-0.225000X0.250000X-0.225000X-0.250000X0.225000X-0.250000X0*%
%ADD24RoundRect,0.225000X0.250000X-0.225000X0.250000X0.225000X-0.250000X0.225000X-0.250000X-0.225000X0*%
%ADD25RoundRect,0.225000X-0.250000X0.225000X-0.250000X-0.225000X0.250000X-0.225000X0.250000X0.225000X0*%
%ADD26R,1.200000X1.400000*%
%ADD27R,1.200000X0.900000*%
%ADD28R,1.000000X0.700000*%
%ADD29R,0.600000X0.700000*%
%ADD30R,0.550000X1.500000*%
%ADD31R,1.500000X0.550000*%
%ADD32RoundRect,0.250000X-0.375000X-0.625000X0.375000X-0.625000X0.375000X0.625000X-0.375000X0.625000X0*%
%ADD33RoundRect,0.150000X-0.625000X0.150000X-0.625000X-0.150000X0.625000X-0.150000X0.625000X0.150000X0*%
%ADD34RoundRect,0.250000X-0.650000X0.350000X-0.650000X-0.350000X0.650000X-0.350000X0.650000X0.350000X0*%
G04 APERTURE END LIST*
D10*
%TO.C,U1*%
X128729380Y-31003095D02*
X129538904Y-31003095D01*
X129634142Y-31050714D01*
X129681761Y-31098333D01*
X129729380Y-31193571D01*
X129729380Y-31384047D01*
X129681761Y-31479285D01*
X129634142Y-31526904D01*
X129538904Y-31574523D01*
X128729380Y-31574523D01*
X129729380Y-32574523D02*
X129729380Y-32003095D01*
X129729380Y-32288809D02*
X128729380Y-32288809D01*
X128872238Y-32193571D01*
X128967476Y-32098333D01*
X129015095Y-32003095D01*
%TO.C,R5*%
X127928666Y-41506380D02*
X128262000Y-41030190D01*
X128500095Y-41506380D02*
X128500095Y-40506380D01*
X128119142Y-40506380D01*
X128023904Y-40554000D01*
X127976285Y-40601619D01*
X127928666Y-40696857D01*
X127928666Y-40839714D01*
X127976285Y-40934952D01*
X128023904Y-40982571D01*
X128119142Y-41030190D01*
X128500095Y-41030190D01*
X127023904Y-40506380D02*
X127500095Y-40506380D01*
X127547714Y-40982571D01*
X127500095Y-40934952D01*
X127404857Y-40887333D01*
X127166761Y-40887333D01*
X127071523Y-40934952D01*
X127023904Y-40982571D01*
X126976285Y-41077809D01*
X126976285Y-41315904D01*
X127023904Y-41411142D01*
X127071523Y-41458761D01*
X127166761Y-41506380D01*
X127404857Y-41506380D01*
X127500095Y-41458761D01*
X127547714Y-41411142D01*
%TO.C,R6*%
X144249380Y-27519333D02*
X143773190Y-27186000D01*
X144249380Y-26947904D02*
X143249380Y-26947904D01*
X143249380Y-27328857D01*
X143297000Y-27424095D01*
X143344619Y-27471714D01*
X143439857Y-27519333D01*
X143582714Y-27519333D01*
X143677952Y-27471714D01*
X143725571Y-27424095D01*
X143773190Y-27328857D01*
X143773190Y-26947904D01*
X143249380Y-28376476D02*
X143249380Y-28186000D01*
X143297000Y-28090761D01*
X143344619Y-28043142D01*
X143487476Y-27947904D01*
X143677952Y-27900285D01*
X144058904Y-27900285D01*
X144154142Y-27947904D01*
X144201761Y-27995523D01*
X144249380Y-28090761D01*
X144249380Y-28281238D01*
X144201761Y-28376476D01*
X144154142Y-28424095D01*
X144058904Y-28471714D01*
X143820809Y-28471714D01*
X143725571Y-28424095D01*
X143677952Y-28376476D01*
X143630333Y-28281238D01*
X143630333Y-28090761D01*
X143677952Y-27995523D01*
X143725571Y-27947904D01*
X143820809Y-27900285D01*
%TO.C,SW1*%
X152590333Y-29487761D02*
X152447476Y-29535380D01*
X152209380Y-29535380D01*
X152114142Y-29487761D01*
X152066523Y-29440142D01*
X152018904Y-29344904D01*
X152018904Y-29249666D01*
X152066523Y-29154428D01*
X152114142Y-29106809D01*
X152209380Y-29059190D01*
X152399857Y-29011571D01*
X152495095Y-28963952D01*
X152542714Y-28916333D01*
X152590333Y-28821095D01*
X152590333Y-28725857D01*
X152542714Y-28630619D01*
X152495095Y-28583000D01*
X152399857Y-28535380D01*
X152161761Y-28535380D01*
X152018904Y-28583000D01*
X151685571Y-28535380D02*
X151447476Y-29535380D01*
X151257000Y-28821095D01*
X151066523Y-29535380D01*
X150828428Y-28535380D01*
X149923666Y-29535380D02*
X150495095Y-29535380D01*
X150209380Y-29535380D02*
X150209380Y-28535380D01*
X150304619Y-28678238D01*
X150399857Y-28773476D01*
X150495095Y-28821095D01*
%TO.C,C8*%
X150890266Y-42147742D02*
X150937885Y-42195361D01*
X151080742Y-42242980D01*
X151175980Y-42242980D01*
X151318838Y-42195361D01*
X151414076Y-42100123D01*
X151461695Y-42004885D01*
X151509314Y-41814409D01*
X151509314Y-41671552D01*
X151461695Y-41481076D01*
X151414076Y-41385838D01*
X151318838Y-41290600D01*
X151175980Y-41242980D01*
X151080742Y-41242980D01*
X150937885Y-41290600D01*
X150890266Y-41338219D01*
X150318838Y-41671552D02*
X150414076Y-41623933D01*
X150461695Y-41576314D01*
X150509314Y-41481076D01*
X150509314Y-41433457D01*
X150461695Y-41338219D01*
X150414076Y-41290600D01*
X150318838Y-41242980D01*
X150128361Y-41242980D01*
X150033123Y-41290600D01*
X149985504Y-41338219D01*
X149937885Y-41433457D01*
X149937885Y-41481076D01*
X149985504Y-41576314D01*
X150033123Y-41623933D01*
X150128361Y-41671552D01*
X150318838Y-41671552D01*
X150414076Y-41719171D01*
X150461695Y-41766790D01*
X150509314Y-41862028D01*
X150509314Y-42052504D01*
X150461695Y-42147742D01*
X150414076Y-42195361D01*
X150318838Y-42242980D01*
X150128361Y-42242980D01*
X150033123Y-42195361D01*
X149985504Y-42147742D01*
X149937885Y-42052504D01*
X149937885Y-41862028D01*
X149985504Y-41766790D01*
X150033123Y-41719171D01*
X150128361Y-41671552D01*
%TO.C,C5*%
X130113066Y-22320542D02*
X130160685Y-22368161D01*
X130303542Y-22415780D01*
X130398780Y-22415780D01*
X130541638Y-22368161D01*
X130636876Y-22272923D01*
X130684495Y-22177685D01*
X130732114Y-21987209D01*
X130732114Y-21844352D01*
X130684495Y-21653876D01*
X130636876Y-21558638D01*
X130541638Y-21463400D01*
X130398780Y-21415780D01*
X130303542Y-21415780D01*
X130160685Y-21463400D01*
X130113066Y-21511019D01*
X129208304Y-21415780D02*
X129684495Y-21415780D01*
X129732114Y-21891971D01*
X129684495Y-21844352D01*
X129589257Y-21796733D01*
X129351161Y-21796733D01*
X129255923Y-21844352D01*
X129208304Y-21891971D01*
X129160685Y-21987209D01*
X129160685Y-22225304D01*
X129208304Y-22320542D01*
X129255923Y-22368161D01*
X129351161Y-22415780D01*
X129589257Y-22415780D01*
X129684495Y-22368161D01*
X129732114Y-22320542D01*
%TO.C,C7*%
X137702542Y-22388533D02*
X137750161Y-22340914D01*
X137797780Y-22198057D01*
X137797780Y-22102819D01*
X137750161Y-21959961D01*
X137654923Y-21864723D01*
X137559685Y-21817104D01*
X137369209Y-21769485D01*
X137226352Y-21769485D01*
X137035876Y-21817104D01*
X136940638Y-21864723D01*
X136845400Y-21959961D01*
X136797780Y-22102819D01*
X136797780Y-22198057D01*
X136845400Y-22340914D01*
X136893019Y-22388533D01*
X136797780Y-22721866D02*
X136797780Y-23388533D01*
X137797780Y-22959961D01*
%TO.C,C4*%
X123514142Y-27011333D02*
X123561761Y-26963714D01*
X123609380Y-26820857D01*
X123609380Y-26725619D01*
X123561761Y-26582761D01*
X123466523Y-26487523D01*
X123371285Y-26439904D01*
X123180809Y-26392285D01*
X123037952Y-26392285D01*
X122847476Y-26439904D01*
X122752238Y-26487523D01*
X122657000Y-26582761D01*
X122609380Y-26725619D01*
X122609380Y-26820857D01*
X122657000Y-26963714D01*
X122704619Y-27011333D01*
X122942714Y-27868476D02*
X123609380Y-27868476D01*
X122561761Y-27630380D02*
X123276047Y-27392285D01*
X123276047Y-28011333D01*
%TO.C,C9*%
X150864866Y-32582142D02*
X150912485Y-32629761D01*
X151055342Y-32677380D01*
X151150580Y-32677380D01*
X151293438Y-32629761D01*
X151388676Y-32534523D01*
X151436295Y-32439285D01*
X151483914Y-32248809D01*
X151483914Y-32105952D01*
X151436295Y-31915476D01*
X151388676Y-31820238D01*
X151293438Y-31725000D01*
X151150580Y-31677380D01*
X151055342Y-31677380D01*
X150912485Y-31725000D01*
X150864866Y-31772619D01*
X150388676Y-32677380D02*
X150198200Y-32677380D01*
X150102961Y-32629761D01*
X150055342Y-32582142D01*
X149960104Y-32439285D01*
X149912485Y-32248809D01*
X149912485Y-31867857D01*
X149960104Y-31772619D01*
X150007723Y-31725000D01*
X150102961Y-31677380D01*
X150293438Y-31677380D01*
X150388676Y-31725000D01*
X150436295Y-31772619D01*
X150483914Y-31867857D01*
X150483914Y-32105952D01*
X150436295Y-32201190D01*
X150388676Y-32248809D01*
X150293438Y-32296428D01*
X150102961Y-32296428D01*
X150007723Y-32248809D01*
X149960104Y-32201190D01*
X149912485Y-32105952D01*
%TO.C,C6*%
X139480542Y-22388533D02*
X139528161Y-22340914D01*
X139575780Y-22198057D01*
X139575780Y-22102819D01*
X139528161Y-21959961D01*
X139432923Y-21864723D01*
X139337685Y-21817104D01*
X139147209Y-21769485D01*
X139004352Y-21769485D01*
X138813876Y-21817104D01*
X138718638Y-21864723D01*
X138623400Y-21959961D01*
X138575780Y-22102819D01*
X138575780Y-22198057D01*
X138623400Y-22340914D01*
X138671019Y-22388533D01*
X138575780Y-23245676D02*
X138575780Y-23055200D01*
X138623400Y-22959961D01*
X138671019Y-22912342D01*
X138813876Y-22817104D01*
X139004352Y-22769485D01*
X139385304Y-22769485D01*
X139480542Y-22817104D01*
X139528161Y-22864723D01*
X139575780Y-22959961D01*
X139575780Y-23150438D01*
X139528161Y-23245676D01*
X139480542Y-23293295D01*
X139385304Y-23340914D01*
X139147209Y-23340914D01*
X139051971Y-23293295D01*
X139004352Y-23245676D01*
X138956733Y-23150438D01*
X138956733Y-22959961D01*
X139004352Y-22864723D01*
X139051971Y-22817104D01*
X139147209Y-22769485D01*
%TO.C,C2*%
X138342666Y-43697142D02*
X138390285Y-43744761D01*
X138533142Y-43792380D01*
X138628380Y-43792380D01*
X138771238Y-43744761D01*
X138866476Y-43649523D01*
X138914095Y-43554285D01*
X138961714Y-43363809D01*
X138961714Y-43220952D01*
X138914095Y-43030476D01*
X138866476Y-42935238D01*
X138771238Y-42840000D01*
X138628380Y-42792380D01*
X138533142Y-42792380D01*
X138390285Y-42840000D01*
X138342666Y-42887619D01*
X137961714Y-42887619D02*
X137914095Y-42840000D01*
X137818857Y-42792380D01*
X137580761Y-42792380D01*
X137485523Y-42840000D01*
X137437904Y-42887619D01*
X137390285Y-42982857D01*
X137390285Y-43078095D01*
X137437904Y-43220952D01*
X138009333Y-43792380D01*
X137390285Y-43792380D01*
%TO.C,C3*%
X126755142Y-36155333D02*
X126802761Y-36107714D01*
X126850380Y-35964857D01*
X126850380Y-35869619D01*
X126802761Y-35726761D01*
X126707523Y-35631523D01*
X126612285Y-35583904D01*
X126421809Y-35536285D01*
X126278952Y-35536285D01*
X126088476Y-35583904D01*
X125993238Y-35631523D01*
X125898000Y-35726761D01*
X125850380Y-35869619D01*
X125850380Y-35964857D01*
X125898000Y-36107714D01*
X125945619Y-36155333D01*
X125850380Y-36488666D02*
X125850380Y-37107714D01*
X126231333Y-36774380D01*
X126231333Y-36917238D01*
X126278952Y-37012476D01*
X126326571Y-37060095D01*
X126421809Y-37107714D01*
X126659904Y-37107714D01*
X126755142Y-37060095D01*
X126802761Y-37012476D01*
X126850380Y-36917238D01*
X126850380Y-36631523D01*
X126802761Y-36536285D01*
X126755142Y-36488666D01*
%TO.C,C1*%
X144977142Y-29678333D02*
X145024761Y-29630714D01*
X145072380Y-29487857D01*
X145072380Y-29392619D01*
X145024761Y-29249761D01*
X144929523Y-29154523D01*
X144834285Y-29106904D01*
X144643809Y-29059285D01*
X144500952Y-29059285D01*
X144310476Y-29106904D01*
X144215238Y-29154523D01*
X144120000Y-29249761D01*
X144072380Y-29392619D01*
X144072380Y-29487857D01*
X144120000Y-29630714D01*
X144167619Y-29678333D01*
X145072380Y-30630714D02*
X145072380Y-30059285D01*
X145072380Y-30345000D02*
X144072380Y-30345000D01*
X144215238Y-30249761D01*
X144310476Y-30154523D01*
X144358095Y-30059285D01*
%TO.C,Y1*%
X153124390Y-36607809D02*
X153600580Y-36607809D01*
X152600580Y-36274476D02*
X153124390Y-36607809D01*
X152600580Y-36941142D01*
X153600580Y-37798285D02*
X153600580Y-37226857D01*
X153600580Y-37512571D02*
X152600580Y-37512571D01*
X152743438Y-37417333D01*
X152838676Y-37322095D01*
X152886295Y-37226857D01*
%TO.C,D40*%
X71540380Y-108513714D02*
X70540380Y-108513714D01*
X70540380Y-108751809D01*
X70588000Y-108894666D01*
X70683238Y-108989904D01*
X70778476Y-109037523D01*
X70968952Y-109085142D01*
X71111809Y-109085142D01*
X71302285Y-109037523D01*
X71397523Y-108989904D01*
X71492761Y-108894666D01*
X71540380Y-108751809D01*
X71540380Y-108513714D01*
X70873714Y-109942285D02*
X71540380Y-109942285D01*
X70492761Y-109704190D02*
X71207047Y-109466095D01*
X71207047Y-110085142D01*
X70540380Y-110656571D02*
X70540380Y-110751809D01*
X70588000Y-110847047D01*
X70635619Y-110894666D01*
X70730857Y-110942285D01*
X70921333Y-110989904D01*
X71159428Y-110989904D01*
X71349904Y-110942285D01*
X71445142Y-110894666D01*
X71492761Y-110847047D01*
X71540380Y-110751809D01*
X71540380Y-110656571D01*
X71492761Y-110561333D01*
X71445142Y-110513714D01*
X71349904Y-110466095D01*
X71159428Y-110418476D01*
X70921333Y-110418476D01*
X70730857Y-110466095D01*
X70635619Y-110513714D01*
X70588000Y-110561333D01*
X70540380Y-110656571D01*
%TO.C,D23*%
X112021630Y-70413714D02*
X111021630Y-70413714D01*
X111021630Y-70651809D01*
X111069250Y-70794666D01*
X111164488Y-70889904D01*
X111259726Y-70937523D01*
X111450202Y-70985142D01*
X111593059Y-70985142D01*
X111783535Y-70937523D01*
X111878773Y-70889904D01*
X111974011Y-70794666D01*
X112021630Y-70651809D01*
X112021630Y-70413714D01*
X111116869Y-71366095D02*
X111069250Y-71413714D01*
X111021630Y-71508952D01*
X111021630Y-71747047D01*
X111069250Y-71842285D01*
X111116869Y-71889904D01*
X111212107Y-71937523D01*
X111307345Y-71937523D01*
X111450202Y-71889904D01*
X112021630Y-71318476D01*
X112021630Y-71937523D01*
X111021630Y-72270857D02*
X111021630Y-72889904D01*
X111402583Y-72556571D01*
X111402583Y-72699428D01*
X111450202Y-72794666D01*
X111497821Y-72842285D01*
X111593059Y-72889904D01*
X111831154Y-72889904D01*
X111926392Y-72842285D01*
X111974011Y-72794666D01*
X112021630Y-72699428D01*
X112021630Y-72413714D01*
X111974011Y-72318476D01*
X111926392Y-72270857D01*
%TO.C,U2*%
X161340380Y-26797095D02*
X162149904Y-26797095D01*
X162245142Y-26844714D01*
X162292761Y-26892333D01*
X162340380Y-26987571D01*
X162340380Y-27178047D01*
X162292761Y-27273285D01*
X162245142Y-27320904D01*
X162149904Y-27368523D01*
X161340380Y-27368523D01*
X161435619Y-27797095D02*
X161388000Y-27844714D01*
X161340380Y-27939952D01*
X161340380Y-28178047D01*
X161388000Y-28273285D01*
X161435619Y-28320904D01*
X161530857Y-28368523D01*
X161626095Y-28368523D01*
X161768952Y-28320904D01*
X162340380Y-27749476D01*
X162340380Y-28368523D01*
%TO.C,D34*%
X140596630Y-89463714D02*
X139596630Y-89463714D01*
X139596630Y-89701809D01*
X139644250Y-89844666D01*
X139739488Y-89939904D01*
X139834726Y-89987523D01*
X140025202Y-90035142D01*
X140168059Y-90035142D01*
X140358535Y-89987523D01*
X140453773Y-89939904D01*
X140549011Y-89844666D01*
X140596630Y-89701809D01*
X140596630Y-89463714D01*
X139596630Y-90368476D02*
X139596630Y-90987523D01*
X139977583Y-90654190D01*
X139977583Y-90797047D01*
X140025202Y-90892285D01*
X140072821Y-90939904D01*
X140168059Y-90987523D01*
X140406154Y-90987523D01*
X140501392Y-90939904D01*
X140549011Y-90892285D01*
X140596630Y-90797047D01*
X140596630Y-90511333D01*
X140549011Y-90416095D01*
X140501392Y-90368476D01*
X139929964Y-91844666D02*
X140596630Y-91844666D01*
X139549011Y-91606571D02*
X140263297Y-91368476D01*
X140263297Y-91987523D01*
%TO.C,D17*%
X221305130Y-50855714D02*
X220305130Y-50855714D01*
X220305130Y-51093809D01*
X220352750Y-51236666D01*
X220447988Y-51331904D01*
X220543226Y-51379523D01*
X220733702Y-51427142D01*
X220876559Y-51427142D01*
X221067035Y-51379523D01*
X221162273Y-51331904D01*
X221257511Y-51236666D01*
X221305130Y-51093809D01*
X221305130Y-50855714D01*
X221305130Y-52379523D02*
X221305130Y-51808095D01*
X221305130Y-52093809D02*
X220305130Y-52093809D01*
X220447988Y-51998571D01*
X220543226Y-51903333D01*
X220590845Y-51808095D01*
X220305130Y-52712857D02*
X220305130Y-53379523D01*
X221305130Y-52950952D01*
%TO.C,D44*%
X261786380Y-88955714D02*
X260786380Y-88955714D01*
X260786380Y-89193809D01*
X260834000Y-89336666D01*
X260929238Y-89431904D01*
X261024476Y-89479523D01*
X261214952Y-89527142D01*
X261357809Y-89527142D01*
X261548285Y-89479523D01*
X261643523Y-89431904D01*
X261738761Y-89336666D01*
X261786380Y-89193809D01*
X261786380Y-88955714D01*
X261119714Y-90384285D02*
X261786380Y-90384285D01*
X260738761Y-90146190D02*
X261453047Y-89908095D01*
X261453047Y-90527142D01*
X261119714Y-91336666D02*
X261786380Y-91336666D01*
X260738761Y-91098571D02*
X261453047Y-90860476D01*
X261453047Y-91479523D01*
%TO.C,D18*%
X240355130Y-50855714D02*
X239355130Y-50855714D01*
X239355130Y-51093809D01*
X239402750Y-51236666D01*
X239497988Y-51331904D01*
X239593226Y-51379523D01*
X239783702Y-51427142D01*
X239926559Y-51427142D01*
X240117035Y-51379523D01*
X240212273Y-51331904D01*
X240307511Y-51236666D01*
X240355130Y-51093809D01*
X240355130Y-50855714D01*
X240355130Y-52379523D02*
X240355130Y-51808095D01*
X240355130Y-52093809D02*
X239355130Y-52093809D01*
X239497988Y-51998571D01*
X239593226Y-51903333D01*
X239640845Y-51808095D01*
X239783702Y-52950952D02*
X239736083Y-52855714D01*
X239688464Y-52808095D01*
X239593226Y-52760476D01*
X239545607Y-52760476D01*
X239450369Y-52808095D01*
X239402750Y-52855714D01*
X239355130Y-52950952D01*
X239355130Y-53141428D01*
X239402750Y-53236666D01*
X239450369Y-53284285D01*
X239545607Y-53331904D01*
X239593226Y-53331904D01*
X239688464Y-53284285D01*
X239736083Y-53236666D01*
X239783702Y-53141428D01*
X239783702Y-52950952D01*
X239831321Y-52855714D01*
X239878940Y-52808095D01*
X239974178Y-52760476D01*
X240164654Y-52760476D01*
X240259892Y-52808095D01*
X240307511Y-52855714D01*
X240355130Y-52950952D01*
X240355130Y-53141428D01*
X240307511Y-53236666D01*
X240259892Y-53284285D01*
X240164654Y-53331904D01*
X239974178Y-53331904D01*
X239878940Y-53284285D01*
X239831321Y-53236666D01*
X239783702Y-53141428D01*
%TO.C,D15*%
X183205130Y-50855714D02*
X182205130Y-50855714D01*
X182205130Y-51093809D01*
X182252750Y-51236666D01*
X182347988Y-51331904D01*
X182443226Y-51379523D01*
X182633702Y-51427142D01*
X182776559Y-51427142D01*
X182967035Y-51379523D01*
X183062273Y-51331904D01*
X183157511Y-51236666D01*
X183205130Y-51093809D01*
X183205130Y-50855714D01*
X183205130Y-52379523D02*
X183205130Y-51808095D01*
X183205130Y-52093809D02*
X182205130Y-52093809D01*
X182347988Y-51998571D01*
X182443226Y-51903333D01*
X182490845Y-51808095D01*
X182205130Y-53284285D02*
X182205130Y-52808095D01*
X182681321Y-52760476D01*
X182633702Y-52808095D01*
X182586083Y-52903333D01*
X182586083Y-53141428D01*
X182633702Y-53236666D01*
X182681321Y-53284285D01*
X182776559Y-53331904D01*
X183014654Y-53331904D01*
X183109892Y-53284285D01*
X183157511Y-53236666D01*
X183205130Y-53141428D01*
X183205130Y-52903333D01*
X183157511Y-52808095D01*
X183109892Y-52760476D01*
%TO.C,U3*%
X126099380Y-31003095D02*
X126908904Y-31003095D01*
X127004142Y-31050714D01*
X127051761Y-31098333D01*
X127099380Y-31193571D01*
X127099380Y-31384047D01*
X127051761Y-31479285D01*
X127004142Y-31526904D01*
X126908904Y-31574523D01*
X126099380Y-31574523D01*
X126099380Y-31955476D02*
X126099380Y-32574523D01*
X126480333Y-32241190D01*
X126480333Y-32384047D01*
X126527952Y-32479285D01*
X126575571Y-32526904D01*
X126670809Y-32574523D01*
X126908904Y-32574523D01*
X127004142Y-32526904D01*
X127051761Y-32479285D01*
X127099380Y-32384047D01*
X127099380Y-32098333D01*
X127051761Y-32003095D01*
X127004142Y-31955476D01*
%TO.C,R4*%
X143803666Y-24107380D02*
X144137000Y-23631190D01*
X144375095Y-24107380D02*
X144375095Y-23107380D01*
X143994142Y-23107380D01*
X143898904Y-23155000D01*
X143851285Y-23202619D01*
X143803666Y-23297857D01*
X143803666Y-23440714D01*
X143851285Y-23535952D01*
X143898904Y-23583571D01*
X143994142Y-23631190D01*
X144375095Y-23631190D01*
X142946523Y-23440714D02*
X142946523Y-24107380D01*
X143184619Y-23059761D02*
X143422714Y-23774047D01*
X142803666Y-23774047D01*
%TO.C,D4*%
X251626380Y-37996904D02*
X250626380Y-37996904D01*
X250626380Y-38235000D01*
X250674000Y-38377857D01*
X250769238Y-38473095D01*
X250864476Y-38520714D01*
X251054952Y-38568333D01*
X251197809Y-38568333D01*
X251388285Y-38520714D01*
X251483523Y-38473095D01*
X251578761Y-38377857D01*
X251626380Y-38235000D01*
X251626380Y-37996904D01*
X250959714Y-39425476D02*
X251626380Y-39425476D01*
X250578761Y-39187380D02*
X251293047Y-38949285D01*
X251293047Y-39568333D01*
%TO.C,D42*%
X261786380Y-108005714D02*
X260786380Y-108005714D01*
X260786380Y-108243809D01*
X260834000Y-108386666D01*
X260929238Y-108481904D01*
X261024476Y-108529523D01*
X261214952Y-108577142D01*
X261357809Y-108577142D01*
X261548285Y-108529523D01*
X261643523Y-108481904D01*
X261738761Y-108386666D01*
X261786380Y-108243809D01*
X261786380Y-108005714D01*
X261119714Y-109434285D02*
X261786380Y-109434285D01*
X260738761Y-109196190D02*
X261453047Y-108958095D01*
X261453047Y-109577142D01*
X260881619Y-109910476D02*
X260834000Y-109958095D01*
X260786380Y-110053333D01*
X260786380Y-110291428D01*
X260834000Y-110386666D01*
X260881619Y-110434285D01*
X260976857Y-110481904D01*
X261072095Y-110481904D01*
X261214952Y-110434285D01*
X261786380Y-109862857D01*
X261786380Y-110481904D01*
%TO.C,D24*%
X126527150Y-32595234D02*
X125527150Y-32595234D01*
X125527150Y-32833329D01*
X125574770Y-32976186D01*
X125670008Y-33071424D01*
X125765246Y-33119043D01*
X125955722Y-33166662D01*
X126098579Y-33166662D01*
X126289055Y-33119043D01*
X126384293Y-33071424D01*
X126479531Y-32976186D01*
X126527150Y-32833329D01*
X126527150Y-32595234D01*
X125622389Y-33547615D02*
X125574770Y-33595234D01*
X125527150Y-33690472D01*
X125527150Y-33928567D01*
X125574770Y-34023805D01*
X125622389Y-34071424D01*
X125717627Y-34119043D01*
X125812865Y-34119043D01*
X125955722Y-34071424D01*
X126527150Y-33499996D01*
X126527150Y-34119043D01*
X125860484Y-34976186D02*
X126527150Y-34976186D01*
X125479531Y-34738091D02*
X126193817Y-34499996D01*
X126193817Y-35119043D01*
%TO.C,D8*%
X116784130Y-32789904D02*
X115784130Y-32789904D01*
X115784130Y-33028000D01*
X115831750Y-33170857D01*
X115926988Y-33266095D01*
X116022226Y-33313714D01*
X116212702Y-33361333D01*
X116355559Y-33361333D01*
X116546035Y-33313714D01*
X116641273Y-33266095D01*
X116736511Y-33170857D01*
X116784130Y-33028000D01*
X116784130Y-32789904D01*
X116212702Y-33932761D02*
X116165083Y-33837523D01*
X116117464Y-33789904D01*
X116022226Y-33742285D01*
X115974607Y-33742285D01*
X115879369Y-33789904D01*
X115831750Y-33837523D01*
X115784130Y-33932761D01*
X115784130Y-34123238D01*
X115831750Y-34218476D01*
X115879369Y-34266095D01*
X115974607Y-34313714D01*
X116022226Y-34313714D01*
X116117464Y-34266095D01*
X116165083Y-34218476D01*
X116212702Y-34123238D01*
X116212702Y-33932761D01*
X116260321Y-33837523D01*
X116307940Y-33789904D01*
X116403178Y-33742285D01*
X116593654Y-33742285D01*
X116688892Y-33789904D01*
X116736511Y-33837523D01*
X116784130Y-33932761D01*
X116784130Y-34123238D01*
X116736511Y-34218476D01*
X116688892Y-34266095D01*
X116593654Y-34313714D01*
X116403178Y-34313714D01*
X116307940Y-34266095D01*
X116260321Y-34218476D01*
X116212702Y-34123238D01*
%TO.C,F1*%
X163528333Y-25497571D02*
X163861666Y-25497571D01*
X163861666Y-26021380D02*
X163861666Y-25021380D01*
X163385476Y-25021380D01*
X162480714Y-26021380D02*
X163052142Y-26021380D01*
X162766428Y-26021380D02*
X162766428Y-25021380D01*
X162861666Y-25164238D01*
X162956904Y-25259476D01*
X163052142Y-25307095D01*
%TO.C,D14*%
X164155130Y-50855714D02*
X163155130Y-50855714D01*
X163155130Y-51093809D01*
X163202750Y-51236666D01*
X163297988Y-51331904D01*
X163393226Y-51379523D01*
X163583702Y-51427142D01*
X163726559Y-51427142D01*
X163917035Y-51379523D01*
X164012273Y-51331904D01*
X164107511Y-51236666D01*
X164155130Y-51093809D01*
X164155130Y-50855714D01*
X164155130Y-52379523D02*
X164155130Y-51808095D01*
X164155130Y-52093809D02*
X163155130Y-52093809D01*
X163297988Y-51998571D01*
X163393226Y-51903333D01*
X163440845Y-51808095D01*
X163488464Y-53236666D02*
X164155130Y-53236666D01*
X163107511Y-52998571D02*
X163821797Y-52760476D01*
X163821797Y-53379523D01*
%TO.C,D12*%
X107259130Y-51363714D02*
X106259130Y-51363714D01*
X106259130Y-51601809D01*
X106306750Y-51744666D01*
X106401988Y-51839904D01*
X106497226Y-51887523D01*
X106687702Y-51935142D01*
X106830559Y-51935142D01*
X107021035Y-51887523D01*
X107116273Y-51839904D01*
X107211511Y-51744666D01*
X107259130Y-51601809D01*
X107259130Y-51363714D01*
X107259130Y-52887523D02*
X107259130Y-52316095D01*
X107259130Y-52601809D02*
X106259130Y-52601809D01*
X106401988Y-52506571D01*
X106497226Y-52411333D01*
X106544845Y-52316095D01*
X106354369Y-53268476D02*
X106306750Y-53316095D01*
X106259130Y-53411333D01*
X106259130Y-53649428D01*
X106306750Y-53744666D01*
X106354369Y-53792285D01*
X106449607Y-53839904D01*
X106544845Y-53839904D01*
X106687702Y-53792285D01*
X107259130Y-53220857D01*
X107259130Y-53839904D01*
%TO.C,D21*%
X73921630Y-70413714D02*
X72921630Y-70413714D01*
X72921630Y-70651809D01*
X72969250Y-70794666D01*
X73064488Y-70889904D01*
X73159726Y-70937523D01*
X73350202Y-70985142D01*
X73493059Y-70985142D01*
X73683535Y-70937523D01*
X73778773Y-70889904D01*
X73874011Y-70794666D01*
X73921630Y-70651809D01*
X73921630Y-70413714D01*
X73016869Y-71366095D02*
X72969250Y-71413714D01*
X72921630Y-71508952D01*
X72921630Y-71747047D01*
X72969250Y-71842285D01*
X73016869Y-71889904D01*
X73112107Y-71937523D01*
X73207345Y-71937523D01*
X73350202Y-71889904D01*
X73921630Y-71318476D01*
X73921630Y-71937523D01*
X73921630Y-72889904D02*
X73921630Y-72318476D01*
X73921630Y-72604190D02*
X72921630Y-72604190D01*
X73064488Y-72508952D01*
X73159726Y-72413714D01*
X73207345Y-72318476D01*
%TO.C,D31*%
X83446630Y-89463714D02*
X82446630Y-89463714D01*
X82446630Y-89701809D01*
X82494250Y-89844666D01*
X82589488Y-89939904D01*
X82684726Y-89987523D01*
X82875202Y-90035142D01*
X83018059Y-90035142D01*
X83208535Y-89987523D01*
X83303773Y-89939904D01*
X83399011Y-89844666D01*
X83446630Y-89701809D01*
X83446630Y-89463714D01*
X82446630Y-90368476D02*
X82446630Y-90987523D01*
X82827583Y-90654190D01*
X82827583Y-90797047D01*
X82875202Y-90892285D01*
X82922821Y-90939904D01*
X83018059Y-90987523D01*
X83256154Y-90987523D01*
X83351392Y-90939904D01*
X83399011Y-90892285D01*
X83446630Y-90797047D01*
X83446630Y-90511333D01*
X83399011Y-90416095D01*
X83351392Y-90368476D01*
X83446630Y-91939904D02*
X83446630Y-91368476D01*
X83446630Y-91654190D02*
X82446630Y-91654190D01*
X82589488Y-91558952D01*
X82684726Y-91463714D01*
X82732345Y-91368476D01*
%TO.C,D11*%
X88209130Y-51363714D02*
X87209130Y-51363714D01*
X87209130Y-51601809D01*
X87256750Y-51744666D01*
X87351988Y-51839904D01*
X87447226Y-51887523D01*
X87637702Y-51935142D01*
X87780559Y-51935142D01*
X87971035Y-51887523D01*
X88066273Y-51839904D01*
X88161511Y-51744666D01*
X88209130Y-51601809D01*
X88209130Y-51363714D01*
X88209130Y-52887523D02*
X88209130Y-52316095D01*
X88209130Y-52601809D02*
X87209130Y-52601809D01*
X87351988Y-52506571D01*
X87447226Y-52411333D01*
X87494845Y-52316095D01*
X88209130Y-53839904D02*
X88209130Y-53268476D01*
X88209130Y-53554190D02*
X87209130Y-53554190D01*
X87351988Y-53458952D01*
X87447226Y-53363714D01*
X87494845Y-53268476D01*
%TO.C,D19*%
X264167630Y-50855714D02*
X263167630Y-50855714D01*
X263167630Y-51093809D01*
X263215250Y-51236666D01*
X263310488Y-51331904D01*
X263405726Y-51379523D01*
X263596202Y-51427142D01*
X263739059Y-51427142D01*
X263929535Y-51379523D01*
X264024773Y-51331904D01*
X264120011Y-51236666D01*
X264167630Y-51093809D01*
X264167630Y-50855714D01*
X264167630Y-52379523D02*
X264167630Y-51808095D01*
X264167630Y-52093809D02*
X263167630Y-52093809D01*
X263310488Y-51998571D01*
X263405726Y-51903333D01*
X263453345Y-51808095D01*
X264167630Y-52855714D02*
X264167630Y-53046190D01*
X264120011Y-53141428D01*
X264072392Y-53189047D01*
X263929535Y-53284285D01*
X263739059Y-53331904D01*
X263358107Y-53331904D01*
X263262869Y-53284285D01*
X263215250Y-53236666D01*
X263167630Y-53141428D01*
X263167630Y-52950952D01*
X263215250Y-52855714D01*
X263262869Y-52808095D01*
X263358107Y-52760476D01*
X263596202Y-52760476D01*
X263691440Y-52808095D01*
X263739059Y-52855714D01*
X263786678Y-52950952D01*
X263786678Y-53141428D01*
X263739059Y-53236666D01*
X263691440Y-53284285D01*
X263596202Y-53331904D01*
%TO.C,D6*%
X78684130Y-32789904D02*
X77684130Y-32789904D01*
X77684130Y-33028000D01*
X77731750Y-33170857D01*
X77826988Y-33266095D01*
X77922226Y-33313714D01*
X78112702Y-33361333D01*
X78255559Y-33361333D01*
X78446035Y-33313714D01*
X78541273Y-33266095D01*
X78636511Y-33170857D01*
X78684130Y-33028000D01*
X78684130Y-32789904D01*
X77684130Y-34218476D02*
X77684130Y-34028000D01*
X77731750Y-33932761D01*
X77779369Y-33885142D01*
X77922226Y-33789904D01*
X78112702Y-33742285D01*
X78493654Y-33742285D01*
X78588892Y-33789904D01*
X78636511Y-33837523D01*
X78684130Y-33932761D01*
X78684130Y-34123238D01*
X78636511Y-34218476D01*
X78588892Y-34266095D01*
X78493654Y-34313714D01*
X78255559Y-34313714D01*
X78160321Y-34266095D01*
X78112702Y-34218476D01*
X78065083Y-34123238D01*
X78065083Y-33932761D01*
X78112702Y-33837523D01*
X78160321Y-33789904D01*
X78255559Y-33742285D01*
%TO.C,D5*%
X59634130Y-32789904D02*
X58634130Y-32789904D01*
X58634130Y-33028000D01*
X58681750Y-33170857D01*
X58776988Y-33266095D01*
X58872226Y-33313714D01*
X59062702Y-33361333D01*
X59205559Y-33361333D01*
X59396035Y-33313714D01*
X59491273Y-33266095D01*
X59586511Y-33170857D01*
X59634130Y-33028000D01*
X59634130Y-32789904D01*
X58634130Y-34266095D02*
X58634130Y-33789904D01*
X59110321Y-33742285D01*
X59062702Y-33789904D01*
X59015083Y-33885142D01*
X59015083Y-34123238D01*
X59062702Y-34218476D01*
X59110321Y-34266095D01*
X59205559Y-34313714D01*
X59443654Y-34313714D01*
X59538892Y-34266095D01*
X59586511Y-34218476D01*
X59634130Y-34123238D01*
X59634130Y-33885142D01*
X59586511Y-33789904D01*
X59538892Y-33742285D01*
%TO.C,D1*%
X226067630Y-27519404D02*
X225067630Y-27519404D01*
X225067630Y-27757500D01*
X225115250Y-27900357D01*
X225210488Y-27995595D01*
X225305726Y-28043214D01*
X225496202Y-28090833D01*
X225639059Y-28090833D01*
X225829535Y-28043214D01*
X225924773Y-27995595D01*
X226020011Y-27900357D01*
X226067630Y-27757500D01*
X226067630Y-27519404D01*
X226067630Y-29043214D02*
X226067630Y-28471785D01*
X226067630Y-28757500D02*
X225067630Y-28757500D01*
X225210488Y-28662261D01*
X225305726Y-28567023D01*
X225353345Y-28471785D01*
%TO.C,D28*%
X226067630Y-69905714D02*
X225067630Y-69905714D01*
X225067630Y-70143809D01*
X225115250Y-70286666D01*
X225210488Y-70381904D01*
X225305726Y-70429523D01*
X225496202Y-70477142D01*
X225639059Y-70477142D01*
X225829535Y-70429523D01*
X225924773Y-70381904D01*
X226020011Y-70286666D01*
X226067630Y-70143809D01*
X226067630Y-69905714D01*
X225162869Y-70858095D02*
X225115250Y-70905714D01*
X225067630Y-71000952D01*
X225067630Y-71239047D01*
X225115250Y-71334285D01*
X225162869Y-71381904D01*
X225258107Y-71429523D01*
X225353345Y-71429523D01*
X225496202Y-71381904D01*
X226067630Y-70810476D01*
X226067630Y-71429523D01*
X225496202Y-72000952D02*
X225448583Y-71905714D01*
X225400964Y-71858095D01*
X225305726Y-71810476D01*
X225258107Y-71810476D01*
X225162869Y-71858095D01*
X225115250Y-71905714D01*
X225067630Y-72000952D01*
X225067630Y-72191428D01*
X225115250Y-72286666D01*
X225162869Y-72334285D01*
X225258107Y-72381904D01*
X225305726Y-72381904D01*
X225400964Y-72334285D01*
X225448583Y-72286666D01*
X225496202Y-72191428D01*
X225496202Y-72000952D01*
X225543821Y-71905714D01*
X225591440Y-71858095D01*
X225686678Y-71810476D01*
X225877154Y-71810476D01*
X225972392Y-71858095D01*
X226020011Y-71905714D01*
X226067630Y-72000952D01*
X226067630Y-72191428D01*
X226020011Y-72286666D01*
X225972392Y-72334285D01*
X225877154Y-72381904D01*
X225686678Y-72381904D01*
X225591440Y-72334285D01*
X225543821Y-72286666D01*
X225496202Y-72191428D01*
%TO.C,D39*%
X47727880Y-108513714D02*
X46727880Y-108513714D01*
X46727880Y-108751809D01*
X46775500Y-108894666D01*
X46870738Y-108989904D01*
X46965976Y-109037523D01*
X47156452Y-109085142D01*
X47299309Y-109085142D01*
X47489785Y-109037523D01*
X47585023Y-108989904D01*
X47680261Y-108894666D01*
X47727880Y-108751809D01*
X47727880Y-108513714D01*
X46727880Y-109418476D02*
X46727880Y-110037523D01*
X47108833Y-109704190D01*
X47108833Y-109847047D01*
X47156452Y-109942285D01*
X47204071Y-109989904D01*
X47299309Y-110037523D01*
X47537404Y-110037523D01*
X47632642Y-109989904D01*
X47680261Y-109942285D01*
X47727880Y-109847047D01*
X47727880Y-109561333D01*
X47680261Y-109466095D01*
X47632642Y-109418476D01*
X47727880Y-110513714D02*
X47727880Y-110704190D01*
X47680261Y-110799428D01*
X47632642Y-110847047D01*
X47489785Y-110942285D01*
X47299309Y-110989904D01*
X46918357Y-110989904D01*
X46823119Y-110942285D01*
X46775500Y-110894666D01*
X46727880Y-110799428D01*
X46727880Y-110608952D01*
X46775500Y-110513714D01*
X46823119Y-110466095D01*
X46918357Y-110418476D01*
X47156452Y-110418476D01*
X47251690Y-110466095D01*
X47299309Y-110513714D01*
X47346928Y-110608952D01*
X47346928Y-110799428D01*
X47299309Y-110894666D01*
X47251690Y-110942285D01*
X47156452Y-110989904D01*
%TO.C,D25*%
X168917630Y-69905714D02*
X167917630Y-69905714D01*
X167917630Y-70143809D01*
X167965250Y-70286666D01*
X168060488Y-70381904D01*
X168155726Y-70429523D01*
X168346202Y-70477142D01*
X168489059Y-70477142D01*
X168679535Y-70429523D01*
X168774773Y-70381904D01*
X168870011Y-70286666D01*
X168917630Y-70143809D01*
X168917630Y-69905714D01*
X168012869Y-70858095D02*
X167965250Y-70905714D01*
X167917630Y-71000952D01*
X167917630Y-71239047D01*
X167965250Y-71334285D01*
X168012869Y-71381904D01*
X168108107Y-71429523D01*
X168203345Y-71429523D01*
X168346202Y-71381904D01*
X168917630Y-70810476D01*
X168917630Y-71429523D01*
X167917630Y-72334285D02*
X167917630Y-71858095D01*
X168393821Y-71810476D01*
X168346202Y-71858095D01*
X168298583Y-71953333D01*
X168298583Y-72191428D01*
X168346202Y-72286666D01*
X168393821Y-72334285D01*
X168489059Y-72381904D01*
X168727154Y-72381904D01*
X168822392Y-72334285D01*
X168870011Y-72286666D01*
X168917630Y-72191428D01*
X168917630Y-71953333D01*
X168870011Y-71858095D01*
X168822392Y-71810476D01*
%TO.C,J1*%
X158159380Y-33702666D02*
X158873666Y-33702666D01*
X159016523Y-33655047D01*
X159111761Y-33559809D01*
X159159380Y-33416952D01*
X159159380Y-33321714D01*
X159159380Y-34702666D02*
X159159380Y-34131238D01*
X159159380Y-34416952D02*
X158159380Y-34416952D01*
X158302238Y-34321714D01*
X158397476Y-34226476D01*
X158445095Y-34131238D01*
%TO.C,D10*%
X69159130Y-51363714D02*
X68159130Y-51363714D01*
X68159130Y-51601809D01*
X68206750Y-51744666D01*
X68301988Y-51839904D01*
X68397226Y-51887523D01*
X68587702Y-51935142D01*
X68730559Y-51935142D01*
X68921035Y-51887523D01*
X69016273Y-51839904D01*
X69111511Y-51744666D01*
X69159130Y-51601809D01*
X69159130Y-51363714D01*
X69159130Y-52887523D02*
X69159130Y-52316095D01*
X69159130Y-52601809D02*
X68159130Y-52601809D01*
X68301988Y-52506571D01*
X68397226Y-52411333D01*
X68444845Y-52316095D01*
X68159130Y-53506571D02*
X68159130Y-53601809D01*
X68206750Y-53697047D01*
X68254369Y-53744666D01*
X68349607Y-53792285D01*
X68540083Y-53839904D01*
X68778178Y-53839904D01*
X68968654Y-53792285D01*
X69063892Y-53744666D01*
X69111511Y-53697047D01*
X69159130Y-53601809D01*
X69159130Y-53506571D01*
X69111511Y-53411333D01*
X69063892Y-53363714D01*
X68968654Y-53316095D01*
X68778178Y-53268476D01*
X68540083Y-53268476D01*
X68349607Y-53316095D01*
X68254369Y-53363714D01*
X68206750Y-53411333D01*
X68159130Y-53506571D01*
%TO.C,D7*%
X97734130Y-32789904D02*
X96734130Y-32789904D01*
X96734130Y-33028000D01*
X96781750Y-33170857D01*
X96876988Y-33266095D01*
X96972226Y-33313714D01*
X97162702Y-33361333D01*
X97305559Y-33361333D01*
X97496035Y-33313714D01*
X97591273Y-33266095D01*
X97686511Y-33170857D01*
X97734130Y-33028000D01*
X97734130Y-32789904D01*
X96734130Y-33694666D02*
X96734130Y-34361333D01*
X97734130Y-33932761D01*
%TO.C,D35*%
X178442630Y-88955714D02*
X177442630Y-88955714D01*
X177442630Y-89193809D01*
X177490250Y-89336666D01*
X177585488Y-89431904D01*
X177680726Y-89479523D01*
X177871202Y-89527142D01*
X178014059Y-89527142D01*
X178204535Y-89479523D01*
X178299773Y-89431904D01*
X178395011Y-89336666D01*
X178442630Y-89193809D01*
X178442630Y-88955714D01*
X177442630Y-89860476D02*
X177442630Y-90479523D01*
X177823583Y-90146190D01*
X177823583Y-90289047D01*
X177871202Y-90384285D01*
X177918821Y-90431904D01*
X178014059Y-90479523D01*
X178252154Y-90479523D01*
X178347392Y-90431904D01*
X178395011Y-90384285D01*
X178442630Y-90289047D01*
X178442630Y-90003333D01*
X178395011Y-89908095D01*
X178347392Y-89860476D01*
X177442630Y-91384285D02*
X177442630Y-90908095D01*
X177918821Y-90860476D01*
X177871202Y-90908095D01*
X177823583Y-91003333D01*
X177823583Y-91241428D01*
X177871202Y-91336666D01*
X177918821Y-91384285D01*
X178014059Y-91431904D01*
X178252154Y-91431904D01*
X178347392Y-91384285D01*
X178395011Y-91336666D01*
X178442630Y-91241428D01*
X178442630Y-91003333D01*
X178395011Y-90908095D01*
X178347392Y-90860476D01*
%TO.C,D20*%
X47727880Y-70413714D02*
X46727880Y-70413714D01*
X46727880Y-70651809D01*
X46775500Y-70794666D01*
X46870738Y-70889904D01*
X46965976Y-70937523D01*
X47156452Y-70985142D01*
X47299309Y-70985142D01*
X47489785Y-70937523D01*
X47585023Y-70889904D01*
X47680261Y-70794666D01*
X47727880Y-70651809D01*
X47727880Y-70413714D01*
X46823119Y-71366095D02*
X46775500Y-71413714D01*
X46727880Y-71508952D01*
X46727880Y-71747047D01*
X46775500Y-71842285D01*
X46823119Y-71889904D01*
X46918357Y-71937523D01*
X47013595Y-71937523D01*
X47156452Y-71889904D01*
X47727880Y-71318476D01*
X47727880Y-71937523D01*
X46727880Y-72556571D02*
X46727880Y-72651809D01*
X46775500Y-72747047D01*
X46823119Y-72794666D01*
X46918357Y-72842285D01*
X47108833Y-72889904D01*
X47346928Y-72889904D01*
X47537404Y-72842285D01*
X47632642Y-72794666D01*
X47680261Y-72747047D01*
X47727880Y-72651809D01*
X47727880Y-72556571D01*
X47680261Y-72461333D01*
X47632642Y-72413714D01*
X47537404Y-72366095D01*
X47346928Y-72318476D01*
X47108833Y-72318476D01*
X46918357Y-72366095D01*
X46823119Y-72413714D01*
X46775500Y-72461333D01*
X46727880Y-72556571D01*
%TO.C,D36*%
X197492630Y-88955714D02*
X196492630Y-88955714D01*
X196492630Y-89193809D01*
X196540250Y-89336666D01*
X196635488Y-89431904D01*
X196730726Y-89479523D01*
X196921202Y-89527142D01*
X197064059Y-89527142D01*
X197254535Y-89479523D01*
X197349773Y-89431904D01*
X197445011Y-89336666D01*
X197492630Y-89193809D01*
X197492630Y-88955714D01*
X196492630Y-89860476D02*
X196492630Y-90479523D01*
X196873583Y-90146190D01*
X196873583Y-90289047D01*
X196921202Y-90384285D01*
X196968821Y-90431904D01*
X197064059Y-90479523D01*
X197302154Y-90479523D01*
X197397392Y-90431904D01*
X197445011Y-90384285D01*
X197492630Y-90289047D01*
X197492630Y-90003333D01*
X197445011Y-89908095D01*
X197397392Y-89860476D01*
X196492630Y-91336666D02*
X196492630Y-91146190D01*
X196540250Y-91050952D01*
X196587869Y-91003333D01*
X196730726Y-90908095D01*
X196921202Y-90860476D01*
X197302154Y-90860476D01*
X197397392Y-90908095D01*
X197445011Y-90955714D01*
X197492630Y-91050952D01*
X197492630Y-91241428D01*
X197445011Y-91336666D01*
X197397392Y-91384285D01*
X197302154Y-91431904D01*
X197064059Y-91431904D01*
X196968821Y-91384285D01*
X196921202Y-91336666D01*
X196873583Y-91241428D01*
X196873583Y-91050952D01*
X196921202Y-90955714D01*
X196968821Y-90908095D01*
X197064059Y-90860476D01*
%TO.C,D9*%
X45346630Y-51839904D02*
X44346630Y-51839904D01*
X44346630Y-52078000D01*
X44394250Y-52220857D01*
X44489488Y-52316095D01*
X44584726Y-52363714D01*
X44775202Y-52411333D01*
X44918059Y-52411333D01*
X45108535Y-52363714D01*
X45203773Y-52316095D01*
X45299011Y-52220857D01*
X45346630Y-52078000D01*
X45346630Y-51839904D01*
X45346630Y-52887523D02*
X45346630Y-53078000D01*
X45299011Y-53173238D01*
X45251392Y-53220857D01*
X45108535Y-53316095D01*
X44918059Y-53363714D01*
X44537107Y-53363714D01*
X44441869Y-53316095D01*
X44394250Y-53268476D01*
X44346630Y-53173238D01*
X44346630Y-52982761D01*
X44394250Y-52887523D01*
X44441869Y-52839904D01*
X44537107Y-52792285D01*
X44775202Y-52792285D01*
X44870440Y-52839904D01*
X44918059Y-52887523D01*
X44965678Y-52982761D01*
X44965678Y-53173238D01*
X44918059Y-53268476D01*
X44870440Y-53316095D01*
X44775202Y-53363714D01*
%TO.C,D30*%
X52490380Y-89463714D02*
X51490380Y-89463714D01*
X51490380Y-89701809D01*
X51538000Y-89844666D01*
X51633238Y-89939904D01*
X51728476Y-89987523D01*
X51918952Y-90035142D01*
X52061809Y-90035142D01*
X52252285Y-89987523D01*
X52347523Y-89939904D01*
X52442761Y-89844666D01*
X52490380Y-89701809D01*
X52490380Y-89463714D01*
X51490380Y-90368476D02*
X51490380Y-90987523D01*
X51871333Y-90654190D01*
X51871333Y-90797047D01*
X51918952Y-90892285D01*
X51966571Y-90939904D01*
X52061809Y-90987523D01*
X52299904Y-90987523D01*
X52395142Y-90939904D01*
X52442761Y-90892285D01*
X52490380Y-90797047D01*
X52490380Y-90511333D01*
X52442761Y-90416095D01*
X52395142Y-90368476D01*
X51490380Y-91606571D02*
X51490380Y-91701809D01*
X51538000Y-91797047D01*
X51585619Y-91844666D01*
X51680857Y-91892285D01*
X51871333Y-91939904D01*
X52109428Y-91939904D01*
X52299904Y-91892285D01*
X52395142Y-91844666D01*
X52442761Y-91797047D01*
X52490380Y-91701809D01*
X52490380Y-91606571D01*
X52442761Y-91511333D01*
X52395142Y-91463714D01*
X52299904Y-91416095D01*
X52109428Y-91368476D01*
X51871333Y-91368476D01*
X51680857Y-91416095D01*
X51585619Y-91463714D01*
X51538000Y-91511333D01*
X51490380Y-91606571D01*
%TO.C,D27*%
X207017630Y-69905714D02*
X206017630Y-69905714D01*
X206017630Y-70143809D01*
X206065250Y-70286666D01*
X206160488Y-70381904D01*
X206255726Y-70429523D01*
X206446202Y-70477142D01*
X206589059Y-70477142D01*
X206779535Y-70429523D01*
X206874773Y-70381904D01*
X206970011Y-70286666D01*
X207017630Y-70143809D01*
X207017630Y-69905714D01*
X206112869Y-70858095D02*
X206065250Y-70905714D01*
X206017630Y-71000952D01*
X206017630Y-71239047D01*
X206065250Y-71334285D01*
X206112869Y-71381904D01*
X206208107Y-71429523D01*
X206303345Y-71429523D01*
X206446202Y-71381904D01*
X207017630Y-70810476D01*
X207017630Y-71429523D01*
X206017630Y-71762857D02*
X206017630Y-72429523D01*
X207017630Y-72000952D01*
%TO.C,D33*%
X121546630Y-89463714D02*
X120546630Y-89463714D01*
X120546630Y-89701809D01*
X120594250Y-89844666D01*
X120689488Y-89939904D01*
X120784726Y-89987523D01*
X120975202Y-90035142D01*
X121118059Y-90035142D01*
X121308535Y-89987523D01*
X121403773Y-89939904D01*
X121499011Y-89844666D01*
X121546630Y-89701809D01*
X121546630Y-89463714D01*
X120546630Y-90368476D02*
X120546630Y-90987523D01*
X120927583Y-90654190D01*
X120927583Y-90797047D01*
X120975202Y-90892285D01*
X121022821Y-90939904D01*
X121118059Y-90987523D01*
X121356154Y-90987523D01*
X121451392Y-90939904D01*
X121499011Y-90892285D01*
X121546630Y-90797047D01*
X121546630Y-90511333D01*
X121499011Y-90416095D01*
X121451392Y-90368476D01*
X120546630Y-91320857D02*
X120546630Y-91939904D01*
X120927583Y-91606571D01*
X120927583Y-91749428D01*
X120975202Y-91844666D01*
X121022821Y-91892285D01*
X121118059Y-91939904D01*
X121356154Y-91939904D01*
X121451392Y-91892285D01*
X121499011Y-91844666D01*
X121546630Y-91749428D01*
X121546630Y-91463714D01*
X121499011Y-91368476D01*
X121451392Y-91320857D01*
%TO.C,D3*%
X241085380Y-37996904D02*
X240085380Y-37996904D01*
X240085380Y-38235000D01*
X240133000Y-38377857D01*
X240228238Y-38473095D01*
X240323476Y-38520714D01*
X240513952Y-38568333D01*
X240656809Y-38568333D01*
X240847285Y-38520714D01*
X240942523Y-38473095D01*
X241037761Y-38377857D01*
X241085380Y-38235000D01*
X241085380Y-37996904D01*
X240085380Y-38901666D02*
X240085380Y-39520714D01*
X240466333Y-39187380D01*
X240466333Y-39330238D01*
X240513952Y-39425476D01*
X240561571Y-39473095D01*
X240656809Y-39520714D01*
X240894904Y-39520714D01*
X240990142Y-39473095D01*
X241037761Y-39425476D01*
X241085380Y-39330238D01*
X241085380Y-39044523D01*
X241037761Y-38949285D01*
X240990142Y-38901666D01*
%TO.C,D26*%
X187967630Y-69905714D02*
X186967630Y-69905714D01*
X186967630Y-70143809D01*
X187015250Y-70286666D01*
X187110488Y-70381904D01*
X187205726Y-70429523D01*
X187396202Y-70477142D01*
X187539059Y-70477142D01*
X187729535Y-70429523D01*
X187824773Y-70381904D01*
X187920011Y-70286666D01*
X187967630Y-70143809D01*
X187967630Y-69905714D01*
X187062869Y-70858095D02*
X187015250Y-70905714D01*
X186967630Y-71000952D01*
X186967630Y-71239047D01*
X187015250Y-71334285D01*
X187062869Y-71381904D01*
X187158107Y-71429523D01*
X187253345Y-71429523D01*
X187396202Y-71381904D01*
X187967630Y-70810476D01*
X187967630Y-71429523D01*
X186967630Y-72286666D02*
X186967630Y-72096190D01*
X187015250Y-72000952D01*
X187062869Y-71953333D01*
X187205726Y-71858095D01*
X187396202Y-71810476D01*
X187777154Y-71810476D01*
X187872392Y-71858095D01*
X187920011Y-71905714D01*
X187967630Y-72000952D01*
X187967630Y-72191428D01*
X187920011Y-72286666D01*
X187872392Y-72334285D01*
X187777154Y-72381904D01*
X187539059Y-72381904D01*
X187443821Y-72334285D01*
X187396202Y-72286666D01*
X187348583Y-72191428D01*
X187348583Y-72000952D01*
X187396202Y-71905714D01*
X187443821Y-71858095D01*
X187539059Y-71810476D01*
%TO.C,D2*%
X246419380Y-37996904D02*
X245419380Y-37996904D01*
X245419380Y-38235000D01*
X245467000Y-38377857D01*
X245562238Y-38473095D01*
X245657476Y-38520714D01*
X245847952Y-38568333D01*
X245990809Y-38568333D01*
X246181285Y-38520714D01*
X246276523Y-38473095D01*
X246371761Y-38377857D01*
X246419380Y-38235000D01*
X246419380Y-37996904D01*
X245514619Y-38949285D02*
X245467000Y-38996904D01*
X245419380Y-39092142D01*
X245419380Y-39330238D01*
X245467000Y-39425476D01*
X245514619Y-39473095D01*
X245609857Y-39520714D01*
X245705095Y-39520714D01*
X245847952Y-39473095D01*
X246419380Y-38901666D01*
X246419380Y-39520714D01*
%TO.C,D41*%
X237973880Y-108005714D02*
X236973880Y-108005714D01*
X236973880Y-108243809D01*
X237021500Y-108386666D01*
X237116738Y-108481904D01*
X237211976Y-108529523D01*
X237402452Y-108577142D01*
X237545309Y-108577142D01*
X237735785Y-108529523D01*
X237831023Y-108481904D01*
X237926261Y-108386666D01*
X237973880Y-108243809D01*
X237973880Y-108005714D01*
X237307214Y-109434285D02*
X237973880Y-109434285D01*
X236926261Y-109196190D02*
X237640547Y-108958095D01*
X237640547Y-109577142D01*
X237973880Y-110481904D02*
X237973880Y-109910476D01*
X237973880Y-110196190D02*
X236973880Y-110196190D01*
X237116738Y-110100952D01*
X237211976Y-110005714D01*
X237259595Y-109910476D01*
%TO.C,D32*%
X102496630Y-89463714D02*
X101496630Y-89463714D01*
X101496630Y-89701809D01*
X101544250Y-89844666D01*
X101639488Y-89939904D01*
X101734726Y-89987523D01*
X101925202Y-90035142D01*
X102068059Y-90035142D01*
X102258535Y-89987523D01*
X102353773Y-89939904D01*
X102449011Y-89844666D01*
X102496630Y-89701809D01*
X102496630Y-89463714D01*
X101496630Y-90368476D02*
X101496630Y-90987523D01*
X101877583Y-90654190D01*
X101877583Y-90797047D01*
X101925202Y-90892285D01*
X101972821Y-90939904D01*
X102068059Y-90987523D01*
X102306154Y-90987523D01*
X102401392Y-90939904D01*
X102449011Y-90892285D01*
X102496630Y-90797047D01*
X102496630Y-90511333D01*
X102449011Y-90416095D01*
X102401392Y-90368476D01*
X101591869Y-91368476D02*
X101544250Y-91416095D01*
X101496630Y-91511333D01*
X101496630Y-91749428D01*
X101544250Y-91844666D01*
X101591869Y-91892285D01*
X101687107Y-91939904D01*
X101782345Y-91939904D01*
X101925202Y-91892285D01*
X102496630Y-91320857D01*
X102496630Y-91939904D01*
%TO.C,D16*%
X202255130Y-50855714D02*
X201255130Y-50855714D01*
X201255130Y-51093809D01*
X201302750Y-51236666D01*
X201397988Y-51331904D01*
X201493226Y-51379523D01*
X201683702Y-51427142D01*
X201826559Y-51427142D01*
X202017035Y-51379523D01*
X202112273Y-51331904D01*
X202207511Y-51236666D01*
X202255130Y-51093809D01*
X202255130Y-50855714D01*
X202255130Y-52379523D02*
X202255130Y-51808095D01*
X202255130Y-52093809D02*
X201255130Y-52093809D01*
X201397988Y-51998571D01*
X201493226Y-51903333D01*
X201540845Y-51808095D01*
X201255130Y-53236666D02*
X201255130Y-53046190D01*
X201302750Y-52950952D01*
X201350369Y-52903333D01*
X201493226Y-52808095D01*
X201683702Y-52760476D01*
X202064654Y-52760476D01*
X202159892Y-52808095D01*
X202207511Y-52855714D01*
X202255130Y-52950952D01*
X202255130Y-53141428D01*
X202207511Y-53236666D01*
X202159892Y-53284285D01*
X202064654Y-53331904D01*
X201826559Y-53331904D01*
X201731321Y-53284285D01*
X201683702Y-53236666D01*
X201636083Y-53141428D01*
X201636083Y-52950952D01*
X201683702Y-52855714D01*
X201731321Y-52808095D01*
X201826559Y-52760476D01*
%TO.C,D43*%
X154598380Y-113466714D02*
X153598380Y-113466714D01*
X153598380Y-113704809D01*
X153646000Y-113847666D01*
X153741238Y-113942904D01*
X153836476Y-113990523D01*
X154026952Y-114038142D01*
X154169809Y-114038142D01*
X154360285Y-113990523D01*
X154455523Y-113942904D01*
X154550761Y-113847666D01*
X154598380Y-113704809D01*
X154598380Y-113466714D01*
X153931714Y-114895285D02*
X154598380Y-114895285D01*
X153550761Y-114657190D02*
X154265047Y-114419095D01*
X154265047Y-115038142D01*
X153598380Y-115323857D02*
X153598380Y-115942904D01*
X153979333Y-115609571D01*
X153979333Y-115752428D01*
X154026952Y-115847666D01*
X154074571Y-115895285D01*
X154169809Y-115942904D01*
X154407904Y-115942904D01*
X154503142Y-115895285D01*
X154550761Y-115847666D01*
X154598380Y-115752428D01*
X154598380Y-115466714D01*
X154550761Y-115371476D01*
X154503142Y-115323857D01*
%TO.C,D37*%
X216542630Y-88955714D02*
X215542630Y-88955714D01*
X215542630Y-89193809D01*
X215590250Y-89336666D01*
X215685488Y-89431904D01*
X215780726Y-89479523D01*
X215971202Y-89527142D01*
X216114059Y-89527142D01*
X216304535Y-89479523D01*
X216399773Y-89431904D01*
X216495011Y-89336666D01*
X216542630Y-89193809D01*
X216542630Y-88955714D01*
X215542630Y-89860476D02*
X215542630Y-90479523D01*
X215923583Y-90146190D01*
X215923583Y-90289047D01*
X215971202Y-90384285D01*
X216018821Y-90431904D01*
X216114059Y-90479523D01*
X216352154Y-90479523D01*
X216447392Y-90431904D01*
X216495011Y-90384285D01*
X216542630Y-90289047D01*
X216542630Y-90003333D01*
X216495011Y-89908095D01*
X216447392Y-89860476D01*
X215542630Y-90812857D02*
X215542630Y-91479523D01*
X216542630Y-91050952D01*
%TO.C,D22*%
X92971630Y-70413714D02*
X91971630Y-70413714D01*
X91971630Y-70651809D01*
X92019250Y-70794666D01*
X92114488Y-70889904D01*
X92209726Y-70937523D01*
X92400202Y-70985142D01*
X92543059Y-70985142D01*
X92733535Y-70937523D01*
X92828773Y-70889904D01*
X92924011Y-70794666D01*
X92971630Y-70651809D01*
X92971630Y-70413714D01*
X92066869Y-71366095D02*
X92019250Y-71413714D01*
X91971630Y-71508952D01*
X91971630Y-71747047D01*
X92019250Y-71842285D01*
X92066869Y-71889904D01*
X92162107Y-71937523D01*
X92257345Y-71937523D01*
X92400202Y-71889904D01*
X92971630Y-71318476D01*
X92971630Y-71937523D01*
X92066869Y-72318476D02*
X92019250Y-72366095D01*
X91971630Y-72461333D01*
X91971630Y-72699428D01*
X92019250Y-72794666D01*
X92066869Y-72842285D01*
X92162107Y-72889904D01*
X92257345Y-72889904D01*
X92400202Y-72842285D01*
X92971630Y-72270857D01*
X92971630Y-72889904D01*
%TO.C,D0*%
X207017630Y-27519404D02*
X206017630Y-27519404D01*
X206017630Y-27757500D01*
X206065250Y-27900357D01*
X206160488Y-27995595D01*
X206255726Y-28043214D01*
X206446202Y-28090833D01*
X206589059Y-28090833D01*
X206779535Y-28043214D01*
X206874773Y-27995595D01*
X206970011Y-27900357D01*
X207017630Y-27757500D01*
X207017630Y-27519404D01*
X206017630Y-28709880D02*
X206017630Y-28805119D01*
X206065250Y-28900357D01*
X206112869Y-28947976D01*
X206208107Y-28995595D01*
X206398583Y-29043214D01*
X206636678Y-29043214D01*
X206827154Y-28995595D01*
X206922392Y-28947976D01*
X206970011Y-28900357D01*
X207017630Y-28805119D01*
X207017630Y-28709880D01*
X206970011Y-28614642D01*
X206922392Y-28567023D01*
X206827154Y-28519404D01*
X206636678Y-28471785D01*
X206398583Y-28471785D01*
X206208107Y-28519404D01*
X206112869Y-28567023D01*
X206065250Y-28614642D01*
X206017630Y-28709880D01*
%TO.C,D13*%
X126309130Y-51363714D02*
X125309130Y-51363714D01*
X125309130Y-51601809D01*
X125356750Y-51744666D01*
X125451988Y-51839904D01*
X125547226Y-51887523D01*
X125737702Y-51935142D01*
X125880559Y-51935142D01*
X126071035Y-51887523D01*
X126166273Y-51839904D01*
X126261511Y-51744666D01*
X126309130Y-51601809D01*
X126309130Y-51363714D01*
X126309130Y-52887523D02*
X126309130Y-52316095D01*
X126309130Y-52601809D02*
X125309130Y-52601809D01*
X125451988Y-52506571D01*
X125547226Y-52411333D01*
X125594845Y-52316095D01*
X125309130Y-53220857D02*
X125309130Y-53839904D01*
X125690083Y-53506571D01*
X125690083Y-53649428D01*
X125737702Y-53744666D01*
X125785321Y-53792285D01*
X125880559Y-53839904D01*
X126118654Y-53839904D01*
X126213892Y-53792285D01*
X126261511Y-53744666D01*
X126309130Y-53649428D01*
X126309130Y-53363714D01*
X126261511Y-53268476D01*
X126213892Y-53220857D01*
%TO.C,D38*%
X235592630Y-88955714D02*
X234592630Y-88955714D01*
X234592630Y-89193809D01*
X234640250Y-89336666D01*
X234735488Y-89431904D01*
X234830726Y-89479523D01*
X235021202Y-89527142D01*
X235164059Y-89527142D01*
X235354535Y-89479523D01*
X235449773Y-89431904D01*
X235545011Y-89336666D01*
X235592630Y-89193809D01*
X235592630Y-88955714D01*
X234592630Y-89860476D02*
X234592630Y-90479523D01*
X234973583Y-90146190D01*
X234973583Y-90289047D01*
X235021202Y-90384285D01*
X235068821Y-90431904D01*
X235164059Y-90479523D01*
X235402154Y-90479523D01*
X235497392Y-90431904D01*
X235545011Y-90384285D01*
X235592630Y-90289047D01*
X235592630Y-90003333D01*
X235545011Y-89908095D01*
X235497392Y-89860476D01*
X235021202Y-91050952D02*
X234973583Y-90955714D01*
X234925964Y-90908095D01*
X234830726Y-90860476D01*
X234783107Y-90860476D01*
X234687869Y-90908095D01*
X234640250Y-90955714D01*
X234592630Y-91050952D01*
X234592630Y-91241428D01*
X234640250Y-91336666D01*
X234687869Y-91384285D01*
X234783107Y-91431904D01*
X234830726Y-91431904D01*
X234925964Y-91384285D01*
X234973583Y-91336666D01*
X235021202Y-91241428D01*
X235021202Y-91050952D01*
X235068821Y-90955714D01*
X235116440Y-90908095D01*
X235211678Y-90860476D01*
X235402154Y-90860476D01*
X235497392Y-90908095D01*
X235545011Y-90955714D01*
X235592630Y-91050952D01*
X235592630Y-91241428D01*
X235545011Y-91336666D01*
X235497392Y-91384285D01*
X235402154Y-91431904D01*
X235211678Y-91431904D01*
X235116440Y-91384285D01*
X235068821Y-91336666D01*
X235021202Y-91241428D01*
%TO.C,R3*%
X143803666Y-21440380D02*
X144137000Y-20964190D01*
X144375095Y-21440380D02*
X144375095Y-20440380D01*
X143994142Y-20440380D01*
X143898904Y-20488000D01*
X143851285Y-20535619D01*
X143803666Y-20630857D01*
X143803666Y-20773714D01*
X143851285Y-20868952D01*
X143898904Y-20916571D01*
X143994142Y-20964190D01*
X144375095Y-20964190D01*
X143470333Y-20440380D02*
X142851285Y-20440380D01*
X143184619Y-20821333D01*
X143041761Y-20821333D01*
X142946523Y-20868952D01*
X142898904Y-20916571D01*
X142851285Y-21011809D01*
X142851285Y-21249904D01*
X142898904Y-21345142D01*
X142946523Y-21392761D01*
X143041761Y-21440380D01*
X143327476Y-21440380D01*
X143422714Y-21392761D01*
X143470333Y-21345142D01*
%TO.C,D29*%
X257023880Y-69905714D02*
X256023880Y-69905714D01*
X256023880Y-70143809D01*
X256071500Y-70286666D01*
X256166738Y-70381904D01*
X256261976Y-70429523D01*
X256452452Y-70477142D01*
X256595309Y-70477142D01*
X256785785Y-70429523D01*
X256881023Y-70381904D01*
X256976261Y-70286666D01*
X257023880Y-70143809D01*
X257023880Y-69905714D01*
X256119119Y-70858095D02*
X256071500Y-70905714D01*
X256023880Y-71000952D01*
X256023880Y-71239047D01*
X256071500Y-71334285D01*
X256119119Y-71381904D01*
X256214357Y-71429523D01*
X256309595Y-71429523D01*
X256452452Y-71381904D01*
X257023880Y-70810476D01*
X257023880Y-71429523D01*
X257023880Y-71905714D02*
X257023880Y-72096190D01*
X256976261Y-72191428D01*
X256928642Y-72239047D01*
X256785785Y-72334285D01*
X256595309Y-72381904D01*
X256214357Y-72381904D01*
X256119119Y-72334285D01*
X256071500Y-72286666D01*
X256023880Y-72191428D01*
X256023880Y-72000952D01*
X256071500Y-71905714D01*
X256119119Y-71858095D01*
X256214357Y-71810476D01*
X256452452Y-71810476D01*
X256547690Y-71858095D01*
X256595309Y-71905714D01*
X256642928Y-72000952D01*
X256642928Y-72191428D01*
X256595309Y-72286666D01*
X256547690Y-72334285D01*
X256452452Y-72381904D01*
%TO.C,G\u002A\u002A\u002A*%
G36*
X161879046Y-92770220D02*
G01*
X163161215Y-93097718D01*
X163465093Y-93177416D01*
X164557086Y-93486604D01*
X165524234Y-93788478D01*
X165742539Y-93858461D01*
X166644056Y-94118790D01*
X167807514Y-94428521D01*
X169037000Y-94734874D01*
X169249979Y-94786123D01*
X172515789Y-95625830D01*
X175293124Y-96452284D01*
X177630216Y-97281014D01*
X179575298Y-98127547D01*
X180551242Y-98613353D01*
X181893629Y-99359246D01*
X182850224Y-100066179D01*
X183495513Y-100834667D01*
X183903982Y-101765225D01*
X184150116Y-102958366D01*
X184308403Y-104514606D01*
X184362386Y-105144862D01*
X184511140Y-106372511D01*
X184683807Y-107110951D01*
X184887735Y-107396737D01*
X184992562Y-107437618D01*
X185664741Y-107942452D01*
X186408832Y-108830971D01*
X187143143Y-109992678D01*
X187785985Y-111317072D01*
X187947867Y-111726868D01*
X188513714Y-113928997D01*
X188549751Y-116066504D01*
X188063226Y-118124417D01*
X187061388Y-120087764D01*
X185551482Y-121941572D01*
X183540758Y-123670868D01*
X181036462Y-125260681D01*
X180298029Y-125632234D01*
X179244679Y-125971113D01*
X178089128Y-126065441D01*
X176602958Y-126064799D01*
X179600445Y-124602705D01*
X181750554Y-123422257D01*
X183835393Y-121901312D01*
X185450503Y-120219668D01*
X186628373Y-118348412D01*
X186982885Y-117572049D01*
X187251880Y-116733338D01*
X187376459Y-115816625D01*
X187404135Y-114591830D01*
X187399992Y-114190553D01*
X187329556Y-113002760D01*
X187147207Y-112116918D01*
X186819835Y-111349277D01*
X185926098Y-110044131D01*
X184525071Y-108809912D01*
X182682745Y-107836237D01*
X181653140Y-107402492D01*
X180164724Y-106746922D01*
X178761971Y-106098733D01*
X177527362Y-105498394D01*
X176543378Y-104986375D01*
X175892501Y-104603145D01*
X175657213Y-104389174D01*
X175690071Y-104290678D01*
X175994979Y-104257571D01*
X176132140Y-104308118D01*
X176907390Y-104577495D01*
X177939392Y-104919732D01*
X179118127Y-105300300D01*
X180333577Y-105684672D01*
X181475725Y-106038320D01*
X182434551Y-106326718D01*
X183100038Y-106515337D01*
X183362167Y-106569649D01*
X183375877Y-106447155D01*
X183328313Y-105919245D01*
X183208884Y-105134383D01*
X183141110Y-104741543D01*
X182964144Y-103686501D01*
X182823389Y-102810385D01*
X182812275Y-102742659D01*
X182576219Y-101979572D01*
X182117558Y-101273466D01*
X181392655Y-100599782D01*
X180357875Y-99933960D01*
X178969578Y-99251443D01*
X177184130Y-98527670D01*
X174957893Y-97738084D01*
X172247229Y-96858125D01*
X172023226Y-96787905D01*
X168288493Y-95690592D01*
X164843472Y-94819587D01*
X161733658Y-94184255D01*
X159004542Y-93793960D01*
X156701618Y-93658067D01*
X154501526Y-93742520D01*
X151534341Y-94070366D01*
X148326807Y-94627605D01*
X145005054Y-95395501D01*
X143627967Y-95718768D01*
X142297674Y-95927898D01*
X141421719Y-95919269D01*
X140940586Y-95886421D01*
X139847927Y-95956332D01*
X138338536Y-96156908D01*
X136473688Y-96479557D01*
X134314660Y-96915688D01*
X132429681Y-97358012D01*
X129844097Y-98070267D01*
X127297352Y-98879937D01*
X124955394Y-99733397D01*
X122984175Y-100577023D01*
X122883700Y-100624778D01*
X121191123Y-101477241D01*
X119912743Y-102258525D01*
X118954915Y-103063474D01*
X118223992Y-103986937D01*
X117626331Y-105123759D01*
X117068285Y-106568787D01*
X116846074Y-107210458D01*
X116519035Y-108177966D01*
X116294090Y-108874578D01*
X116210404Y-109181031D01*
X116213689Y-109193580D01*
X116465036Y-109163842D01*
X116994100Y-108931294D01*
X117056860Y-108899724D01*
X117655128Y-108633426D01*
X118506280Y-108287974D01*
X119484596Y-107910151D01*
X120464354Y-107546740D01*
X121319836Y-107244523D01*
X121925319Y-107050284D01*
X122155085Y-107010804D01*
X122149247Y-107019276D01*
X121862325Y-107213521D01*
X121206959Y-107612845D01*
X120271123Y-108164532D01*
X119142792Y-108815864D01*
X117357584Y-109892408D01*
X115710937Y-111051476D01*
X114449117Y-112177707D01*
X113500628Y-113336144D01*
X112793979Y-114591830D01*
X112430735Y-115551643D01*
X112101446Y-117025457D01*
X111998487Y-118487186D01*
X112129270Y-119780904D01*
X112501208Y-120750680D01*
X112641231Y-120977325D01*
X112795384Y-121394083D01*
X112570279Y-121430635D01*
X111975101Y-121081210D01*
X111790587Y-120915126D01*
X111343553Y-120145526D01*
X111025410Y-119043557D01*
X110870177Y-117757809D01*
X110911871Y-116436876D01*
X110943560Y-116201285D01*
X111426654Y-114410635D01*
X112276444Y-112703780D01*
X113402742Y-111230057D01*
X114715361Y-110138803D01*
X115051853Y-109912098D01*
X115399920Y-109565760D01*
X115667125Y-109067601D01*
X115915605Y-108291557D01*
X116207500Y-107111562D01*
X116251873Y-106924317D01*
X116800738Y-104936349D01*
X117435668Y-103370968D01*
X118243809Y-102119420D01*
X119312306Y-101072950D01*
X120728306Y-100122805D01*
X122578953Y-99160229D01*
X123696726Y-98667705D01*
X125836639Y-97877232D01*
X128271390Y-97120493D01*
X130850169Y-96436295D01*
X133422165Y-95863443D01*
X135836568Y-95440740D01*
X137942568Y-95206994D01*
X139003455Y-95136511D01*
X139165394Y-94604712D01*
X140342139Y-94604712D01*
X140419284Y-94916659D01*
X140916663Y-95001404D01*
X141381230Y-94984315D01*
X141628641Y-94933851D01*
X141631817Y-94918249D01*
X141682672Y-94565372D01*
X141767063Y-93920553D01*
X142022873Y-92603063D01*
X142479133Y-91555425D01*
X143117105Y-90988025D01*
X143413924Y-90855428D01*
X143838399Y-90706533D01*
X143817992Y-90849730D01*
X143378374Y-91317381D01*
X143104568Y-91634964D01*
X142823305Y-92283674D01*
X142758109Y-93221285D01*
X142790755Y-93863716D01*
X142911587Y-94296236D01*
X143148452Y-94343355D01*
X143543844Y-94235001D01*
X144320786Y-94063971D01*
X145284354Y-93875748D01*
X146290707Y-93635476D01*
X147112569Y-93242827D01*
X147473867Y-92716186D01*
X147464842Y-92606029D01*
X148510726Y-92606029D01*
X148575254Y-92959162D01*
X148615030Y-92991113D01*
X149018738Y-93075896D01*
X149153311Y-93055964D01*
X149719147Y-92963033D01*
X150559126Y-92820914D01*
X151511837Y-92657392D01*
X152415864Y-92500250D01*
X153109794Y-92377270D01*
X153432213Y-92316235D01*
X153493056Y-92188479D01*
X153496317Y-91724787D01*
X153417109Y-91160637D01*
X153280159Y-90750630D01*
X152962048Y-90636044D01*
X152279301Y-90696194D01*
X151385384Y-90904208D01*
X150423474Y-91213553D01*
X149536751Y-91577693D01*
X148868393Y-91950093D01*
X148561580Y-92284220D01*
X148510726Y-92606029D01*
X147464842Y-92606029D01*
X147416739Y-92018857D01*
X147400797Y-91971958D01*
X147180261Y-91670190D01*
X146710785Y-91522857D01*
X145848046Y-91480422D01*
X145591026Y-91475176D01*
X144965290Y-91401224D01*
X144816628Y-91264528D01*
X145102774Y-91095679D01*
X145781461Y-90925268D01*
X146810423Y-90783886D01*
X147516527Y-90706089D01*
X148769811Y-90537683D01*
X150066238Y-90334359D01*
X151290012Y-90117153D01*
X152325338Y-89907104D01*
X153056418Y-89725248D01*
X153367457Y-89592623D01*
X153367683Y-89592254D01*
X153307226Y-89257387D01*
X152981449Y-88747104D01*
X152587583Y-88338887D01*
X152197143Y-88260295D01*
X151564281Y-88462200D01*
X151127384Y-88629782D01*
X149846638Y-89094913D01*
X148621489Y-89506281D01*
X147564190Y-89828955D01*
X146786992Y-90028008D01*
X146402146Y-90068510D01*
X146413567Y-89970002D01*
X146775466Y-89678179D01*
X147436133Y-89259498D01*
X148287203Y-88774974D01*
X149220309Y-88285622D01*
X150127085Y-87852457D01*
X150899165Y-87536494D01*
X151321335Y-87401620D01*
X152497992Y-87190085D01*
X153456805Y-87261392D01*
X154074659Y-87612591D01*
X154213530Y-87875260D01*
X154386473Y-88746970D01*
X154445511Y-90084675D01*
X154445511Y-92109404D01*
X156803910Y-92144390D01*
X159162310Y-92179376D01*
X159479394Y-90762492D01*
X159639781Y-90145572D01*
X159876015Y-89606293D01*
X160071960Y-89591843D01*
X160205642Y-90092681D01*
X160255085Y-91099266D01*
X160260396Y-91596700D01*
X160319267Y-92222886D01*
X160481880Y-92504275D01*
X160795511Y-92569489D01*
X161074116Y-92522346D01*
X161244067Y-92293575D01*
X161319093Y-91763633D01*
X161335936Y-90813106D01*
X161331770Y-90374128D01*
X161265718Y-89489630D01*
X161086493Y-88912002D01*
X160752093Y-88472880D01*
X160168250Y-87889037D01*
X159668565Y-88506121D01*
X159599475Y-88586744D01*
X159046418Y-88948124D01*
X158288443Y-88964320D01*
X157215192Y-88641418D01*
X156978424Y-88584609D01*
X156787691Y-88763817D01*
X156738182Y-89365580D01*
X156728121Y-89712938D01*
X156650026Y-90020453D01*
X156472106Y-89867362D01*
X156457697Y-89843660D01*
X156279864Y-89278541D01*
X156202048Y-88516298D01*
X156100271Y-87617614D01*
X155586642Y-86536796D01*
X154610958Y-85715156D01*
X154279929Y-85546652D01*
X153610971Y-85373572D01*
X152837588Y-85422663D01*
X151874817Y-85715308D01*
X150637693Y-86272886D01*
X149041255Y-87116779D01*
X148517817Y-87395928D01*
X147165396Y-88054585D01*
X145824563Y-88635405D01*
X144721061Y-89038001D01*
X144625615Y-89067544D01*
X143150159Y-89592361D01*
X142112554Y-90153729D01*
X141418752Y-90843416D01*
X140974706Y-91753187D01*
X140686366Y-92974809D01*
X140654603Y-93155356D01*
X140496964Y-93960053D01*
X140361831Y-94528532D01*
X140342139Y-94604712D01*
X139165394Y-94604712D01*
X139582861Y-93233772D01*
X139724366Y-92781489D01*
X140315110Y-91210071D01*
X140981341Y-90053835D01*
X141815445Y-89213018D01*
X142909805Y-88587858D01*
X144356807Y-88078594D01*
X145074149Y-87821217D01*
X146184118Y-87346644D01*
X147468686Y-86743066D01*
X148771043Y-86081432D01*
X149973264Y-85470327D01*
X151144740Y-84923292D01*
X152111169Y-84521137D01*
X152739069Y-84323014D01*
X153746556Y-84282428D01*
X154873597Y-84556786D01*
X155830173Y-85107489D01*
X156493882Y-85860573D01*
X156742319Y-86742073D01*
X156745676Y-86822398D01*
X156986826Y-87298574D01*
X157675219Y-87664222D01*
X158287170Y-87847591D01*
X158728201Y-87798776D01*
X159161389Y-87448292D01*
X159209012Y-87400991D01*
X159716115Y-86995577D01*
X160198581Y-86940243D01*
X160899639Y-87200286D01*
X161338064Y-87478285D01*
X161854518Y-88227530D01*
X162087272Y-89361242D01*
X162053148Y-90813106D01*
X162050510Y-90925342D01*
X161879046Y-92770220D01*
G37*
G36*
X174817030Y-121860837D02*
G01*
X175178124Y-122372678D01*
X175551573Y-123287364D01*
X175822755Y-124359399D01*
X175927426Y-125384890D01*
X175807330Y-125921572D01*
X175387000Y-126075872D01*
X175052552Y-125998614D01*
X174883076Y-125662276D01*
X174834714Y-124927468D01*
X174831423Y-124802345D01*
X174700396Y-123725088D01*
X174441569Y-122708557D01*
X174269670Y-122182660D01*
X174178999Y-121631773D01*
X174359106Y-121529797D01*
X174817030Y-121860837D01*
G37*
G36*
X121884872Y-125805660D02*
G01*
X121979972Y-125870129D01*
X122077046Y-126029071D01*
X121682213Y-126071735D01*
X121303090Y-126014955D01*
X121074234Y-125805660D01*
X121082596Y-125715169D01*
X121325701Y-125554225D01*
X121884872Y-125805660D01*
G37*
G36*
X112098829Y-121762801D02*
G01*
X112692825Y-121996662D01*
X113441342Y-122555827D01*
X114191863Y-123326954D01*
X114583800Y-123741395D01*
X115415726Y-124476565D01*
X116315842Y-125150891D01*
X117689361Y-126075872D01*
X116171795Y-126075872D01*
X115304778Y-126052507D01*
X114731389Y-125912876D01*
X114257079Y-125553433D01*
X113666622Y-124870629D01*
X113595027Y-124782006D01*
X113030940Y-124000540D01*
X112538106Y-123190023D01*
X112176417Y-122468242D01*
X112005763Y-121952986D01*
X112086033Y-121762043D01*
X112098829Y-121762801D01*
G37*
G36*
X123911372Y-119421464D02*
G01*
X123837670Y-119794838D01*
X123386908Y-120491691D01*
X123027780Y-121089983D01*
X122576955Y-122157581D01*
X122220394Y-123355244D01*
X122125409Y-123746645D01*
X121860206Y-124641525D01*
X121614811Y-125100053D01*
X121353625Y-125197909D01*
X121328237Y-125191994D01*
X120999529Y-124862557D01*
X120920145Y-124194914D01*
X121054869Y-123303016D01*
X121368486Y-122300813D01*
X121825779Y-121302256D01*
X122391532Y-120421294D01*
X123030528Y-119771880D01*
X123626425Y-119408751D01*
X123911372Y-119421464D01*
G37*
G36*
X175332455Y-114286423D02*
G01*
X175925080Y-114805299D01*
X176375255Y-115672145D01*
X176646261Y-116770402D01*
X176701377Y-117983511D01*
X176503884Y-119194916D01*
X176408851Y-119759468D01*
X176561622Y-120280056D01*
X177044309Y-120939308D01*
X177249662Y-121197206D01*
X177656993Y-121802669D01*
X177818915Y-122199186D01*
X177819922Y-122248465D01*
X177961856Y-122599700D01*
X178378298Y-122641818D01*
X179118836Y-122365854D01*
X180233058Y-121762848D01*
X180964505Y-121313791D01*
X182482498Y-120218358D01*
X183699132Y-119100809D01*
X184545422Y-118029688D01*
X184952383Y-117073542D01*
X184996693Y-116868918D01*
X185189660Y-116349089D01*
X185389675Y-116216074D01*
X185514460Y-116520656D01*
X185472785Y-117181870D01*
X185267079Y-118018352D01*
X184926818Y-118861613D01*
X184701507Y-119245638D01*
X183772586Y-120342810D01*
X182369266Y-121565585D01*
X180521043Y-122887017D01*
X180115876Y-123159526D01*
X179242947Y-123781784D01*
X178591227Y-124295610D01*
X178278360Y-124610592D01*
X178197963Y-124732275D01*
X177823807Y-124986965D01*
X177512671Y-124894884D01*
X177462154Y-124486159D01*
X177474916Y-124072940D01*
X177189564Y-123227621D01*
X176591700Y-122279740D01*
X175755760Y-121365432D01*
X174826902Y-120514486D01*
X175242057Y-119520880D01*
X175532856Y-118574607D01*
X175590692Y-116958397D01*
X175124064Y-115334915D01*
X174976227Y-114991767D01*
X174799532Y-114385391D01*
X174927339Y-114190648D01*
X175332455Y-114286423D01*
G37*
G36*
X149257944Y-119583690D02*
G01*
X148401343Y-121105225D01*
X147142513Y-122405322D01*
X145553526Y-123412996D01*
X143706455Y-124057262D01*
X142209103Y-124284080D01*
X140364501Y-124248498D01*
X138719330Y-123859655D01*
X137360311Y-123140533D01*
X136374164Y-122114115D01*
X136168327Y-121773899D01*
X135639774Y-120576324D01*
X135329360Y-119342563D01*
X135300660Y-118298577D01*
X135307997Y-118247902D01*
X135286011Y-117888654D01*
X134996708Y-117733007D01*
X134304285Y-117699277D01*
X134000706Y-117685282D01*
X135696056Y-117685282D01*
X135702859Y-119201925D01*
X136069062Y-120648564D01*
X136777395Y-121928744D01*
X137810586Y-122946010D01*
X139151364Y-123603906D01*
X139687739Y-123740408D01*
X141518884Y-123916912D01*
X143416411Y-123727266D01*
X145203995Y-123200383D01*
X146705312Y-122365179D01*
X147468275Y-121673332D01*
X148351642Y-120513764D01*
X148953789Y-119267198D01*
X149176362Y-118103270D01*
X149157160Y-117495466D01*
X149012474Y-117094490D01*
X148611962Y-116832211D01*
X147825298Y-116559739D01*
X146474234Y-116127686D01*
X146474234Y-116922160D01*
X146389547Y-117668489D01*
X145958816Y-118794333D01*
X145253098Y-119752676D01*
X144373448Y-120419455D01*
X143420922Y-120670607D01*
X142680021Y-120552262D01*
X141795314Y-120017680D01*
X141181272Y-119152656D01*
X140907218Y-118067846D01*
X141042469Y-116873904D01*
X141066819Y-116797935D01*
X141481963Y-115996522D01*
X142103223Y-115240130D01*
X142786457Y-114677338D01*
X143387520Y-114456723D01*
X143554234Y-114433139D01*
X143772106Y-114219597D01*
X143556246Y-113815470D01*
X142835212Y-113404894D01*
X141590844Y-113008258D01*
X141051337Y-112889419D01*
X139765132Y-112849886D01*
X138614210Y-113251544D01*
X137455586Y-114133292D01*
X136829735Y-114827806D01*
X136065924Y-116195091D01*
X135696056Y-117685282D01*
X134000706Y-117685282D01*
X133789469Y-117675544D01*
X132489845Y-117378894D01*
X131456419Y-116792689D01*
X130777501Y-115980171D01*
X130541399Y-115004578D01*
X130551116Y-114321617D01*
X131149377Y-115050800D01*
X131238860Y-115153966D01*
X132179538Y-115889363D01*
X133368247Y-116416612D01*
X134550517Y-116618426D01*
X134576258Y-116618313D01*
X135112516Y-116521521D01*
X135552332Y-116162722D01*
X136045099Y-115422361D01*
X136249552Y-115100854D01*
X136976665Y-114168837D01*
X137741081Y-113406099D01*
X138059186Y-113139624D01*
X138452463Y-112753115D01*
X138487569Y-112533733D01*
X138214221Y-112372908D01*
X138192170Y-112363495D01*
X138134278Y-112233336D01*
X138594385Y-112121384D01*
X139583632Y-112024809D01*
X141474944Y-111889702D01*
X140166788Y-111025754D01*
X139596178Y-110657443D01*
X138930514Y-110252076D01*
X138545688Y-110049450D01*
X138437145Y-109988648D01*
X138418100Y-109737263D01*
X138656254Y-109685471D01*
X139279363Y-109863239D01*
X140157318Y-110276914D01*
X141190431Y-110872511D01*
X142279012Y-111596049D01*
X143323369Y-112393542D01*
X143412357Y-112466230D01*
X144613361Y-113350786D01*
X145976367Y-114223795D01*
X147223333Y-114906126D01*
X147890446Y-115225358D01*
X148674854Y-115560216D01*
X149305733Y-115707467D01*
X149950370Y-115673546D01*
X150776050Y-115464886D01*
X151950059Y-115087922D01*
X152281023Y-115057611D01*
X152258915Y-115369903D01*
X152213833Y-115518510D01*
X152317784Y-115773866D01*
X152811760Y-115697231D01*
X153713190Y-115287618D01*
X153905023Y-115185232D01*
X154653274Y-114717746D01*
X155408096Y-114112776D01*
X156247702Y-113295711D01*
X157250303Y-112191942D01*
X158494112Y-110726857D01*
X158629027Y-110565324D01*
X159523630Y-109528040D01*
X160194949Y-108809649D01*
X160617816Y-108428876D01*
X160767059Y-108404444D01*
X160617511Y-108755077D01*
X160144000Y-109499499D01*
X159701450Y-110185253D01*
X159485341Y-110661102D01*
X159603683Y-110816517D01*
X160052426Y-110704826D01*
X160523846Y-110584777D01*
X161399166Y-110439888D01*
X162416787Y-110324057D01*
X163179227Y-110263267D01*
X163681020Y-110252129D01*
X163746198Y-110319505D01*
X163430085Y-110473556D01*
X163104143Y-110615322D01*
X162752562Y-110870182D01*
X162880356Y-111142701D01*
X163493707Y-111536132D01*
X164335256Y-112233862D01*
X165135570Y-113425473D01*
X165697759Y-114929596D01*
X165804656Y-115326406D01*
X166026071Y-115841098D01*
X166384940Y-116043059D01*
X167053247Y-116078000D01*
X167263368Y-116068803D01*
X168252149Y-115879735D01*
X169199992Y-115523348D01*
X169523791Y-115359980D01*
X170004167Y-115147361D01*
X170140358Y-115181820D01*
X170024677Y-115455795D01*
X169573719Y-116080050D01*
X169410480Y-116306020D01*
X168371059Y-117038194D01*
X167138810Y-117293958D01*
X166615913Y-117301576D01*
X166129381Y-117407684D01*
X165869872Y-117754058D01*
X165660240Y-118483180D01*
X165133700Y-120080731D01*
X164404937Y-121284357D01*
X163362258Y-122227168D01*
X161893186Y-123045382D01*
X160754103Y-123456574D01*
X159086702Y-123733722D01*
X157384630Y-123708458D01*
X155777925Y-123397028D01*
X154396623Y-122815677D01*
X153370760Y-121980652D01*
X153332821Y-121934709D01*
X152663887Y-120773863D01*
X152262664Y-119385437D01*
X152207924Y-118036609D01*
X152220260Y-117870076D01*
X152700088Y-117870076D01*
X152741608Y-118839043D01*
X152830356Y-119748325D01*
X153172104Y-120978002D01*
X153814585Y-121907086D01*
X154828697Y-122665564D01*
X155283087Y-122865051D01*
X156380757Y-123123903D01*
X157726944Y-123270754D01*
X159143092Y-123297686D01*
X160450644Y-123196780D01*
X161471043Y-122960118D01*
X162898606Y-122195915D01*
X164166557Y-120969881D01*
X165062276Y-119408700D01*
X165533802Y-117581165D01*
X165554624Y-116080050D01*
X165232914Y-114560489D01*
X164608450Y-113227062D01*
X163736749Y-112166828D01*
X162673326Y-111466844D01*
X161473697Y-111214170D01*
X161274365Y-111231244D01*
X160533133Y-111436741D01*
X159624754Y-111817309D01*
X158683865Y-112299997D01*
X157845106Y-112811856D01*
X157243115Y-113279938D01*
X157012532Y-113631293D01*
X157055319Y-113685537D01*
X157462568Y-113754278D01*
X158160936Y-113721647D01*
X158468455Y-113700234D01*
X159583868Y-113886920D01*
X160398933Y-114461890D01*
X160868111Y-115349355D01*
X160945862Y-116473529D01*
X160586649Y-117758624D01*
X160547046Y-117845768D01*
X159834175Y-118902791D01*
X158957806Y-119527151D01*
X158012863Y-119751695D01*
X157094266Y-119609267D01*
X156296937Y-119132715D01*
X155715798Y-118354885D01*
X155445771Y-117308622D01*
X155581777Y-116026773D01*
X155639751Y-115804664D01*
X155774342Y-115228228D01*
X155801062Y-114997149D01*
X155776233Y-115009514D01*
X155475279Y-115242207D01*
X154960412Y-115676610D01*
X154911867Y-115718029D01*
X154149840Y-116274647D01*
X153408795Y-116689908D01*
X153229701Y-116770006D01*
X152899776Y-116978446D01*
X152738025Y-117297506D01*
X152700088Y-117870076D01*
X152220260Y-117870076D01*
X152225376Y-117801009D01*
X152060506Y-117082890D01*
X151513837Y-116744888D01*
X150580704Y-116783408D01*
X150357627Y-116834179D01*
X149961474Y-117031181D01*
X149746421Y-117448816D01*
X149631448Y-118103270D01*
X149606280Y-118246529D01*
X149257944Y-119583690D01*
G37*
G36*
X124866722Y-111445154D02*
G01*
X124687180Y-111701735D01*
X124680119Y-111706370D01*
X124242212Y-112214600D01*
X123905823Y-113008152D01*
X123683993Y-113954531D01*
X123589768Y-114921243D01*
X123636190Y-115775792D01*
X123836303Y-116385685D01*
X124203151Y-116618426D01*
X124499169Y-116673389D01*
X124496667Y-116904817D01*
X124079040Y-117348815D01*
X123222870Y-118039327D01*
X123123423Y-118115959D01*
X121708468Y-119463467D01*
X120766619Y-120914357D01*
X120331534Y-122417659D01*
X120276562Y-122803242D01*
X120107578Y-123366038D01*
X119926518Y-123426758D01*
X119782132Y-123008200D01*
X119723170Y-122133161D01*
X119896010Y-120699238D01*
X120470990Y-119344875D01*
X121506520Y-117975222D01*
X121987739Y-117414040D01*
X122351275Y-116821333D01*
X122516139Y-116151459D01*
X122570159Y-115173034D01*
X122570348Y-115164976D01*
X122714030Y-113807582D01*
X123046484Y-112639122D01*
X123521536Y-111775980D01*
X124093013Y-111334538D01*
X124165892Y-111313403D01*
X124646211Y-111286819D01*
X124866722Y-111445154D01*
G37*
G36*
X114207846Y-118292505D02*
G01*
X114503523Y-118683150D01*
X114896790Y-119329417D01*
X115300567Y-119904238D01*
X116071908Y-120744355D01*
X116940675Y-121499872D01*
X117646457Y-122066960D01*
X118171467Y-122557507D01*
X118372106Y-122842073D01*
X118213321Y-123055625D01*
X117742887Y-123013547D01*
X117072608Y-122738993D01*
X116315933Y-122290370D01*
X115586310Y-121726087D01*
X114997189Y-121104549D01*
X114991323Y-121096824D01*
X114622846Y-120478949D01*
X114306035Y-119730291D01*
X114087448Y-119004859D01*
X114013639Y-118456659D01*
X114131164Y-118239702D01*
X114207846Y-118292505D01*
G37*
G36*
X171514883Y-109673467D02*
G01*
X171468915Y-110403532D01*
X171446660Y-110544139D01*
X171411898Y-111240135D01*
X171569744Y-111484383D01*
X171915867Y-111613933D01*
X172464804Y-112172838D01*
X173028886Y-113081435D01*
X173536478Y-114239380D01*
X173824846Y-114935069D01*
X174147571Y-115488187D01*
X174381594Y-115626053D01*
X174386409Y-115623279D01*
X174493486Y-115769258D01*
X174505204Y-116259671D01*
X174439265Y-116915893D01*
X174313371Y-117559300D01*
X174145221Y-118011269D01*
X174009598Y-118164253D01*
X173666251Y-118196982D01*
X173495511Y-117825859D01*
X173491766Y-117734970D01*
X173337444Y-116975368D01*
X173008062Y-115953990D01*
X172574248Y-114852768D01*
X172106629Y-113853632D01*
X171675833Y-113138514D01*
X170983161Y-112225624D01*
X170470746Y-112868301D01*
X170069819Y-113444372D01*
X169707013Y-114118958D01*
X169439454Y-114504999D01*
X168773475Y-114726936D01*
X168291693Y-114730235D01*
X167888596Y-114741209D01*
X167675984Y-114696680D01*
X167611646Y-114422830D01*
X167836761Y-114042220D01*
X168287577Y-113718298D01*
X168640300Y-113493652D01*
X169327074Y-112813936D01*
X170021886Y-111903218D01*
X170601672Y-110930745D01*
X170943371Y-110065766D01*
X170953944Y-110022802D01*
X171183123Y-109435366D01*
X171394861Y-109334833D01*
X171514883Y-109673467D01*
G37*
G36*
X146560856Y-106637398D02*
G01*
X146744447Y-107404847D01*
X146727489Y-107710600D01*
X146615764Y-107805822D01*
X146326595Y-107561969D01*
X145777646Y-106939404D01*
X145734318Y-106888985D01*
X145050334Y-106163798D01*
X144616844Y-105852352D01*
X144455869Y-105962736D01*
X144589433Y-106503038D01*
X144597621Y-106524622D01*
X144786252Y-107106173D01*
X144761057Y-107393618D01*
X144462529Y-107386370D01*
X143831160Y-107083842D01*
X142807442Y-106485447D01*
X142706387Y-106425587D01*
X141142239Y-105743171D01*
X139629864Y-105523403D01*
X138257378Y-105779945D01*
X138190136Y-105807112D01*
X137958350Y-105968426D01*
X138084035Y-106196929D01*
X138615962Y-106604816D01*
X138948778Y-106866385D01*
X139279752Y-107283726D01*
X139165968Y-107500418D01*
X138658364Y-107479861D01*
X137807875Y-107185455D01*
X137701388Y-107139092D01*
X137120817Y-106925846D01*
X136551137Y-106826308D01*
X135887684Y-106852076D01*
X135025796Y-107014750D01*
X133860810Y-107325931D01*
X132288064Y-107797218D01*
X130853069Y-108393174D01*
X129350595Y-109304694D01*
X127936596Y-110421951D01*
X126716948Y-111650256D01*
X125797528Y-112894915D01*
X125284209Y-114061238D01*
X125184784Y-114368450D01*
X124920617Y-114700166D01*
X124687388Y-114537260D01*
X124587000Y-113902879D01*
X124751269Y-112907621D01*
X125406217Y-111606465D01*
X126572188Y-110192665D01*
X127687971Y-109036053D01*
X125460411Y-109840439D01*
X124586238Y-110158773D01*
X122862834Y-110816355D01*
X121569877Y-111377868D01*
X120647114Y-111888192D01*
X120034292Y-112392206D01*
X119671161Y-112934791D01*
X119497466Y-113560824D01*
X119452958Y-114315188D01*
X119479348Y-114641961D01*
X119763255Y-115337275D01*
X120416528Y-116029419D01*
X121510908Y-116805195D01*
X121734644Y-116950777D01*
X121861400Y-117103991D01*
X121533688Y-117142961D01*
X121462662Y-117143159D01*
X120613911Y-116919282D01*
X119737818Y-116377082D01*
X119058782Y-115651766D01*
X118733350Y-114872161D01*
X118751636Y-113881572D01*
X118799109Y-113531798D01*
X118782409Y-112994049D01*
X118563309Y-112835447D01*
X118121264Y-112962384D01*
X117368556Y-113371593D01*
X116501434Y-113964264D01*
X115668195Y-114637772D01*
X115017138Y-115289491D01*
X114811582Y-115531709D01*
X114457689Y-115911670D01*
X114355275Y-115904739D01*
X114442607Y-115537575D01*
X114652769Y-114957401D01*
X115088446Y-114188081D01*
X115740550Y-113450330D01*
X116678482Y-112681484D01*
X117971640Y-111818877D01*
X119689422Y-110799844D01*
X119868979Y-110698686D01*
X121724725Y-109785977D01*
X123998523Y-108858535D01*
X126582926Y-107951787D01*
X129370487Y-107101165D01*
X132253760Y-106342096D01*
X135125298Y-105710011D01*
X135997041Y-105511352D01*
X136831487Y-105269489D01*
X143096575Y-105269489D01*
X143151882Y-105343285D01*
X143517841Y-105539702D01*
X143578167Y-105531968D01*
X143772106Y-105269489D01*
X143720549Y-105140355D01*
X143350840Y-104999277D01*
X143157832Y-105038160D01*
X143096575Y-105269489D01*
X136831487Y-105269489D01*
X136991812Y-105223019D01*
X137692319Y-104949565D01*
X138443796Y-104617025D01*
X139184875Y-104371870D01*
X139413763Y-104324751D01*
X140221261Y-104188175D01*
X141407342Y-104007103D01*
X142866802Y-103795867D01*
X144494438Y-103568801D01*
X146185048Y-103340239D01*
X147833430Y-103124513D01*
X149334379Y-102935956D01*
X150582693Y-102788901D01*
X151473170Y-102697682D01*
X152506293Y-102646144D01*
X154238884Y-102655632D01*
X156209772Y-102745187D01*
X158263269Y-102902290D01*
X160243687Y-103114422D01*
X161995337Y-103369065D01*
X163362532Y-103653700D01*
X164527774Y-103908517D01*
X166474630Y-104185420D01*
X168560699Y-104336614D01*
X170658391Y-104465920D01*
X172704438Y-104747179D01*
X174578751Y-105219082D01*
X176472612Y-105931214D01*
X178577304Y-106933158D01*
X179648614Y-107491844D01*
X181473901Y-108521059D01*
X182871139Y-109449578D01*
X183895561Y-110328898D01*
X184602398Y-111210519D01*
X185046882Y-112145938D01*
X185284247Y-113186653D01*
X185321510Y-113544535D01*
X185296078Y-114210760D01*
X185144521Y-114476991D01*
X184927314Y-114297365D01*
X184704932Y-113626014D01*
X184508457Y-113117496D01*
X184084741Y-112399204D01*
X183562606Y-111694125D01*
X183058604Y-111157347D01*
X182689288Y-110943958D01*
X182634587Y-110975849D01*
X182460002Y-111361149D01*
X182305822Y-112043230D01*
X182274412Y-112206451D01*
X181961460Y-113082522D01*
X181512075Y-113760469D01*
X181390896Y-113864369D01*
X180790310Y-114228596D01*
X179950442Y-114625098D01*
X179015816Y-114999073D01*
X178130958Y-115295717D01*
X177440393Y-115460228D01*
X177088647Y-115437803D01*
X177153203Y-115268232D01*
X177578780Y-115034193D01*
X177752581Y-114966998D01*
X179359917Y-114299845D01*
X180485269Y-113729842D01*
X181169196Y-113233464D01*
X181452254Y-112787181D01*
X181548455Y-112349577D01*
X181680301Y-111530557D01*
X181616617Y-110941817D01*
X181289694Y-110457520D01*
X180631825Y-109951833D01*
X179575298Y-109298919D01*
X178767187Y-108824403D01*
X177255092Y-108018128D01*
X175771699Y-107363217D01*
X174175512Y-106807280D01*
X172325035Y-106297926D01*
X170078771Y-105782766D01*
X169165363Y-105587742D01*
X167339276Y-105210221D01*
X165971932Y-104950949D01*
X165016507Y-104803484D01*
X164426180Y-104761382D01*
X164154129Y-104818202D01*
X164153532Y-104967501D01*
X164233455Y-105071560D01*
X164593811Y-105269489D01*
X164838453Y-105365365D01*
X165416747Y-105706982D01*
X166157773Y-106210862D01*
X166731070Y-106583936D01*
X167700362Y-107091257D01*
X168522760Y-107388747D01*
X169577426Y-107625261D01*
X168816750Y-107933545D01*
X168340233Y-108106992D01*
X167761046Y-108203119D01*
X167161426Y-108096232D01*
X166398376Y-107753959D01*
X165328900Y-107143926D01*
X165130133Y-107027474D01*
X163757191Y-106350499D01*
X162572410Y-106059981D01*
X161425767Y-106139294D01*
X160167240Y-106571809D01*
X159954803Y-106662677D01*
X159153811Y-106911016D01*
X158775573Y-106825010D01*
X158823231Y-106407951D01*
X159299928Y-105663131D01*
X159778216Y-105105977D01*
X160190976Y-104774293D01*
X160400726Y-104788120D01*
X160334800Y-105181294D01*
X160311963Y-105243421D01*
X160310251Y-105506888D01*
X160681046Y-105423869D01*
X161258035Y-105197277D01*
X162011468Y-104909741D01*
X162822106Y-104605269D01*
X161471043Y-104420626D01*
X161259395Y-104395433D01*
X160199298Y-104319977D01*
X158748876Y-104266428D01*
X157024434Y-104234373D01*
X155142274Y-104223400D01*
X153218701Y-104233098D01*
X151370018Y-104263055D01*
X149712529Y-104312857D01*
X148362537Y-104382094D01*
X147436347Y-104470353D01*
X147164687Y-104510296D01*
X146122124Y-104688140D01*
X145545884Y-104849276D01*
X145375868Y-105017505D01*
X145551978Y-105216629D01*
X145559169Y-105221530D01*
X145604040Y-105269489D01*
X146113870Y-105814400D01*
X146560856Y-106637398D01*
G37*
G36*
X130653227Y-112170771D02*
G01*
X131194178Y-112660740D01*
X131435598Y-112901394D01*
X132621634Y-113655466D01*
X133971967Y-113916298D01*
X134349334Y-113942040D01*
X134500673Y-114059565D01*
X134188468Y-114238321D01*
X133450180Y-114440659D01*
X133349021Y-114461075D01*
X132166380Y-114472943D01*
X131239539Y-114036284D01*
X130621892Y-113174994D01*
X130404171Y-112561905D01*
X130384838Y-112142367D01*
X130653227Y-112170771D01*
G37*
G36*
X148300603Y-106348352D02*
G01*
X148505971Y-107191407D01*
X148596380Y-107618719D01*
X148919551Y-108286523D01*
X149531444Y-108743714D01*
X149555273Y-108756457D01*
X150356604Y-109276996D01*
X151113470Y-109899276D01*
X151857293Y-110610977D01*
X152165035Y-109678512D01*
X152218807Y-109522404D01*
X152440623Y-109010399D01*
X152590132Y-108863401D01*
X152601131Y-109118736D01*
X152519483Y-109738376D01*
X152372236Y-110538204D01*
X152192904Y-111337928D01*
X152015003Y-111957255D01*
X151807513Y-112246598D01*
X151437759Y-112193792D01*
X151043592Y-111687043D01*
X150762740Y-111222712D01*
X150258483Y-110572112D01*
X149754992Y-110066542D01*
X149394325Y-109863106D01*
X149286819Y-110061144D01*
X149345729Y-110578941D01*
X149359644Y-110635755D01*
X149407359Y-111090804D01*
X149213849Y-111102232D01*
X148954840Y-110856610D01*
X148514397Y-110117322D01*
X148113637Y-109118785D01*
X147807759Y-108035721D01*
X147651960Y-107042854D01*
X147701439Y-106314903D01*
X147824640Y-106036556D01*
X148062574Y-105951505D01*
X148300603Y-106348352D01*
G37*
G36*
X136080388Y-108249586D02*
G01*
X136409724Y-108613562D01*
X136379088Y-108934799D01*
X135856691Y-109052468D01*
X135571912Y-109116184D01*
X134855576Y-109565117D01*
X133961865Y-110403532D01*
X133160447Y-111157772D01*
X132270015Y-111683098D01*
X131484814Y-111728347D01*
X130755617Y-111307397D01*
X130475649Y-110996661D01*
X130266735Y-110539619D01*
X130352005Y-110252160D01*
X130734341Y-110274264D01*
X130838743Y-110317412D01*
X131743586Y-110580523D01*
X132440004Y-110482991D01*
X133123964Y-110002531D01*
X133909341Y-109284485D01*
X132394161Y-109523497D01*
X132978557Y-108901437D01*
X133033578Y-108845795D01*
X133741759Y-108387634D01*
X134622884Y-108106700D01*
X135471058Y-108046261D01*
X136080388Y-108249586D01*
G37*
G36*
X155562485Y-104829118D02*
G01*
X155495356Y-105215634D01*
X155296894Y-105952558D01*
X155001400Y-106909485D01*
X154996539Y-106924451D01*
X154624887Y-108107822D01*
X154275830Y-109284145D01*
X154024337Y-110200872D01*
X153898642Y-110641200D01*
X153660572Y-111246821D01*
X153464649Y-111484383D01*
X153322449Y-111344778D01*
X153238221Y-110810932D01*
X153265073Y-110019923D01*
X153395497Y-109124737D01*
X153621985Y-108278358D01*
X153793115Y-107840852D01*
X154169350Y-107021850D01*
X154605112Y-106180207D01*
X155028984Y-105444294D01*
X155369550Y-104942478D01*
X155555392Y-104803130D01*
X155562485Y-104829118D01*
G37*
G36*
X171059389Y-108714667D02*
G01*
X170841826Y-109263016D01*
X170400606Y-109922000D01*
X169883566Y-110465077D01*
X169544297Y-110692072D01*
X168560943Y-110920592D01*
X167428438Y-110630372D01*
X167126152Y-110471387D01*
X166784349Y-110088732D01*
X166972846Y-109683504D01*
X167695104Y-109237621D01*
X167943704Y-109121039D01*
X168637271Y-108837251D01*
X168881374Y-108832836D01*
X168685724Y-109106511D01*
X168619224Y-109175189D01*
X168361390Y-109578471D01*
X168492491Y-109760080D01*
X168922638Y-109724688D01*
X169561940Y-109476963D01*
X170320511Y-109021577D01*
X170408532Y-108960436D01*
X170873919Y-108683886D01*
X171063596Y-108656824D01*
X171059389Y-108714667D01*
G37*
G36*
X158436122Y-104515419D02*
G01*
X158228736Y-104910424D01*
X157801227Y-105599755D01*
X157212804Y-106485447D01*
X156901549Y-106932502D01*
X156300584Y-107742647D01*
X155832869Y-108302849D01*
X155579840Y-108512043D01*
X155538194Y-108497856D01*
X155451065Y-108165997D01*
X155488577Y-107512461D01*
X155625822Y-106695619D01*
X155837892Y-105873840D01*
X156099880Y-105205496D01*
X156245100Y-104940550D01*
X156561841Y-104520843D01*
X156718780Y-104577815D01*
X156679503Y-105117023D01*
X156553686Y-105775195D01*
X157416593Y-105117023D01*
X157599997Y-104979790D01*
X158142052Y-104608054D01*
X158437661Y-104458851D01*
X158436122Y-104515419D01*
G37*
G36*
X125938064Y-105674809D02*
G01*
X125802958Y-105809915D01*
X125667851Y-105674809D01*
X125802958Y-105539702D01*
X125938064Y-105674809D01*
G37*
G36*
X156185642Y-99803598D02*
G01*
X157570015Y-99963429D01*
X158807919Y-100229445D01*
X159601743Y-100420609D01*
X160596917Y-100604710D01*
X161323334Y-100675872D01*
X161394080Y-100676688D01*
X161903692Y-100751645D01*
X162033038Y-100911184D01*
X161764059Y-101121782D01*
X161017741Y-101302779D01*
X159961702Y-101328430D01*
X158721791Y-101188207D01*
X157863712Y-101037620D01*
X156846818Y-100867411D01*
X155953370Y-100742228D01*
X155110053Y-100664397D01*
X154243552Y-100636241D01*
X153280553Y-100660085D01*
X152147740Y-100738254D01*
X150771800Y-100873073D01*
X149079417Y-101066866D01*
X146997277Y-101321959D01*
X144452065Y-101640674D01*
X141921114Y-101977487D01*
X139658366Y-102330111D01*
X137752591Y-102696175D01*
X136109459Y-103096192D01*
X134634641Y-103550675D01*
X133233809Y-104080134D01*
X132303679Y-104419844D01*
X131057078Y-104782631D01*
X129991255Y-105000523D01*
X128975965Y-105134249D01*
X128311101Y-105209826D01*
X127970992Y-105218258D01*
X127846768Y-105161635D01*
X127829553Y-105042048D01*
X127911459Y-104921977D01*
X128377522Y-104679839D01*
X129105544Y-104441927D01*
X129921940Y-104260705D01*
X130653124Y-104188638D01*
X130750960Y-104183112D01*
X131432525Y-104040871D01*
X132393632Y-103745389D01*
X133459008Y-103349108D01*
X134044665Y-103112750D01*
X134970658Y-102751103D01*
X135780752Y-102465884D01*
X136583173Y-102229930D01*
X137486144Y-102016082D01*
X138597892Y-101797178D01*
X140026641Y-101546056D01*
X141880617Y-101235557D01*
X145165839Y-100710195D01*
X148097227Y-100290682D01*
X150610590Y-99993494D01*
X152760240Y-99815403D01*
X154600487Y-99753180D01*
X156185642Y-99803598D01*
G37*
G36*
X166032265Y-100790337D02*
G01*
X166862875Y-100865773D01*
X167367126Y-100992383D01*
X167862149Y-101160599D01*
X168725226Y-101349591D01*
X169746101Y-101508617D01*
X170532671Y-101639784D01*
X171572358Y-101901848D01*
X172491814Y-102221968D01*
X173189055Y-102557027D01*
X173562093Y-102863906D01*
X173508943Y-103099486D01*
X173452078Y-103126210D01*
X172917350Y-103170338D01*
X172184558Y-103056174D01*
X171587821Y-102928047D01*
X170545251Y-102752550D01*
X169442319Y-102605936D01*
X168575745Y-102476637D01*
X167638762Y-102265281D01*
X167018092Y-102040931D01*
X166891618Y-101980611D01*
X166111501Y-101776935D01*
X165215375Y-101716557D01*
X164806160Y-101715119D01*
X163980213Y-101624105D01*
X163279656Y-101448639D01*
X162842401Y-101229350D01*
X162806361Y-101006866D01*
X162827404Y-100989611D01*
X163272866Y-100865714D01*
X164068202Y-100790845D01*
X165044354Y-100765540D01*
X166032265Y-100790337D01*
G37*
G36*
X177231538Y-101285119D02*
G01*
X178038330Y-101549153D01*
X178831482Y-101883922D01*
X179482330Y-102246607D01*
X179862215Y-102594389D01*
X179891921Y-102765867D01*
X179541583Y-102734607D01*
X178294737Y-102332702D01*
X177220756Y-101965020D01*
X176529951Y-101691818D01*
X176148159Y-101483239D01*
X176001216Y-101309430D01*
X176091675Y-101140535D01*
X176539765Y-101134640D01*
X177231538Y-101285119D01*
G37*
G36*
X177143649Y-99935944D02*
G01*
X177287602Y-99982745D01*
X177857990Y-100233143D01*
X178089128Y-100450996D01*
X177949429Y-100630492D01*
X177423274Y-100639655D01*
X176604288Y-100406166D01*
X176516577Y-100371355D01*
X176065564Y-100092121D01*
X176070218Y-99882466D01*
X176454819Y-99808403D01*
X177143649Y-99935944D01*
G37*
D11*
%TO.C,U1*%
X130487000Y-28880000D02*
X130487000Y-28155000D01*
X130487000Y-34650000D02*
X130487000Y-35375000D01*
X137707000Y-28155000D02*
X136982000Y-28155000D01*
X137707000Y-34650000D02*
X137707000Y-35375000D01*
X137707000Y-28880000D02*
X137707000Y-28155000D01*
X137707000Y-35375000D02*
X136982000Y-35375000D01*
X130487000Y-35375000D02*
X131212000Y-35375000D01*
%TO.C,R5*%
X127524742Y-39101500D02*
X127999258Y-39101500D01*
X127524742Y-40146500D02*
X127999258Y-40146500D01*
%TO.C,R6*%
X142889500Y-27923258D02*
X142889500Y-27448742D01*
X141844500Y-27923258D02*
X141844500Y-27448742D01*
D10*
%TO.C,SW1*%
X153857000Y-27619000D02*
X153857000Y-22419000D01*
X148657000Y-22419000D02*
X148657000Y-27619000D01*
X148657000Y-27619000D02*
X153857000Y-27619000D01*
X153857000Y-22419000D02*
X148657000Y-22419000D01*
X152257000Y-25019000D02*
G75*
G03*
X152257000Y-25019000I-1000000J0D01*
G01*
D11*
%TO.C,C8*%
X150583020Y-39850600D02*
X150864180Y-39850600D01*
X150583020Y-40870600D02*
X150864180Y-40870600D01*
%TO.C,C5*%
X130086980Y-22883400D02*
X129805820Y-22883400D01*
X130086980Y-23903400D02*
X129805820Y-23903400D01*
%TO.C,C7*%
X136425400Y-22695780D02*
X136425400Y-22414620D01*
X135405400Y-22695780D02*
X135405400Y-22414620D01*
%TO.C,C4*%
X125097000Y-27037420D02*
X125097000Y-27318580D01*
X124077000Y-27037420D02*
X124077000Y-27318580D01*
%TO.C,C9*%
X150838780Y-33145000D02*
X150557620Y-33145000D01*
X150838780Y-34165000D02*
X150557620Y-34165000D01*
%TO.C,C6*%
X138203400Y-22695780D02*
X138203400Y-22414620D01*
X137183400Y-22695780D02*
X137183400Y-22414620D01*
%TO.C,C2*%
X138035420Y-42420000D02*
X138316580Y-42420000D01*
X138035420Y-41400000D02*
X138316580Y-41400000D01*
%TO.C,C3*%
X125478000Y-36462580D02*
X125478000Y-36181420D01*
X124458000Y-36462580D02*
X124458000Y-36181420D01*
%TO.C,C1*%
X145540000Y-29704420D02*
X145540000Y-29985580D01*
X146560000Y-29704420D02*
X146560000Y-29985580D01*
%TO.C,Y1*%
X149048200Y-39084000D02*
X149048200Y-35084000D01*
X152348200Y-39084000D02*
X149048200Y-39084000D01*
%TO.C,D40*%
X70088000Y-111978000D02*
X68088000Y-111978000D01*
X68088000Y-111978000D02*
X68088000Y-108078000D01*
X70088000Y-111978000D02*
X70088000Y-108078000D01*
%TO.C,D23*%
X110569250Y-73878000D02*
X108569250Y-73878000D01*
X110569250Y-73878000D02*
X110569250Y-69978000D01*
X108569250Y-73878000D02*
X108569250Y-69978000D01*
D10*
%TO.C,U2*%
X162888000Y-28209000D02*
X162888000Y-26909000D01*
X165788000Y-28209000D02*
X162888000Y-28209000D01*
X165788000Y-26909000D02*
X162888000Y-26909000D01*
X165788000Y-26909000D02*
X165788000Y-28209000D01*
D11*
%TO.C,D34*%
X139144250Y-92928000D02*
X139144250Y-89028000D01*
X137144250Y-92928000D02*
X137144250Y-89028000D01*
X139144250Y-92928000D02*
X137144250Y-92928000D01*
%TO.C,D17*%
X217852750Y-54320000D02*
X217852750Y-50420000D01*
X219852750Y-54320000D02*
X217852750Y-54320000D01*
X219852750Y-54320000D02*
X219852750Y-50420000D01*
%TO.C,D44*%
X260334000Y-92420000D02*
X260334000Y-88520000D01*
X260334000Y-92420000D02*
X258334000Y-92420000D01*
X258334000Y-92420000D02*
X258334000Y-88520000D01*
%TO.C,D18*%
X238902750Y-54320000D02*
X236902750Y-54320000D01*
X236902750Y-54320000D02*
X236902750Y-50420000D01*
X238902750Y-54320000D02*
X238902750Y-50420000D01*
%TO.C,D15*%
X181752750Y-54320000D02*
X181752750Y-50420000D01*
X179752750Y-54320000D02*
X179752750Y-50420000D01*
X181752750Y-54320000D02*
X179752750Y-54320000D01*
D10*
%TO.C,U3*%
X128922000Y-26590000D02*
X129497000Y-26590000D01*
X139272000Y-26590000D02*
X138597000Y-26590000D01*
X128922000Y-36940000D02*
X128922000Y-36265000D01*
X128922000Y-26590000D02*
X128922000Y-27265000D01*
X139272000Y-26590000D02*
X139272000Y-27265000D01*
X128922000Y-36940000D02*
X129597000Y-36940000D01*
X139272000Y-36940000D02*
X138597000Y-36940000D01*
X129497000Y-26590000D02*
X129497000Y-25315000D01*
X139272000Y-36940000D02*
X139272000Y-36265000D01*
D11*
%TO.C,R4*%
X143399742Y-21702500D02*
X143874258Y-21702500D01*
X143399742Y-22747500D02*
X143874258Y-22747500D01*
%TO.C,D4*%
X250174000Y-40985000D02*
X248174000Y-40985000D01*
X250174000Y-40985000D02*
X250174000Y-37085000D01*
X248174000Y-40985000D02*
X248174000Y-37085000D01*
%TO.C,D42*%
X258334000Y-111470000D02*
X258334000Y-107570000D01*
X260334000Y-111470000D02*
X260334000Y-107570000D01*
X260334000Y-111470000D02*
X258334000Y-111470000D01*
%TO.C,D24*%
X129619250Y-73878000D02*
X129619250Y-69978000D01*
X127619250Y-73878000D02*
X127619250Y-69978000D01*
X129619250Y-73878000D02*
X127619250Y-73878000D01*
%TO.C,D8*%
X115331750Y-35778000D02*
X113331750Y-35778000D01*
X115331750Y-35778000D02*
X115331750Y-31878000D01*
X113331750Y-35778000D02*
X113331750Y-31878000D01*
%TO.C,F1*%
X162592936Y-22839000D02*
X163797064Y-22839000D01*
X162592936Y-24659000D02*
X163797064Y-24659000D01*
%TO.C,D14*%
X162702750Y-54320000D02*
X162702750Y-50420000D01*
X160702750Y-54320000D02*
X160702750Y-50420000D01*
X162702750Y-54320000D02*
X160702750Y-54320000D01*
%TO.C,D12*%
X105806750Y-54828000D02*
X103806750Y-54828000D01*
X103806750Y-54828000D02*
X103806750Y-50928000D01*
X105806750Y-54828000D02*
X105806750Y-50928000D01*
%TO.C,D21*%
X72469250Y-73878000D02*
X70469250Y-73878000D01*
X72469250Y-73878000D02*
X72469250Y-69978000D01*
X70469250Y-73878000D02*
X70469250Y-69978000D01*
%TO.C,D31*%
X81994250Y-92928000D02*
X81994250Y-89028000D01*
X79994250Y-92928000D02*
X79994250Y-89028000D01*
X81994250Y-92928000D02*
X79994250Y-92928000D01*
%TO.C,D11*%
X86756750Y-54828000D02*
X84756750Y-54828000D01*
X84756750Y-54828000D02*
X84756750Y-50928000D01*
X86756750Y-54828000D02*
X86756750Y-50928000D01*
%TO.C,D19*%
X262715250Y-54320000D02*
X262715250Y-50420000D01*
X260715250Y-54320000D02*
X260715250Y-50420000D01*
X262715250Y-54320000D02*
X260715250Y-54320000D01*
%TO.C,D6*%
X77231750Y-35778000D02*
X77231750Y-31878000D01*
X75231750Y-35778000D02*
X75231750Y-31878000D01*
X77231750Y-35778000D02*
X75231750Y-35778000D01*
%TO.C,D5*%
X56181750Y-35778000D02*
X56181750Y-31878000D01*
X58181750Y-35778000D02*
X56181750Y-35778000D01*
X58181750Y-35778000D02*
X58181750Y-31878000D01*
%TO.C,D1*%
X224615250Y-30507500D02*
X222615250Y-30507500D01*
X224615250Y-30507500D02*
X224615250Y-26607500D01*
X222615250Y-30507500D02*
X222615250Y-26607500D01*
%TO.C,D28*%
X224615250Y-73370000D02*
X222615250Y-73370000D01*
X224615250Y-73370000D02*
X224615250Y-69470000D01*
X222615250Y-73370000D02*
X222615250Y-69470000D01*
%TO.C,D39*%
X44275500Y-111978000D02*
X44275500Y-108078000D01*
X46275500Y-111978000D02*
X46275500Y-108078000D01*
X46275500Y-111978000D02*
X44275500Y-111978000D01*
%TO.C,D25*%
X167465250Y-73370000D02*
X165465250Y-73370000D01*
X167465250Y-73370000D02*
X167465250Y-69470000D01*
X165465250Y-73370000D02*
X165465250Y-69470000D01*
%TO.C,J1*%
X160902000Y-31976000D02*
X159912000Y-31976000D01*
X160902000Y-37146000D02*
X160902000Y-36096000D01*
X165372000Y-32096000D02*
X165372000Y-35976000D01*
X163402000Y-37146000D02*
X160902000Y-37146000D01*
X160902000Y-30926000D02*
X160902000Y-31976000D01*
X163402000Y-30926000D02*
X160902000Y-30926000D01*
%TO.C,D10*%
X67706750Y-54828000D02*
X67706750Y-50928000D01*
X65706750Y-54828000D02*
X65706750Y-50928000D01*
X67706750Y-54828000D02*
X65706750Y-54828000D01*
%TO.C,D7*%
X94281750Y-35778000D02*
X94281750Y-31878000D01*
X96281750Y-35778000D02*
X94281750Y-35778000D01*
X96281750Y-35778000D02*
X96281750Y-31878000D01*
%TO.C,D35*%
X176990250Y-92420000D02*
X176990250Y-88520000D01*
X174990250Y-92420000D02*
X174990250Y-88520000D01*
X176990250Y-92420000D02*
X174990250Y-92420000D01*
%TO.C,D20*%
X44275500Y-73878000D02*
X44275500Y-69978000D01*
X46275500Y-73878000D02*
X44275500Y-73878000D01*
X46275500Y-73878000D02*
X46275500Y-69978000D01*
%TO.C,D36*%
X196040250Y-92420000D02*
X194040250Y-92420000D01*
X196040250Y-92420000D02*
X196040250Y-88520000D01*
X194040250Y-92420000D02*
X194040250Y-88520000D01*
%TO.C,D9*%
X43894250Y-54828000D02*
X43894250Y-50928000D01*
X41894250Y-54828000D02*
X41894250Y-50928000D01*
X43894250Y-54828000D02*
X41894250Y-54828000D01*
%TO.C,D30*%
X51038000Y-92928000D02*
X49038000Y-92928000D01*
X51038000Y-92928000D02*
X51038000Y-89028000D01*
X49038000Y-92928000D02*
X49038000Y-89028000D01*
%TO.C,D27*%
X203565250Y-73370000D02*
X203565250Y-69470000D01*
X205565250Y-73370000D02*
X205565250Y-69470000D01*
X205565250Y-73370000D02*
X203565250Y-73370000D01*
%TO.C,D33*%
X118094250Y-92928000D02*
X118094250Y-89028000D01*
X120094250Y-92928000D02*
X120094250Y-89028000D01*
X120094250Y-92928000D02*
X118094250Y-92928000D01*
%TO.C,D3*%
X239633000Y-40985000D02*
X237633000Y-40985000D01*
X239633000Y-40985000D02*
X239633000Y-37085000D01*
X237633000Y-40985000D02*
X237633000Y-37085000D01*
%TO.C,D26*%
X186515250Y-73370000D02*
X184515250Y-73370000D01*
X184515250Y-73370000D02*
X184515250Y-69470000D01*
X186515250Y-73370000D02*
X186515250Y-69470000D01*
%TO.C,D2*%
X244967000Y-40985000D02*
X244967000Y-37085000D01*
X242967000Y-40985000D02*
X242967000Y-37085000D01*
X244967000Y-40985000D02*
X242967000Y-40985000D01*
%TO.C,D41*%
X236521500Y-111470000D02*
X234521500Y-111470000D01*
X236521500Y-111470000D02*
X236521500Y-107570000D01*
X234521500Y-111470000D02*
X234521500Y-107570000D01*
%TO.C,D32*%
X99044250Y-92928000D02*
X99044250Y-89028000D01*
X101044250Y-92928000D02*
X99044250Y-92928000D01*
X101044250Y-92928000D02*
X101044250Y-89028000D01*
%TO.C,D16*%
X200802750Y-54320000D02*
X200802750Y-50420000D01*
X198802750Y-54320000D02*
X198802750Y-50420000D01*
X200802750Y-54320000D02*
X198802750Y-54320000D01*
%TO.C,D43*%
X153146000Y-116931000D02*
X151146000Y-116931000D01*
X153146000Y-116931000D02*
X153146000Y-113031000D01*
X151146000Y-116931000D02*
X151146000Y-113031000D01*
%TO.C,D37*%
X215090250Y-92420000D02*
X215090250Y-88520000D01*
X215090250Y-92420000D02*
X213090250Y-92420000D01*
X213090250Y-92420000D02*
X213090250Y-88520000D01*
%TO.C,D22*%
X91519250Y-73878000D02*
X91519250Y-69978000D01*
X91519250Y-73878000D02*
X89519250Y-73878000D01*
X89519250Y-73878000D02*
X89519250Y-69978000D01*
%TO.C,D0*%
X203565250Y-30507500D02*
X203565250Y-26607500D01*
X205565250Y-30507500D02*
X205565250Y-26607500D01*
X205565250Y-30507500D02*
X203565250Y-30507500D01*
%TO.C,D13*%
X124856750Y-54828000D02*
X122856750Y-54828000D01*
X124856750Y-54828000D02*
X124856750Y-50928000D01*
X122856750Y-54828000D02*
X122856750Y-50928000D01*
%TO.C,D38*%
X232140250Y-92420000D02*
X232140250Y-88520000D01*
X234140250Y-92420000D02*
X232140250Y-92420000D01*
X234140250Y-92420000D02*
X234140250Y-88520000D01*
%TO.C,R3*%
X143399742Y-20080500D02*
X143874258Y-20080500D01*
X143399742Y-19035500D02*
X143874258Y-19035500D01*
%TO.C,D29*%
X255571500Y-73370000D02*
X253571500Y-73370000D01*
X255571500Y-73370000D02*
X255571500Y-69470000D01*
X253571500Y-73370000D02*
X253571500Y-69470000D01*
%TD*%
%LPC*%
D10*
X106290238Y-107552380D02*
X106290238Y-106552380D01*
X106052142Y-106552380D01*
X105909285Y-106600000D01*
X105814047Y-106695238D01*
X105766428Y-106790476D01*
X105718809Y-106980952D01*
X105718809Y-107123809D01*
X105766428Y-107314285D01*
X105814047Y-107409523D01*
X105909285Y-107504761D01*
X106052142Y-107552380D01*
X106290238Y-107552380D01*
X104909285Y-107504761D02*
X105004523Y-107552380D01*
X105195000Y-107552380D01*
X105290238Y-107504761D01*
X105337857Y-107409523D01*
X105337857Y-107028571D01*
X105290238Y-106933333D01*
X105195000Y-106885714D01*
X105004523Y-106885714D01*
X104909285Y-106933333D01*
X104861666Y-107028571D01*
X104861666Y-107123809D01*
X105337857Y-107219047D01*
X104480714Y-107504761D02*
X104385476Y-107552380D01*
X104195000Y-107552380D01*
X104099761Y-107504761D01*
X104052142Y-107409523D01*
X104052142Y-107361904D01*
X104099761Y-107266666D01*
X104195000Y-107219047D01*
X104337857Y-107219047D01*
X104433095Y-107171428D01*
X104480714Y-107076190D01*
X104480714Y-107028571D01*
X104433095Y-106933333D01*
X104337857Y-106885714D01*
X104195000Y-106885714D01*
X104099761Y-106933333D01*
X103623571Y-107552380D02*
X103623571Y-106885714D01*
X103623571Y-106552380D02*
X103671190Y-106600000D01*
X103623571Y-106647619D01*
X103575952Y-106600000D01*
X103623571Y-106552380D01*
X103623571Y-106647619D01*
X102718809Y-106885714D02*
X102718809Y-107695238D01*
X102766428Y-107790476D01*
X102814047Y-107838095D01*
X102909285Y-107885714D01*
X103052142Y-107885714D01*
X103147380Y-107838095D01*
X102718809Y-107504761D02*
X102814047Y-107552380D01*
X103004523Y-107552380D01*
X103099761Y-107504761D01*
X103147380Y-107457142D01*
X103195000Y-107361904D01*
X103195000Y-107076190D01*
X103147380Y-106980952D01*
X103099761Y-106933333D01*
X103004523Y-106885714D01*
X102814047Y-106885714D01*
X102718809Y-106933333D01*
X102242619Y-106885714D02*
X102242619Y-107552380D01*
X102242619Y-106980952D02*
X102195000Y-106933333D01*
X102099761Y-106885714D01*
X101956904Y-106885714D01*
X101861666Y-106933333D01*
X101814047Y-107028571D01*
X101814047Y-107552380D01*
X100956904Y-107504761D02*
X101052142Y-107552380D01*
X101242619Y-107552380D01*
X101337857Y-107504761D01*
X101385476Y-107409523D01*
X101385476Y-107028571D01*
X101337857Y-106933333D01*
X101242619Y-106885714D01*
X101052142Y-106885714D01*
X100956904Y-106933333D01*
X100909285Y-107028571D01*
X100909285Y-107123809D01*
X101385476Y-107219047D01*
X100052142Y-107552380D02*
X100052142Y-106552380D01*
X100052142Y-107504761D02*
X100147380Y-107552380D01*
X100337857Y-107552380D01*
X100433095Y-107504761D01*
X100480714Y-107457142D01*
X100528333Y-107361904D01*
X100528333Y-107076190D01*
X100480714Y-106980952D01*
X100433095Y-106933333D01*
X100337857Y-106885714D01*
X100147380Y-106885714D01*
X100052142Y-106933333D01*
X98814047Y-107552380D02*
X98814047Y-106552380D01*
X98814047Y-106933333D02*
X98718809Y-106885714D01*
X98528333Y-106885714D01*
X98433095Y-106933333D01*
X98385476Y-106980952D01*
X98337857Y-107076190D01*
X98337857Y-107361904D01*
X98385476Y-107457142D01*
X98433095Y-107504761D01*
X98528333Y-107552380D01*
X98718809Y-107552380D01*
X98814047Y-107504761D01*
X98004523Y-106885714D02*
X97766428Y-107552380D01*
X97528333Y-106885714D02*
X97766428Y-107552380D01*
X97861666Y-107790476D01*
X97909285Y-107838095D01*
X98004523Y-107885714D01*
X96385476Y-107552380D02*
X96385476Y-106552380D01*
X96052142Y-107266666D01*
X95718809Y-106552380D01*
X95718809Y-107552380D01*
X94814047Y-107552380D02*
X94814047Y-107028571D01*
X94861666Y-106933333D01*
X94956904Y-106885714D01*
X95147380Y-106885714D01*
X95242619Y-106933333D01*
X94814047Y-107504761D02*
X94909285Y-107552380D01*
X95147380Y-107552380D01*
X95242619Y-107504761D01*
X95290238Y-107409523D01*
X95290238Y-107314285D01*
X95242619Y-107219047D01*
X95147380Y-107171428D01*
X94909285Y-107171428D01*
X94814047Y-107123809D01*
X93909285Y-107504761D02*
X94004523Y-107552380D01*
X94195000Y-107552380D01*
X94290238Y-107504761D01*
X94337857Y-107457142D01*
X94385476Y-107361904D01*
X94385476Y-107076190D01*
X94337857Y-106980952D01*
X94290238Y-106933333D01*
X94195000Y-106885714D01*
X94004523Y-106885714D01*
X93909285Y-106933333D01*
X93099761Y-107504761D02*
X93195000Y-107552380D01*
X93385476Y-107552380D01*
X93480714Y-107504761D01*
X93528333Y-107409523D01*
X93528333Y-107028571D01*
X93480714Y-106933333D01*
X93385476Y-106885714D01*
X93195000Y-106885714D01*
X93099761Y-106933333D01*
X93052142Y-107028571D01*
X93052142Y-107123809D01*
X93528333Y-107219047D01*
X107671190Y-109772380D02*
X107099761Y-109772380D01*
X107385476Y-110772380D02*
X107385476Y-109772380D01*
X106766428Y-110772380D02*
X106766428Y-110105714D01*
X106766428Y-109772380D02*
X106814047Y-109820000D01*
X106766428Y-109867619D01*
X106718809Y-109820000D01*
X106766428Y-109772380D01*
X106766428Y-109867619D01*
X106290238Y-110105714D02*
X106290238Y-110772380D01*
X106290238Y-110200952D02*
X106242619Y-110153333D01*
X106147380Y-110105714D01*
X106004523Y-110105714D01*
X105909285Y-110153333D01*
X105861666Y-110248571D01*
X105861666Y-110772380D01*
X105480714Y-110105714D02*
X105242619Y-110772380D01*
X105004523Y-110105714D02*
X105242619Y-110772380D01*
X105337857Y-111010476D01*
X105385476Y-111058095D01*
X105480714Y-111105714D01*
X103528333Y-110248571D02*
X103385476Y-110296190D01*
X103337857Y-110343809D01*
X103290238Y-110439047D01*
X103290238Y-110581904D01*
X103337857Y-110677142D01*
X103385476Y-110724761D01*
X103480714Y-110772380D01*
X103861666Y-110772380D01*
X103861666Y-109772380D01*
X103528333Y-109772380D01*
X103433095Y-109820000D01*
X103385476Y-109867619D01*
X103337857Y-109962857D01*
X103337857Y-110058095D01*
X103385476Y-110153333D01*
X103433095Y-110200952D01*
X103528333Y-110248571D01*
X103861666Y-110248571D01*
X102718809Y-110772380D02*
X102814047Y-110724761D01*
X102861666Y-110677142D01*
X102909285Y-110581904D01*
X102909285Y-110296190D01*
X102861666Y-110200952D01*
X102814047Y-110153333D01*
X102718809Y-110105714D01*
X102575952Y-110105714D01*
X102480714Y-110153333D01*
X102433095Y-110200952D01*
X102385476Y-110296190D01*
X102385476Y-110581904D01*
X102433095Y-110677142D01*
X102480714Y-110724761D01*
X102575952Y-110772380D01*
X102718809Y-110772380D01*
X101528333Y-110772380D02*
X101528333Y-110248571D01*
X101575952Y-110153333D01*
X101671190Y-110105714D01*
X101861666Y-110105714D01*
X101956904Y-110153333D01*
X101528333Y-110724761D02*
X101623571Y-110772380D01*
X101861666Y-110772380D01*
X101956904Y-110724761D01*
X102004523Y-110629523D01*
X102004523Y-110534285D01*
X101956904Y-110439047D01*
X101861666Y-110391428D01*
X101623571Y-110391428D01*
X101528333Y-110343809D01*
X101052142Y-110772380D02*
X101052142Y-110105714D01*
X101052142Y-110296190D02*
X101004523Y-110200952D01*
X100956904Y-110153333D01*
X100861666Y-110105714D01*
X100766428Y-110105714D01*
X100004523Y-110772380D02*
X100004523Y-109772380D01*
X100004523Y-110724761D02*
X100099761Y-110772380D01*
X100290238Y-110772380D01*
X100385476Y-110724761D01*
X100433095Y-110677142D01*
X100480714Y-110581904D01*
X100480714Y-110296190D01*
X100433095Y-110200952D01*
X100385476Y-110153333D01*
X100290238Y-110105714D01*
X100099761Y-110105714D01*
X100004523Y-110153333D01*
X99480714Y-110724761D02*
X99480714Y-110772380D01*
X99528333Y-110867619D01*
X99575952Y-110915238D01*
X97956904Y-110248571D02*
X97814047Y-110296190D01*
X97766428Y-110343809D01*
X97718809Y-110439047D01*
X97718809Y-110581904D01*
X97766428Y-110677142D01*
X97814047Y-110724761D01*
X97909285Y-110772380D01*
X98290238Y-110772380D01*
X98290238Y-109772380D01*
X97956904Y-109772380D01*
X97861666Y-109820000D01*
X97814047Y-109867619D01*
X97766428Y-109962857D01*
X97766428Y-110058095D01*
X97814047Y-110153333D01*
X97861666Y-110200952D01*
X97956904Y-110248571D01*
X98290238Y-110248571D01*
X97290238Y-110772380D02*
X97290238Y-110105714D01*
X97290238Y-109772380D02*
X97337857Y-109820000D01*
X97290238Y-109867619D01*
X97242619Y-109820000D01*
X97290238Y-109772380D01*
X97290238Y-109867619D01*
X96385476Y-110105714D02*
X96385476Y-110915238D01*
X96433095Y-111010476D01*
X96480714Y-111058095D01*
X96575952Y-111105714D01*
X96718809Y-111105714D01*
X96814047Y-111058095D01*
X96385476Y-110724761D02*
X96480714Y-110772380D01*
X96671190Y-110772380D01*
X96766428Y-110724761D01*
X96814047Y-110677142D01*
X96861666Y-110581904D01*
X96861666Y-110296190D01*
X96814047Y-110200952D01*
X96766428Y-110153333D01*
X96671190Y-110105714D01*
X96480714Y-110105714D01*
X96385476Y-110153333D01*
X95147380Y-110772380D02*
X95147380Y-109772380D01*
X94814047Y-110486666D01*
X94480714Y-109772380D01*
X94480714Y-110772380D01*
X93861666Y-110772380D02*
X93956904Y-110724761D01*
X94004523Y-110677142D01*
X94052142Y-110581904D01*
X94052142Y-110296190D01*
X94004523Y-110200952D01*
X93956904Y-110153333D01*
X93861666Y-110105714D01*
X93718809Y-110105714D01*
X93623571Y-110153333D01*
X93575952Y-110200952D01*
X93528333Y-110296190D01*
X93528333Y-110581904D01*
X93575952Y-110677142D01*
X93623571Y-110724761D01*
X93718809Y-110772380D01*
X93861666Y-110772380D01*
X92671190Y-110772380D02*
X92671190Y-109772380D01*
X92671190Y-110724761D02*
X92766428Y-110772380D01*
X92956904Y-110772380D01*
X93052142Y-110724761D01*
X93099761Y-110677142D01*
X93147380Y-110581904D01*
X93147380Y-110296190D01*
X93099761Y-110200952D01*
X93052142Y-110153333D01*
X92956904Y-110105714D01*
X92766428Y-110105714D01*
X92671190Y-110153333D01*
X92242619Y-110724761D02*
X92147380Y-110772380D01*
X91956904Y-110772380D01*
X91861666Y-110724761D01*
X91814047Y-110629523D01*
X91814047Y-110581904D01*
X91861666Y-110486666D01*
X91956904Y-110439047D01*
X92099761Y-110439047D01*
X92195000Y-110391428D01*
X92242619Y-110296190D01*
X92242619Y-110248571D01*
X92195000Y-110153333D01*
X92099761Y-110105714D01*
X91956904Y-110105714D01*
X91861666Y-110153333D01*
X104028333Y-113992380D02*
X104028333Y-112992380D01*
X103552142Y-113325714D02*
X103552142Y-113992380D01*
X103552142Y-113420952D02*
X103504523Y-113373333D01*
X103409285Y-113325714D01*
X103266428Y-113325714D01*
X103171190Y-113373333D01*
X103123571Y-113468571D01*
X103123571Y-113992380D01*
X102695000Y-113944761D02*
X102599761Y-113992380D01*
X102409285Y-113992380D01*
X102314047Y-113944761D01*
X102266428Y-113849523D01*
X102266428Y-113801904D01*
X102314047Y-113706666D01*
X102409285Y-113659047D01*
X102552142Y-113659047D01*
X102647380Y-113611428D01*
X102695000Y-113516190D01*
X102695000Y-113468571D01*
X102647380Y-113373333D01*
X102552142Y-113325714D01*
X102409285Y-113325714D01*
X102314047Y-113373333D01*
X101837857Y-113325714D02*
X101837857Y-114325714D01*
X101837857Y-113373333D02*
X101742619Y-113325714D01*
X101552142Y-113325714D01*
X101456904Y-113373333D01*
X101409285Y-113420952D01*
X101361666Y-113516190D01*
X101361666Y-113801904D01*
X101409285Y-113897142D01*
X101456904Y-113944761D01*
X101552142Y-113992380D01*
X101742619Y-113992380D01*
X101837857Y-113944761D01*
X100933095Y-113992380D02*
X100933095Y-113325714D01*
X100933095Y-112992380D02*
X100980714Y-113040000D01*
X100933095Y-113087619D01*
X100885476Y-113040000D01*
X100933095Y-112992380D01*
X100933095Y-113087619D01*
X100456904Y-113992380D02*
X100456904Y-113325714D01*
X100456904Y-113516190D02*
X100409285Y-113420952D01*
X100361666Y-113373333D01*
X100266428Y-113325714D01*
X100171190Y-113325714D01*
X99456904Y-113944761D02*
X99552142Y-113992380D01*
X99742619Y-113992380D01*
X99837857Y-113944761D01*
X99885476Y-113849523D01*
X99885476Y-113468571D01*
X99837857Y-113373333D01*
X99742619Y-113325714D01*
X99552142Y-113325714D01*
X99456904Y-113373333D01*
X99409285Y-113468571D01*
X99409285Y-113563809D01*
X99885476Y-113659047D01*
X98552142Y-113992380D02*
X98552142Y-112992380D01*
X98552142Y-113944761D02*
X98647380Y-113992380D01*
X98837857Y-113992380D01*
X98933095Y-113944761D01*
X98980714Y-113897142D01*
X99028333Y-113801904D01*
X99028333Y-113516190D01*
X98980714Y-113420952D01*
X98933095Y-113373333D01*
X98837857Y-113325714D01*
X98647380Y-113325714D01*
X98552142Y-113373333D01*
X97314047Y-113992380D02*
X97314047Y-112992380D01*
X97314047Y-113373333D02*
X97218809Y-113325714D01*
X97028333Y-113325714D01*
X96933095Y-113373333D01*
X96885476Y-113420952D01*
X96837857Y-113516190D01*
X96837857Y-113801904D01*
X96885476Y-113897142D01*
X96933095Y-113944761D01*
X97028333Y-113992380D01*
X97218809Y-113992380D01*
X97314047Y-113944761D01*
X96504523Y-113325714D02*
X96266428Y-113992380D01*
X96028333Y-113325714D02*
X96266428Y-113992380D01*
X96361666Y-114230476D01*
X96409285Y-114278095D01*
X96504523Y-114325714D01*
X109075952Y-115507142D02*
X109123571Y-115554761D01*
X109266428Y-115602380D01*
X109361666Y-115602380D01*
X109504523Y-115554761D01*
X109599761Y-115459523D01*
X109647380Y-115364285D01*
X109695000Y-115173809D01*
X109695000Y-115030952D01*
X109647380Y-114840476D01*
X109599761Y-114745238D01*
X109504523Y-114650000D01*
X109361666Y-114602380D01*
X109266428Y-114602380D01*
X109123571Y-114650000D01*
X109075952Y-114697619D01*
X108218809Y-115602380D02*
X108218809Y-115078571D01*
X108266428Y-114983333D01*
X108361666Y-114935714D01*
X108552142Y-114935714D01*
X108647380Y-114983333D01*
X108218809Y-115554761D02*
X108314047Y-115602380D01*
X108552142Y-115602380D01*
X108647380Y-115554761D01*
X108695000Y-115459523D01*
X108695000Y-115364285D01*
X108647380Y-115269047D01*
X108552142Y-115221428D01*
X108314047Y-115221428D01*
X108218809Y-115173809D01*
X107742619Y-115602380D02*
X107742619Y-114935714D01*
X107742619Y-114602380D02*
X107790238Y-114650000D01*
X107742619Y-114697619D01*
X107695000Y-114650000D01*
X107742619Y-114602380D01*
X107742619Y-114697619D01*
X107266428Y-114935714D02*
X107266428Y-115602380D01*
X107266428Y-115030952D02*
X107218809Y-114983333D01*
X107123571Y-114935714D01*
X106980714Y-114935714D01*
X106885476Y-114983333D01*
X106837857Y-115078571D01*
X106837857Y-115602380D01*
X106314047Y-115554761D02*
X106314047Y-115602380D01*
X106361666Y-115697619D01*
X106409285Y-115745238D01*
X105266428Y-114602380D02*
X104695000Y-114602380D01*
X104980714Y-115602380D02*
X104980714Y-114602380D01*
X104361666Y-115602380D02*
X104361666Y-114935714D01*
X104361666Y-115126190D02*
X104314047Y-115030952D01*
X104266428Y-114983333D01*
X104171190Y-114935714D01*
X104075952Y-114935714D01*
X103314047Y-115602380D02*
X103314047Y-115078571D01*
X103361666Y-114983333D01*
X103456904Y-114935714D01*
X103647380Y-114935714D01*
X103742619Y-114983333D01*
X103314047Y-115554761D02*
X103409285Y-115602380D01*
X103647380Y-115602380D01*
X103742619Y-115554761D01*
X103790238Y-115459523D01*
X103790238Y-115364285D01*
X103742619Y-115269047D01*
X103647380Y-115221428D01*
X103409285Y-115221428D01*
X103314047Y-115173809D01*
X102885476Y-115554761D02*
X102790238Y-115602380D01*
X102599761Y-115602380D01*
X102504523Y-115554761D01*
X102456904Y-115459523D01*
X102456904Y-115411904D01*
X102504523Y-115316666D01*
X102599761Y-115269047D01*
X102742619Y-115269047D01*
X102837857Y-115221428D01*
X102885476Y-115126190D01*
X102885476Y-115078571D01*
X102837857Y-114983333D01*
X102742619Y-114935714D01*
X102599761Y-114935714D01*
X102504523Y-114983333D01*
X102028333Y-115602380D02*
X102028333Y-114602380D01*
X101599761Y-115602380D02*
X101599761Y-115078571D01*
X101647380Y-114983333D01*
X101742619Y-114935714D01*
X101885476Y-114935714D01*
X101980714Y-114983333D01*
X102028333Y-115030952D01*
X100361666Y-115602380D02*
X100361666Y-114602380D01*
X100028333Y-115316666D01*
X99695000Y-114602380D01*
X99695000Y-115602380D01*
X98790238Y-115602380D02*
X98790238Y-115078571D01*
X98837857Y-114983333D01*
X98933095Y-114935714D01*
X99123571Y-114935714D01*
X99218809Y-114983333D01*
X98790238Y-115554761D02*
X98885476Y-115602380D01*
X99123571Y-115602380D01*
X99218809Y-115554761D01*
X99266428Y-115459523D01*
X99266428Y-115364285D01*
X99218809Y-115269047D01*
X99123571Y-115221428D01*
X98885476Y-115221428D01*
X98790238Y-115173809D01*
X98314047Y-114935714D02*
X98314047Y-115602380D01*
X98314047Y-115030952D02*
X98266428Y-114983333D01*
X98171190Y-114935714D01*
X98028333Y-114935714D01*
X97933095Y-114983333D01*
X97885476Y-115078571D01*
X97885476Y-115602380D01*
X97361666Y-115554761D02*
X97361666Y-115602380D01*
X97409285Y-115697619D01*
X97456904Y-115745238D01*
X95742619Y-115602380D02*
X95742619Y-115078571D01*
X95790238Y-114983333D01*
X95885476Y-114935714D01*
X96075952Y-114935714D01*
X96171190Y-114983333D01*
X95742619Y-115554761D02*
X95837857Y-115602380D01*
X96075952Y-115602380D01*
X96171190Y-115554761D01*
X96218809Y-115459523D01*
X96218809Y-115364285D01*
X96171190Y-115269047D01*
X96075952Y-115221428D01*
X95837857Y-115221428D01*
X95742619Y-115173809D01*
X95266428Y-114935714D02*
X95266428Y-115602380D01*
X95266428Y-115030952D02*
X95218809Y-114983333D01*
X95123571Y-114935714D01*
X94980714Y-114935714D01*
X94885476Y-114983333D01*
X94837857Y-115078571D01*
X94837857Y-115602380D01*
X93933095Y-115602380D02*
X93933095Y-114602380D01*
X93933095Y-115554761D02*
X94028333Y-115602380D01*
X94218809Y-115602380D01*
X94314047Y-115554761D01*
X94361666Y-115507142D01*
X94409285Y-115411904D01*
X94409285Y-115126190D01*
X94361666Y-115030952D01*
X94314047Y-114983333D01*
X94218809Y-114935714D01*
X94028333Y-114935714D01*
X93933095Y-114983333D01*
X92695000Y-115602380D02*
X92695000Y-114602380D01*
X92123571Y-115602380D02*
X92552142Y-115030952D01*
X92123571Y-114602380D02*
X92695000Y-115173809D01*
X91266428Y-114935714D02*
X91266428Y-115602380D01*
X91695000Y-114935714D02*
X91695000Y-115459523D01*
X91647380Y-115554761D01*
X91552142Y-115602380D01*
X91409285Y-115602380D01*
X91314047Y-115554761D01*
X91266428Y-115507142D01*
X90790238Y-115602380D02*
X90790238Y-114935714D01*
X90790238Y-115126190D02*
X90742619Y-115030952D01*
X90695000Y-114983333D01*
X90599761Y-114935714D01*
X90504523Y-114935714D01*
X90028333Y-115602380D02*
X90123571Y-115554761D01*
X90171190Y-115507142D01*
X90218809Y-115411904D01*
X90218809Y-115126190D01*
X90171190Y-115030952D01*
X90123571Y-114983333D01*
X90028333Y-114935714D01*
X89885476Y-114935714D01*
X89790238Y-114983333D01*
X89742619Y-115030952D01*
X89695000Y-115126190D01*
X89695000Y-115411904D01*
X89742619Y-115507142D01*
X89790238Y-115554761D01*
X89885476Y-115602380D01*
X90028333Y-115602380D01*
D12*
%TO.C,K9*%
X33337500Y-52387500D03*
D13*
X38417500Y-52387500D03*
X28257500Y-52387500D03*
D14*
X29527500Y-49847500D03*
X35877500Y-47307500D03*
%TD*%
D13*
%TO.C,K11*%
X71120000Y-52387500D03*
X81280000Y-52387500D03*
D12*
X76200000Y-52387500D03*
D14*
X72390000Y-49847500D03*
X78740000Y-47307500D03*
%TD*%
D13*
%TO.C,K1*%
X209232500Y-28575000D03*
D12*
X214312500Y-28575000D03*
D13*
X219392500Y-28575000D03*
D14*
X210502500Y-26035000D03*
X216852500Y-23495000D03*
%TD*%
D13*
%TO.C,K35*%
X161607500Y-90487500D03*
D12*
X166687500Y-90487500D03*
D13*
X171767500Y-90487500D03*
D14*
X162877500Y-87947500D03*
X169227500Y-85407500D03*
%TD*%
D13*
%TO.C,K37*%
X199707500Y-90487500D03*
D12*
X204787500Y-90487500D03*
D13*
X209867500Y-90487500D03*
D14*
X200977500Y-87947500D03*
X207327500Y-85407500D03*
%TD*%
D12*
%TO.C,K24*%
X119062500Y-71437500D03*
D13*
X124142500Y-71437500D03*
X113982500Y-71437500D03*
D14*
X115252500Y-68897500D03*
X121602500Y-66357500D03*
%TD*%
D15*
%TO.C,K30*%
X28575000Y-83502500D03*
D13*
X35401250Y-90487500D03*
D15*
X52387500Y-83502500D03*
D13*
X45561250Y-90487500D03*
D12*
X52387500Y-98742500D03*
X28575000Y-98742500D03*
X40481250Y-90487500D03*
D14*
X36671250Y-87947500D03*
X43021250Y-85407500D03*
%TD*%
D12*
%TO.C,K42*%
X250031250Y-109537500D03*
D13*
X255111250Y-109537500D03*
X244951250Y-109537500D03*
D14*
X246221250Y-106997500D03*
X252571250Y-104457500D03*
%TD*%
D12*
%TO.C,K26*%
X176212500Y-71437500D03*
D13*
X171132500Y-71437500D03*
X181292500Y-71437500D03*
D14*
X172402500Y-68897500D03*
X178752500Y-66357500D03*
%TD*%
D12*
%TO.C,K17*%
X209550000Y-52387500D03*
D13*
X204470000Y-52387500D03*
X214630000Y-52387500D03*
D14*
X205740000Y-49847500D03*
X212090000Y-47307500D03*
%TD*%
D13*
%TO.C,K33*%
X114617500Y-90487500D03*
D12*
X109537500Y-90487500D03*
D13*
X104457500Y-90487500D03*
D14*
X105727500Y-87947500D03*
X112077500Y-85407500D03*
%TD*%
D13*
%TO.C,K39*%
X30638750Y-109537500D03*
X40798750Y-109537500D03*
D12*
X35718750Y-109537500D03*
D14*
X31908750Y-106997500D03*
X38258750Y-104457500D03*
%TD*%
D12*
%TO.C,K6*%
X66675000Y-33337500D03*
D13*
X61595000Y-33337500D03*
X71755000Y-33337500D03*
D14*
X62865000Y-30797500D03*
X69215000Y-28257500D03*
%TD*%
D13*
%TO.C,K43*%
X147955000Y-114300000D03*
D12*
X85725000Y-122555000D03*
D15*
X85725000Y-107315000D03*
D12*
X200025000Y-122555000D03*
X142875000Y-114300000D03*
D15*
X200025000Y-107315000D03*
D13*
X137795000Y-114300000D03*
D14*
X139065000Y-111760000D03*
X145415000Y-109220000D03*
%TD*%
D13*
%TO.C,K44*%
X255111250Y-90487500D03*
X244951250Y-90487500D03*
D12*
X250031250Y-90487500D03*
D14*
X246221250Y-87947500D03*
X252571250Y-85407500D03*
%TD*%
D13*
%TO.C,K32*%
X85407500Y-90487500D03*
D12*
X90487500Y-90487500D03*
D13*
X95567500Y-90487500D03*
D14*
X86677500Y-87947500D03*
X93027500Y-85407500D03*
%TD*%
D13*
%TO.C,K16*%
X195580000Y-52387500D03*
X185420000Y-52387500D03*
D12*
X190500000Y-52387500D03*
D14*
X186690000Y-49847500D03*
X193040000Y-47307500D03*
%TD*%
D13*
%TO.C,K4*%
X257492500Y-28575000D03*
D12*
X252412500Y-28575000D03*
D13*
X247332500Y-28575000D03*
D14*
X248602500Y-26035000D03*
X254952500Y-23495000D03*
%TD*%
D15*
%TO.C,K29*%
X257175000Y-64452500D03*
D13*
X250348750Y-71437500D03*
X240188750Y-71437500D03*
D12*
X245268750Y-71437500D03*
X233362500Y-79692500D03*
D15*
X233362500Y-64452500D03*
D12*
X257175000Y-79692500D03*
D14*
X241458750Y-68897500D03*
X247808750Y-66357500D03*
%TD*%
D12*
%TO.C,K21*%
X61912500Y-71437500D03*
D13*
X66992500Y-71437500D03*
X56832500Y-71437500D03*
D14*
X58102500Y-68897500D03*
X64452500Y-66357500D03*
%TD*%
D12*
%TO.C,K3*%
X233362500Y-28575000D03*
D13*
X228282500Y-28575000D03*
X238442500Y-28575000D03*
D14*
X229552500Y-26035000D03*
X235902500Y-23495000D03*
%TD*%
D13*
%TO.C,K27*%
X190182500Y-71437500D03*
X200342500Y-71437500D03*
D12*
X195262500Y-71437500D03*
D14*
X191452500Y-68897500D03*
X197802500Y-66357500D03*
%TD*%
D13*
%TO.C,K34*%
X133667500Y-90487500D03*
X123507500Y-90487500D03*
D12*
X128587500Y-90487500D03*
D14*
X124777500Y-87947500D03*
X131127500Y-85407500D03*
%TD*%
D13*
%TO.C,K15*%
X166370000Y-52387500D03*
D12*
X171450000Y-52387500D03*
D13*
X176530000Y-52387500D03*
D14*
X167640000Y-49847500D03*
X173990000Y-47307500D03*
%TD*%
D12*
%TO.C,K12*%
X95250000Y-52387500D03*
D13*
X90170000Y-52387500D03*
X100330000Y-52387500D03*
D14*
X91440000Y-49847500D03*
X97790000Y-47307500D03*
%TD*%
D12*
%TO.C,K19*%
X252412500Y-52387500D03*
D13*
X257492500Y-52387500D03*
X247332500Y-52387500D03*
D14*
X248602500Y-49847500D03*
X254952500Y-47307500D03*
%TD*%
D12*
%TO.C,K40*%
X59531250Y-109537500D03*
D13*
X54451250Y-109537500D03*
X64611250Y-109537500D03*
D14*
X55721250Y-106997500D03*
X62071250Y-104457500D03*
%TD*%
D13*
%TO.C,K13*%
X109220000Y-52387500D03*
X119380000Y-52387500D03*
D12*
X114300000Y-52387500D03*
D14*
X110490000Y-49847500D03*
X116840000Y-47307500D03*
%TD*%
D13*
%TO.C,K36*%
X190817500Y-90487500D03*
X180657500Y-90487500D03*
D12*
X185737500Y-90487500D03*
D14*
X181927500Y-87947500D03*
X188277500Y-85407500D03*
%TD*%
D13*
%TO.C,K0*%
X200342500Y-28575000D03*
D12*
X195262500Y-28575000D03*
D13*
X190182500Y-28575000D03*
D14*
X191452500Y-26035000D03*
X197802500Y-23495000D03*
%TD*%
D13*
%TO.C,K18*%
X233680000Y-52387500D03*
D12*
X228600000Y-52387500D03*
D13*
X223520000Y-52387500D03*
D14*
X224790000Y-49847500D03*
X231140000Y-47307500D03*
%TD*%
D12*
%TO.C,K25*%
X157162500Y-71437500D03*
D13*
X162242500Y-71437500D03*
X152082500Y-71437500D03*
D14*
X153352500Y-68897500D03*
X159702500Y-66357500D03*
%TD*%
D12*
%TO.C,K23*%
X100012500Y-71437500D03*
D13*
X94932500Y-71437500D03*
X105092500Y-71437500D03*
D14*
X96202500Y-68897500D03*
X102552500Y-66357500D03*
%TD*%
D12*
%TO.C,K38*%
X223837500Y-90487500D03*
D13*
X218757500Y-90487500D03*
X228917500Y-90487500D03*
D14*
X220027500Y-87947500D03*
X226377500Y-85407500D03*
%TD*%
D13*
%TO.C,K14*%
X147320000Y-52387500D03*
D12*
X152400000Y-52387500D03*
D13*
X157480000Y-52387500D03*
D14*
X148590000Y-49847500D03*
X154940000Y-47307500D03*
%TD*%
D13*
%TO.C,K31*%
X66357500Y-90487500D03*
X76517500Y-90487500D03*
D12*
X71437500Y-90487500D03*
D14*
X67627500Y-87947500D03*
X73977500Y-85407500D03*
%TD*%
D12*
%TO.C,K10*%
X57150000Y-52387500D03*
D13*
X52070000Y-52387500D03*
X62230000Y-52387500D03*
D14*
X53340000Y-49847500D03*
X59690000Y-47307500D03*
%TD*%
D15*
%TO.C,K2*%
X254825500Y-21590000D03*
D12*
X230949500Y-36830000D03*
D13*
X247967500Y-28575000D03*
D12*
X242887500Y-28575000D03*
X254825500Y-36830000D03*
D15*
X230949500Y-21590000D03*
D13*
X237807500Y-28575000D03*
D14*
X239077500Y-26035000D03*
X245427500Y-23495000D03*
%TD*%
D13*
%TO.C,K7*%
X90805000Y-33337500D03*
D12*
X85725000Y-33337500D03*
D13*
X80645000Y-33337500D03*
D14*
X81915000Y-30797500D03*
X88265000Y-28257500D03*
%TD*%
D13*
%TO.C,K20*%
X40798750Y-71437500D03*
X30638750Y-71437500D03*
D12*
X35718750Y-71437500D03*
D14*
X31908750Y-68897500D03*
X38258750Y-66357500D03*
%TD*%
D12*
%TO.C,K5*%
X47625000Y-33337500D03*
D13*
X52705000Y-33337500D03*
X42545000Y-33337500D03*
D14*
X43815000Y-30797500D03*
X50165000Y-28257500D03*
%TD*%
D12*
%TO.C,K28*%
X214312500Y-71437500D03*
D13*
X219392500Y-71437500D03*
X209232500Y-71437500D03*
D14*
X210502500Y-68897500D03*
X216852500Y-66357500D03*
%TD*%
D13*
%TO.C,K8*%
X109855000Y-33337500D03*
D12*
X104775000Y-33337500D03*
D13*
X99695000Y-33337500D03*
D14*
X100965000Y-30797500D03*
X107315000Y-28257500D03*
%TD*%
D13*
%TO.C,K41*%
X231298750Y-109537500D03*
D12*
X226218750Y-109537500D03*
D13*
X221138750Y-109537500D03*
D14*
X222408750Y-106997500D03*
X228758750Y-104457500D03*
%TD*%
D13*
%TO.C,K22*%
X75882500Y-71437500D03*
X86042500Y-71437500D03*
D12*
X80962500Y-71437500D03*
D14*
X77152500Y-68897500D03*
X83502500Y-66357500D03*
%TD*%
D16*
%TO.C,U1*%
X131597000Y-28427500D03*
X132097000Y-28427500D03*
X132597000Y-28427500D03*
X133097000Y-28427500D03*
X133597000Y-28427500D03*
X134097000Y-28427500D03*
X134597000Y-28427500D03*
X135097000Y-28427500D03*
X135597000Y-28427500D03*
X136097000Y-28427500D03*
X136597000Y-28427500D03*
D17*
X137434500Y-29265000D03*
X137434500Y-29765000D03*
X137434500Y-30265000D03*
X137434500Y-30765000D03*
X137434500Y-31265000D03*
X137434500Y-31765000D03*
X137434500Y-32265000D03*
X137434500Y-32765000D03*
X137434500Y-33265000D03*
X137434500Y-33765000D03*
X137434500Y-34265000D03*
D16*
X136597000Y-35102500D03*
X136097000Y-35102500D03*
X135597000Y-35102500D03*
X135097000Y-35102500D03*
X134597000Y-35102500D03*
X134097000Y-35102500D03*
X133597000Y-35102500D03*
X133097000Y-35102500D03*
X132597000Y-35102500D03*
X132097000Y-35102500D03*
X131597000Y-35102500D03*
D17*
X130759500Y-34265000D03*
X130759500Y-33765000D03*
X130759500Y-33265000D03*
X130759500Y-32765000D03*
X130759500Y-32265000D03*
X130759500Y-31765000D03*
X130759500Y-31265000D03*
X130759500Y-30765000D03*
X130759500Y-30265000D03*
X130759500Y-29765000D03*
X130759500Y-29265000D03*
D18*
X134097000Y-31765000D03*
%TD*%
D19*
%TO.C,R5*%
X126937000Y-39624000D03*
X128587000Y-39624000D03*
%TD*%
D20*
%TO.C,R6*%
X142367000Y-28511000D03*
X142367000Y-26861000D03*
%TD*%
D21*
%TO.C,SW1*%
X148157000Y-26869000D03*
X154357000Y-23169000D03*
X148157000Y-23169000D03*
X154357000Y-26869000D03*
%TD*%
D22*
%TO.C,C8*%
X149948600Y-40360600D03*
X151498600Y-40360600D03*
%TD*%
D23*
%TO.C,C5*%
X130721400Y-23393400D03*
X129171400Y-23393400D03*
%TD*%
D24*
%TO.C,C7*%
X135915400Y-23330200D03*
X135915400Y-21780200D03*
%TD*%
D25*
%TO.C,C4*%
X124587000Y-26403000D03*
X124587000Y-27953000D03*
%TD*%
D23*
%TO.C,C9*%
X151473200Y-33655000D03*
X149923200Y-33655000D03*
%TD*%
D24*
%TO.C,C6*%
X137693400Y-23330200D03*
X137693400Y-21780200D03*
%TD*%
D22*
%TO.C,C2*%
X137401000Y-41910000D03*
X138951000Y-41910000D03*
%TD*%
D24*
%TO.C,C3*%
X124968000Y-37097000D03*
X124968000Y-35547000D03*
%TD*%
D25*
%TO.C,C1*%
X146050000Y-29070000D03*
X146050000Y-30620000D03*
%TD*%
D26*
%TO.C,Y1*%
X149848200Y-38184000D03*
X149848200Y-35984000D03*
X151548200Y-35984000D03*
X151548200Y-38184000D03*
%TD*%
D27*
%TO.C,D40*%
X69088000Y-111378000D03*
X69088000Y-108078000D03*
%TD*%
%TO.C,D23*%
X109569250Y-73278000D03*
X109569250Y-69978000D03*
%TD*%
D28*
%TO.C,U2*%
X165088000Y-28559000D03*
D29*
X163388000Y-28559000D03*
X163388000Y-26559000D03*
X165288000Y-26559000D03*
%TD*%
D27*
%TO.C,D34*%
X138144250Y-92328000D03*
X138144250Y-89028000D03*
%TD*%
%TO.C,D17*%
X218852750Y-53720000D03*
X218852750Y-50420000D03*
%TD*%
%TO.C,D44*%
X259334000Y-91820000D03*
X259334000Y-88520000D03*
%TD*%
%TO.C,D18*%
X237902750Y-53720000D03*
X237902750Y-50420000D03*
%TD*%
%TO.C,D15*%
X180752750Y-53720000D03*
X180752750Y-50420000D03*
%TD*%
D30*
%TO.C,U3*%
X130097000Y-26065000D03*
X130897000Y-26065000D03*
X131697000Y-26065000D03*
X132497000Y-26065000D03*
X133297000Y-26065000D03*
X134097000Y-26065000D03*
X134897000Y-26065000D03*
X135697000Y-26065000D03*
X136497000Y-26065000D03*
X137297000Y-26065000D03*
X138097000Y-26065000D03*
D31*
X139797000Y-27765000D03*
X139797000Y-28565000D03*
X139797000Y-29365000D03*
X139797000Y-30165000D03*
X139797000Y-30965000D03*
X139797000Y-31765000D03*
X139797000Y-32565000D03*
X139797000Y-33365000D03*
X139797000Y-34165000D03*
X139797000Y-34965000D03*
X139797000Y-35765000D03*
D30*
X138097000Y-37465000D03*
X137297000Y-37465000D03*
X136497000Y-37465000D03*
X135697000Y-37465000D03*
X134897000Y-37465000D03*
X134097000Y-37465000D03*
X133297000Y-37465000D03*
X132497000Y-37465000D03*
X131697000Y-37465000D03*
X130897000Y-37465000D03*
X130097000Y-37465000D03*
D31*
X128397000Y-35765000D03*
X128397000Y-34965000D03*
X128397000Y-34165000D03*
X128397000Y-33365000D03*
X128397000Y-32565000D03*
X128397000Y-31765000D03*
X128397000Y-30965000D03*
X128397000Y-30165000D03*
X128397000Y-29365000D03*
X128397000Y-28565000D03*
X128397000Y-27765000D03*
%TD*%
D19*
%TO.C,R4*%
X142812000Y-22225000D03*
X144462000Y-22225000D03*
%TD*%
D27*
%TO.C,D4*%
X249174000Y-40385000D03*
X249174000Y-37085000D03*
%TD*%
%TO.C,D42*%
X259334000Y-110870000D03*
X259334000Y-107570000D03*
%TD*%
%TO.C,D24*%
X128619250Y-73278000D03*
X128619250Y-69978000D03*
%TD*%
%TO.C,D8*%
X114331750Y-35178000D03*
X114331750Y-31878000D03*
%TD*%
D32*
%TO.C,F1*%
X161795000Y-23749000D03*
X164595000Y-23749000D03*
%TD*%
D27*
%TO.C,D14*%
X161702750Y-53720000D03*
X161702750Y-50420000D03*
%TD*%
%TO.C,D12*%
X104806750Y-54228000D03*
X104806750Y-50928000D03*
%TD*%
%TO.C,D21*%
X71469250Y-73278000D03*
X71469250Y-69978000D03*
%TD*%
%TO.C,D31*%
X80994250Y-92328000D03*
X80994250Y-89028000D03*
%TD*%
%TO.C,D11*%
X85756750Y-54228000D03*
X85756750Y-50928000D03*
%TD*%
%TO.C,D19*%
X261715250Y-53720000D03*
X261715250Y-50420000D03*
%TD*%
%TO.C,D6*%
X76231750Y-35178000D03*
X76231750Y-31878000D03*
%TD*%
%TO.C,D5*%
X57181750Y-35178000D03*
X57181750Y-31878000D03*
%TD*%
%TO.C,D1*%
X223615250Y-29907500D03*
X223615250Y-26607500D03*
%TD*%
%TO.C,D28*%
X223615250Y-72770000D03*
X223615250Y-69470000D03*
%TD*%
%TO.C,D39*%
X45275500Y-111378000D03*
X45275500Y-108078000D03*
%TD*%
%TO.C,D25*%
X166465250Y-72770000D03*
X166465250Y-69470000D03*
%TD*%
D33*
%TO.C,J1*%
X160687000Y-32536000D03*
X160687000Y-33536000D03*
X160687000Y-34536000D03*
X160687000Y-35536000D03*
D34*
X164562000Y-36836000D03*
X164562000Y-31236000D03*
%TD*%
D27*
%TO.C,D10*%
X66706750Y-54228000D03*
X66706750Y-50928000D03*
%TD*%
%TO.C,D7*%
X95281750Y-35178000D03*
X95281750Y-31878000D03*
%TD*%
%TO.C,D35*%
X175990250Y-91820000D03*
X175990250Y-88520000D03*
%TD*%
%TO.C,D20*%
X45275500Y-73278000D03*
X45275500Y-69978000D03*
%TD*%
%TO.C,D36*%
X195040250Y-91820000D03*
X195040250Y-88520000D03*
%TD*%
%TO.C,D9*%
X42894250Y-54228000D03*
X42894250Y-50928000D03*
%TD*%
%TO.C,D30*%
X50038000Y-92328000D03*
X50038000Y-89028000D03*
%TD*%
%TO.C,D27*%
X204565250Y-72770000D03*
X204565250Y-69470000D03*
%TD*%
%TO.C,D33*%
X119094250Y-92328000D03*
X119094250Y-89028000D03*
%TD*%
%TO.C,D3*%
X238633000Y-40385000D03*
X238633000Y-37085000D03*
%TD*%
%TO.C,D26*%
X185515250Y-72770000D03*
X185515250Y-69470000D03*
%TD*%
%TO.C,D2*%
X243967000Y-40385000D03*
X243967000Y-37085000D03*
%TD*%
%TO.C,D41*%
X235521500Y-110870000D03*
X235521500Y-107570000D03*
%TD*%
%TO.C,D32*%
X100044250Y-92328000D03*
X100044250Y-89028000D03*
%TD*%
%TO.C,D16*%
X199802750Y-53720000D03*
X199802750Y-50420000D03*
%TD*%
%TO.C,D43*%
X152146000Y-116331000D03*
X152146000Y-113031000D03*
%TD*%
%TO.C,D37*%
X214090250Y-91820000D03*
X214090250Y-88520000D03*
%TD*%
%TO.C,D22*%
X90519250Y-73278000D03*
X90519250Y-69978000D03*
%TD*%
%TO.C,D0*%
X204565250Y-29907500D03*
X204565250Y-26607500D03*
%TD*%
%TO.C,D13*%
X123856750Y-54228000D03*
X123856750Y-50928000D03*
%TD*%
%TO.C,D38*%
X233140250Y-91820000D03*
X233140250Y-88520000D03*
%TD*%
D19*
%TO.C,R3*%
X142812000Y-19558000D03*
X144462000Y-19558000D03*
%TD*%
D27*
%TO.C,D29*%
X254571500Y-72770000D03*
X254571500Y-69470000D03*
%TD*%
M02*
