M48
; DRILL file {KiCad (6.0.4)} date Thu Apr 28 10:57:54 2022
; FORMAT={-:-/ absolute / inch / decimal}
; #@! TF.CreationDate,2022-04-28T10:57:54-05:00
; #@! TF.GenerationSoftware,Kicad,Pcbnew,(6.0.4)
; #@! TF.FileFunction,Plated,1,2,PTH
FMAT,2
INCH
; #@! TA.AperFunction,Plated,PTH,ViaDrill
T1C0.0157
; #@! TA.AperFunction,Plated,PTH,ComponentDrill
T2C0.0579
%
G90
G05
T1
X1.15Y-0.875
X1.81Y-0.91
X2.535Y-0.955
X3.285Y-0.95
X4.045Y-0.955
X4.671Y-1.348
X4.86Y-1.04
X4.902Y-1.151
X4.904Y-0.977
X4.915Y-1.515
X5.11Y-0.805
X5.11Y-1.73
X5.2Y-2.2
X5.2176Y-1.7651
X5.2572Y-1.7642
X5.26Y-2.94
X5.2967Y-1.7633
X5.3364Y-1.7649
X5.3764Y-1.7661
X5.41Y-1.6989
X5.47Y-1.73
X5.495Y-0.92
X5.56Y-3.689
X5.63Y-1.53
X5.635Y-1.765
X5.6679Y-1.4868
X5.67Y-1.7364
X5.698Y-1.4615
X5.71Y-1.71
X5.7296Y-1.438
X5.75Y-1.69
X5.7607Y-1.4094
X5.8Y-1.675
X5.8275Y-1.1445
X5.95Y-1.245
X5.965Y-1.145
X6.067Y-4.431
X6.095Y-1.215
X6.11Y-1.135
X6.185Y-1.125
X6.205Y-0.935
X6.2291Y-1.3991
X6.23Y-1.265
X6.415Y-1.775
X6.58Y-1.045
X6.58Y-1.125
X6.73Y-1.125
X8.09Y-0.88
X8.905Y-0.87
X9.465Y-0.875
X9.76Y-0.885
T2
X1.1625Y-1.9625
X1.2562Y-2.7125
X1.2562Y-4.2125
X1.4125Y-1.8625
X1.4437Y-3.4625
X1.5062Y-2.6125
X1.5062Y-4.1125
X1.6937Y-3.3625
X1.725Y-1.2125
X1.975Y-1.1125
X2.1Y-1.9625
X2.1938Y-4.2125
X2.2875Y-2.7125
X2.35Y-1.8625
X2.4438Y-4.1125
X2.475Y-1.2125
X2.5375Y-2.6125
X2.6625Y-3.4625
X2.725Y-1.1125
X2.85Y-1.9625
X2.9125Y-3.3625
X3.0375Y-2.7125
X3.1Y-1.8625
X3.225Y-1.2125
X3.2875Y-2.6125
X3.4125Y-3.4625
X3.475Y-1.1125
X3.6Y-1.9625
X3.6625Y-3.3625
X3.7875Y-2.7125
X3.85Y-1.8625
X3.975Y-1.2125
X4.0375Y-2.6125
X4.1625Y-3.4625
X4.225Y-1.1125
X4.35Y-1.9625
X4.4125Y-3.3625
X4.5375Y-2.7125
X4.6Y-1.8625
X4.7875Y-2.6125
X4.9125Y-3.4625
X5.1625Y-3.3625
X5.475Y-4.4
X5.725Y-4.3
X5.85Y-1.9625
X6.0375Y-2.7125
X6.1Y-1.8625
X6.2875Y-2.6125
X6.4125Y-3.4625
X6.6Y-1.9625
X6.6625Y-3.3625
X6.7875Y-2.7125
X6.85Y-1.8625
X7.0375Y-2.6125
X7.1625Y-3.4625
X7.35Y-1.9625
X7.4125Y-3.3625
X7.5375Y-1.025
X7.5375Y-2.7125
X7.6Y-1.8625
X7.7875Y-0.925
X7.7875Y-2.6125
X7.9125Y-3.4625
X8.1Y-1.9625
X8.1625Y-3.3625
X8.2875Y-1.025
X8.2875Y-2.7125
X8.35Y-1.8625
X8.5375Y-0.925
X8.5375Y-2.6125
X8.6625Y-3.4625
X8.7562Y-4.2125
X8.85Y-1.9625
X8.9125Y-3.3625
X9.0062Y-4.1125
X9.0375Y-1.025
X9.1Y-1.8625
X9.2875Y-0.925
X9.4125Y-1.025
X9.5062Y-2.7125
X9.6625Y-0.925
X9.6937Y-3.4625
X9.6937Y-4.2125
X9.7562Y-2.6125
X9.7875Y-1.025
X9.7875Y-1.9625
X9.9437Y-3.3625
X9.9437Y-4.1125
X10.0375Y-0.925
X10.0375Y-1.8625
T0
M30
