%TF.GenerationSoftware,KiCad,Pcbnew,(6.0.4)*%
%TF.CreationDate,2022-04-28T10:57:54-05:00*%
%TF.ProjectId,keyboard,6b657962-6f61-4726-942e-6b696361645f,rev?*%
%TF.SameCoordinates,Original*%
%TF.FileFunction,Soldermask,Bot*%
%TF.FilePolarity,Negative*%
%FSLAX46Y46*%
G04 Gerber Fmt 4.6, Leading zero omitted, Abs format (unit mm)*
G04 Created by KiCad (PCBNEW (6.0.4)) date 2022-04-28 10:57:54*
%MOMM*%
%LPD*%
G01*
G04 APERTURE LIST*
G04 Aperture macros list*
%AMRoundRect*
0 Rectangle with rounded corners*
0 $1 Rounding radius*
0 $2 $3 $4 $5 $6 $7 $8 $9 X,Y pos of 4 corners*
0 Add a 4 corners polygon primitive as box body*
4,1,4,$2,$3,$4,$5,$6,$7,$8,$9,$2,$3,0*
0 Add four circle primitives for the rounded corners*
1,1,$1+$1,$2,$3*
1,1,$1+$1,$4,$5*
1,1,$1+$1,$6,$7*
1,1,$1+$1,$8,$9*
0 Add four rect primitives between the rounded corners*
20,1,$1+$1,$2,$3,$4,$5,0*
20,1,$1+$1,$4,$5,$6,$7,0*
20,1,$1+$1,$6,$7,$8,$9,0*
20,1,$1+$1,$8,$9,$2,$3,0*%
G04 Aperture macros list end*
%ADD10C,0.150000*%
%ADD11C,3.987800*%
%ADD12C,1.750000*%
%ADD13C,2.250000*%
%ADD14C,3.048000*%
%ADD15RoundRect,0.062500X-0.062500X0.475000X-0.062500X-0.475000X0.062500X-0.475000X0.062500X0.475000X0*%
%ADD16RoundRect,0.062500X-0.475000X0.062500X-0.475000X-0.062500X0.475000X-0.062500X0.475000X0.062500X0*%
%ADD17R,5.200000X5.200000*%
%ADD18RoundRect,0.200000X-0.200000X-0.275000X0.200000X-0.275000X0.200000X0.275000X-0.200000X0.275000X0*%
%ADD19RoundRect,0.200000X0.275000X-0.200000X0.275000X0.200000X-0.275000X0.200000X-0.275000X-0.200000X0*%
%ADD20R,1.800000X1.100000*%
%ADD21RoundRect,0.225000X-0.225000X-0.250000X0.225000X-0.250000X0.225000X0.250000X-0.225000X0.250000X0*%
%ADD22RoundRect,0.225000X0.225000X0.250000X-0.225000X0.250000X-0.225000X-0.250000X0.225000X-0.250000X0*%
%ADD23RoundRect,0.225000X0.250000X-0.225000X0.250000X0.225000X-0.250000X0.225000X-0.250000X-0.225000X0*%
%ADD24RoundRect,0.225000X-0.250000X0.225000X-0.250000X-0.225000X0.250000X-0.225000X0.250000X0.225000X0*%
%ADD25R,1.200000X1.400000*%
%ADD26R,1.200000X0.900000*%
%ADD27R,1.000000X0.700000*%
%ADD28R,0.600000X0.700000*%
%ADD29R,0.550000X1.500000*%
%ADD30R,1.500000X0.550000*%
%ADD31RoundRect,0.250000X-0.375000X-0.625000X0.375000X-0.625000X0.375000X0.625000X-0.375000X0.625000X0*%
%ADD32RoundRect,0.150000X-0.625000X0.150000X-0.625000X-0.150000X0.625000X-0.150000X0.625000X0.150000X0*%
%ADD33RoundRect,0.250000X-0.650000X0.350000X-0.650000X-0.350000X0.650000X-0.350000X0.650000X0.350000X0*%
G04 APERTURE END LIST*
D10*
X106290238Y-107552380D02*
X106290238Y-106552380D01*
X106052142Y-106552380D01*
X105909285Y-106600000D01*
X105814047Y-106695238D01*
X105766428Y-106790476D01*
X105718809Y-106980952D01*
X105718809Y-107123809D01*
X105766428Y-107314285D01*
X105814047Y-107409523D01*
X105909285Y-107504761D01*
X106052142Y-107552380D01*
X106290238Y-107552380D01*
X104909285Y-107504761D02*
X105004523Y-107552380D01*
X105195000Y-107552380D01*
X105290238Y-107504761D01*
X105337857Y-107409523D01*
X105337857Y-107028571D01*
X105290238Y-106933333D01*
X105195000Y-106885714D01*
X105004523Y-106885714D01*
X104909285Y-106933333D01*
X104861666Y-107028571D01*
X104861666Y-107123809D01*
X105337857Y-107219047D01*
X104480714Y-107504761D02*
X104385476Y-107552380D01*
X104195000Y-107552380D01*
X104099761Y-107504761D01*
X104052142Y-107409523D01*
X104052142Y-107361904D01*
X104099761Y-107266666D01*
X104195000Y-107219047D01*
X104337857Y-107219047D01*
X104433095Y-107171428D01*
X104480714Y-107076190D01*
X104480714Y-107028571D01*
X104433095Y-106933333D01*
X104337857Y-106885714D01*
X104195000Y-106885714D01*
X104099761Y-106933333D01*
X103623571Y-107552380D02*
X103623571Y-106885714D01*
X103623571Y-106552380D02*
X103671190Y-106600000D01*
X103623571Y-106647619D01*
X103575952Y-106600000D01*
X103623571Y-106552380D01*
X103623571Y-106647619D01*
X102718809Y-106885714D02*
X102718809Y-107695238D01*
X102766428Y-107790476D01*
X102814047Y-107838095D01*
X102909285Y-107885714D01*
X103052142Y-107885714D01*
X103147380Y-107838095D01*
X102718809Y-107504761D02*
X102814047Y-107552380D01*
X103004523Y-107552380D01*
X103099761Y-107504761D01*
X103147380Y-107457142D01*
X103195000Y-107361904D01*
X103195000Y-107076190D01*
X103147380Y-106980952D01*
X103099761Y-106933333D01*
X103004523Y-106885714D01*
X102814047Y-106885714D01*
X102718809Y-106933333D01*
X102242619Y-106885714D02*
X102242619Y-107552380D01*
X102242619Y-106980952D02*
X102195000Y-106933333D01*
X102099761Y-106885714D01*
X101956904Y-106885714D01*
X101861666Y-106933333D01*
X101814047Y-107028571D01*
X101814047Y-107552380D01*
X100956904Y-107504761D02*
X101052142Y-107552380D01*
X101242619Y-107552380D01*
X101337857Y-107504761D01*
X101385476Y-107409523D01*
X101385476Y-107028571D01*
X101337857Y-106933333D01*
X101242619Y-106885714D01*
X101052142Y-106885714D01*
X100956904Y-106933333D01*
X100909285Y-107028571D01*
X100909285Y-107123809D01*
X101385476Y-107219047D01*
X100052142Y-107552380D02*
X100052142Y-106552380D01*
X100052142Y-107504761D02*
X100147380Y-107552380D01*
X100337857Y-107552380D01*
X100433095Y-107504761D01*
X100480714Y-107457142D01*
X100528333Y-107361904D01*
X100528333Y-107076190D01*
X100480714Y-106980952D01*
X100433095Y-106933333D01*
X100337857Y-106885714D01*
X100147380Y-106885714D01*
X100052142Y-106933333D01*
X98814047Y-107552380D02*
X98814047Y-106552380D01*
X98814047Y-106933333D02*
X98718809Y-106885714D01*
X98528333Y-106885714D01*
X98433095Y-106933333D01*
X98385476Y-106980952D01*
X98337857Y-107076190D01*
X98337857Y-107361904D01*
X98385476Y-107457142D01*
X98433095Y-107504761D01*
X98528333Y-107552380D01*
X98718809Y-107552380D01*
X98814047Y-107504761D01*
X98004523Y-106885714D02*
X97766428Y-107552380D01*
X97528333Y-106885714D02*
X97766428Y-107552380D01*
X97861666Y-107790476D01*
X97909285Y-107838095D01*
X98004523Y-107885714D01*
X96385476Y-107552380D02*
X96385476Y-106552380D01*
X96052142Y-107266666D01*
X95718809Y-106552380D01*
X95718809Y-107552380D01*
X94814047Y-107552380D02*
X94814047Y-107028571D01*
X94861666Y-106933333D01*
X94956904Y-106885714D01*
X95147380Y-106885714D01*
X95242619Y-106933333D01*
X94814047Y-107504761D02*
X94909285Y-107552380D01*
X95147380Y-107552380D01*
X95242619Y-107504761D01*
X95290238Y-107409523D01*
X95290238Y-107314285D01*
X95242619Y-107219047D01*
X95147380Y-107171428D01*
X94909285Y-107171428D01*
X94814047Y-107123809D01*
X93909285Y-107504761D02*
X94004523Y-107552380D01*
X94195000Y-107552380D01*
X94290238Y-107504761D01*
X94337857Y-107457142D01*
X94385476Y-107361904D01*
X94385476Y-107076190D01*
X94337857Y-106980952D01*
X94290238Y-106933333D01*
X94195000Y-106885714D01*
X94004523Y-106885714D01*
X93909285Y-106933333D01*
X93099761Y-107504761D02*
X93195000Y-107552380D01*
X93385476Y-107552380D01*
X93480714Y-107504761D01*
X93528333Y-107409523D01*
X93528333Y-107028571D01*
X93480714Y-106933333D01*
X93385476Y-106885714D01*
X93195000Y-106885714D01*
X93099761Y-106933333D01*
X93052142Y-107028571D01*
X93052142Y-107123809D01*
X93528333Y-107219047D01*
X107671190Y-109772380D02*
X107099761Y-109772380D01*
X107385476Y-110772380D02*
X107385476Y-109772380D01*
X106766428Y-110772380D02*
X106766428Y-110105714D01*
X106766428Y-109772380D02*
X106814047Y-109820000D01*
X106766428Y-109867619D01*
X106718809Y-109820000D01*
X106766428Y-109772380D01*
X106766428Y-109867619D01*
X106290238Y-110105714D02*
X106290238Y-110772380D01*
X106290238Y-110200952D02*
X106242619Y-110153333D01*
X106147380Y-110105714D01*
X106004523Y-110105714D01*
X105909285Y-110153333D01*
X105861666Y-110248571D01*
X105861666Y-110772380D01*
X105480714Y-110105714D02*
X105242619Y-110772380D01*
X105004523Y-110105714D02*
X105242619Y-110772380D01*
X105337857Y-111010476D01*
X105385476Y-111058095D01*
X105480714Y-111105714D01*
X103528333Y-110248571D02*
X103385476Y-110296190D01*
X103337857Y-110343809D01*
X103290238Y-110439047D01*
X103290238Y-110581904D01*
X103337857Y-110677142D01*
X103385476Y-110724761D01*
X103480714Y-110772380D01*
X103861666Y-110772380D01*
X103861666Y-109772380D01*
X103528333Y-109772380D01*
X103433095Y-109820000D01*
X103385476Y-109867619D01*
X103337857Y-109962857D01*
X103337857Y-110058095D01*
X103385476Y-110153333D01*
X103433095Y-110200952D01*
X103528333Y-110248571D01*
X103861666Y-110248571D01*
X102718809Y-110772380D02*
X102814047Y-110724761D01*
X102861666Y-110677142D01*
X102909285Y-110581904D01*
X102909285Y-110296190D01*
X102861666Y-110200952D01*
X102814047Y-110153333D01*
X102718809Y-110105714D01*
X102575952Y-110105714D01*
X102480714Y-110153333D01*
X102433095Y-110200952D01*
X102385476Y-110296190D01*
X102385476Y-110581904D01*
X102433095Y-110677142D01*
X102480714Y-110724761D01*
X102575952Y-110772380D01*
X102718809Y-110772380D01*
X101528333Y-110772380D02*
X101528333Y-110248571D01*
X101575952Y-110153333D01*
X101671190Y-110105714D01*
X101861666Y-110105714D01*
X101956904Y-110153333D01*
X101528333Y-110724761D02*
X101623571Y-110772380D01*
X101861666Y-110772380D01*
X101956904Y-110724761D01*
X102004523Y-110629523D01*
X102004523Y-110534285D01*
X101956904Y-110439047D01*
X101861666Y-110391428D01*
X101623571Y-110391428D01*
X101528333Y-110343809D01*
X101052142Y-110772380D02*
X101052142Y-110105714D01*
X101052142Y-110296190D02*
X101004523Y-110200952D01*
X100956904Y-110153333D01*
X100861666Y-110105714D01*
X100766428Y-110105714D01*
X100004523Y-110772380D02*
X100004523Y-109772380D01*
X100004523Y-110724761D02*
X100099761Y-110772380D01*
X100290238Y-110772380D01*
X100385476Y-110724761D01*
X100433095Y-110677142D01*
X100480714Y-110581904D01*
X100480714Y-110296190D01*
X100433095Y-110200952D01*
X100385476Y-110153333D01*
X100290238Y-110105714D01*
X100099761Y-110105714D01*
X100004523Y-110153333D01*
X99480714Y-110724761D02*
X99480714Y-110772380D01*
X99528333Y-110867619D01*
X99575952Y-110915238D01*
X97956904Y-110248571D02*
X97814047Y-110296190D01*
X97766428Y-110343809D01*
X97718809Y-110439047D01*
X97718809Y-110581904D01*
X97766428Y-110677142D01*
X97814047Y-110724761D01*
X97909285Y-110772380D01*
X98290238Y-110772380D01*
X98290238Y-109772380D01*
X97956904Y-109772380D01*
X97861666Y-109820000D01*
X97814047Y-109867619D01*
X97766428Y-109962857D01*
X97766428Y-110058095D01*
X97814047Y-110153333D01*
X97861666Y-110200952D01*
X97956904Y-110248571D01*
X98290238Y-110248571D01*
X97290238Y-110772380D02*
X97290238Y-110105714D01*
X97290238Y-109772380D02*
X97337857Y-109820000D01*
X97290238Y-109867619D01*
X97242619Y-109820000D01*
X97290238Y-109772380D01*
X97290238Y-109867619D01*
X96385476Y-110105714D02*
X96385476Y-110915238D01*
X96433095Y-111010476D01*
X96480714Y-111058095D01*
X96575952Y-111105714D01*
X96718809Y-111105714D01*
X96814047Y-111058095D01*
X96385476Y-110724761D02*
X96480714Y-110772380D01*
X96671190Y-110772380D01*
X96766428Y-110724761D01*
X96814047Y-110677142D01*
X96861666Y-110581904D01*
X96861666Y-110296190D01*
X96814047Y-110200952D01*
X96766428Y-110153333D01*
X96671190Y-110105714D01*
X96480714Y-110105714D01*
X96385476Y-110153333D01*
X95147380Y-110772380D02*
X95147380Y-109772380D01*
X94814047Y-110486666D01*
X94480714Y-109772380D01*
X94480714Y-110772380D01*
X93861666Y-110772380D02*
X93956904Y-110724761D01*
X94004523Y-110677142D01*
X94052142Y-110581904D01*
X94052142Y-110296190D01*
X94004523Y-110200952D01*
X93956904Y-110153333D01*
X93861666Y-110105714D01*
X93718809Y-110105714D01*
X93623571Y-110153333D01*
X93575952Y-110200952D01*
X93528333Y-110296190D01*
X93528333Y-110581904D01*
X93575952Y-110677142D01*
X93623571Y-110724761D01*
X93718809Y-110772380D01*
X93861666Y-110772380D01*
X92671190Y-110772380D02*
X92671190Y-109772380D01*
X92671190Y-110724761D02*
X92766428Y-110772380D01*
X92956904Y-110772380D01*
X93052142Y-110724761D01*
X93099761Y-110677142D01*
X93147380Y-110581904D01*
X93147380Y-110296190D01*
X93099761Y-110200952D01*
X93052142Y-110153333D01*
X92956904Y-110105714D01*
X92766428Y-110105714D01*
X92671190Y-110153333D01*
X92242619Y-110724761D02*
X92147380Y-110772380D01*
X91956904Y-110772380D01*
X91861666Y-110724761D01*
X91814047Y-110629523D01*
X91814047Y-110581904D01*
X91861666Y-110486666D01*
X91956904Y-110439047D01*
X92099761Y-110439047D01*
X92195000Y-110391428D01*
X92242619Y-110296190D01*
X92242619Y-110248571D01*
X92195000Y-110153333D01*
X92099761Y-110105714D01*
X91956904Y-110105714D01*
X91861666Y-110153333D01*
X104028333Y-113992380D02*
X104028333Y-112992380D01*
X103552142Y-113325714D02*
X103552142Y-113992380D01*
X103552142Y-113420952D02*
X103504523Y-113373333D01*
X103409285Y-113325714D01*
X103266428Y-113325714D01*
X103171190Y-113373333D01*
X103123571Y-113468571D01*
X103123571Y-113992380D01*
X102695000Y-113944761D02*
X102599761Y-113992380D01*
X102409285Y-113992380D01*
X102314047Y-113944761D01*
X102266428Y-113849523D01*
X102266428Y-113801904D01*
X102314047Y-113706666D01*
X102409285Y-113659047D01*
X102552142Y-113659047D01*
X102647380Y-113611428D01*
X102695000Y-113516190D01*
X102695000Y-113468571D01*
X102647380Y-113373333D01*
X102552142Y-113325714D01*
X102409285Y-113325714D01*
X102314047Y-113373333D01*
X101837857Y-113325714D02*
X101837857Y-114325714D01*
X101837857Y-113373333D02*
X101742619Y-113325714D01*
X101552142Y-113325714D01*
X101456904Y-113373333D01*
X101409285Y-113420952D01*
X101361666Y-113516190D01*
X101361666Y-113801904D01*
X101409285Y-113897142D01*
X101456904Y-113944761D01*
X101552142Y-113992380D01*
X101742619Y-113992380D01*
X101837857Y-113944761D01*
X100933095Y-113992380D02*
X100933095Y-113325714D01*
X100933095Y-112992380D02*
X100980714Y-113040000D01*
X100933095Y-113087619D01*
X100885476Y-113040000D01*
X100933095Y-112992380D01*
X100933095Y-113087619D01*
X100456904Y-113992380D02*
X100456904Y-113325714D01*
X100456904Y-113516190D02*
X100409285Y-113420952D01*
X100361666Y-113373333D01*
X100266428Y-113325714D01*
X100171190Y-113325714D01*
X99456904Y-113944761D02*
X99552142Y-113992380D01*
X99742619Y-113992380D01*
X99837857Y-113944761D01*
X99885476Y-113849523D01*
X99885476Y-113468571D01*
X99837857Y-113373333D01*
X99742619Y-113325714D01*
X99552142Y-113325714D01*
X99456904Y-113373333D01*
X99409285Y-113468571D01*
X99409285Y-113563809D01*
X99885476Y-113659047D01*
X98552142Y-113992380D02*
X98552142Y-112992380D01*
X98552142Y-113944761D02*
X98647380Y-113992380D01*
X98837857Y-113992380D01*
X98933095Y-113944761D01*
X98980714Y-113897142D01*
X99028333Y-113801904D01*
X99028333Y-113516190D01*
X98980714Y-113420952D01*
X98933095Y-113373333D01*
X98837857Y-113325714D01*
X98647380Y-113325714D01*
X98552142Y-113373333D01*
X97314047Y-113992380D02*
X97314047Y-112992380D01*
X97314047Y-113373333D02*
X97218809Y-113325714D01*
X97028333Y-113325714D01*
X96933095Y-113373333D01*
X96885476Y-113420952D01*
X96837857Y-113516190D01*
X96837857Y-113801904D01*
X96885476Y-113897142D01*
X96933095Y-113944761D01*
X97028333Y-113992380D01*
X97218809Y-113992380D01*
X97314047Y-113944761D01*
X96504523Y-113325714D02*
X96266428Y-113992380D01*
X96028333Y-113325714D02*
X96266428Y-113992380D01*
X96361666Y-114230476D01*
X96409285Y-114278095D01*
X96504523Y-114325714D01*
X109075952Y-115507142D02*
X109123571Y-115554761D01*
X109266428Y-115602380D01*
X109361666Y-115602380D01*
X109504523Y-115554761D01*
X109599761Y-115459523D01*
X109647380Y-115364285D01*
X109695000Y-115173809D01*
X109695000Y-115030952D01*
X109647380Y-114840476D01*
X109599761Y-114745238D01*
X109504523Y-114650000D01*
X109361666Y-114602380D01*
X109266428Y-114602380D01*
X109123571Y-114650000D01*
X109075952Y-114697619D01*
X108218809Y-115602380D02*
X108218809Y-115078571D01*
X108266428Y-114983333D01*
X108361666Y-114935714D01*
X108552142Y-114935714D01*
X108647380Y-114983333D01*
X108218809Y-115554761D02*
X108314047Y-115602380D01*
X108552142Y-115602380D01*
X108647380Y-115554761D01*
X108695000Y-115459523D01*
X108695000Y-115364285D01*
X108647380Y-115269047D01*
X108552142Y-115221428D01*
X108314047Y-115221428D01*
X108218809Y-115173809D01*
X107742619Y-115602380D02*
X107742619Y-114935714D01*
X107742619Y-114602380D02*
X107790238Y-114650000D01*
X107742619Y-114697619D01*
X107695000Y-114650000D01*
X107742619Y-114602380D01*
X107742619Y-114697619D01*
X107266428Y-114935714D02*
X107266428Y-115602380D01*
X107266428Y-115030952D02*
X107218809Y-114983333D01*
X107123571Y-114935714D01*
X106980714Y-114935714D01*
X106885476Y-114983333D01*
X106837857Y-115078571D01*
X106837857Y-115602380D01*
X106314047Y-115554761D02*
X106314047Y-115602380D01*
X106361666Y-115697619D01*
X106409285Y-115745238D01*
X105266428Y-114602380D02*
X104695000Y-114602380D01*
X104980714Y-115602380D02*
X104980714Y-114602380D01*
X104361666Y-115602380D02*
X104361666Y-114935714D01*
X104361666Y-115126190D02*
X104314047Y-115030952D01*
X104266428Y-114983333D01*
X104171190Y-114935714D01*
X104075952Y-114935714D01*
X103314047Y-115602380D02*
X103314047Y-115078571D01*
X103361666Y-114983333D01*
X103456904Y-114935714D01*
X103647380Y-114935714D01*
X103742619Y-114983333D01*
X103314047Y-115554761D02*
X103409285Y-115602380D01*
X103647380Y-115602380D01*
X103742619Y-115554761D01*
X103790238Y-115459523D01*
X103790238Y-115364285D01*
X103742619Y-115269047D01*
X103647380Y-115221428D01*
X103409285Y-115221428D01*
X103314047Y-115173809D01*
X102885476Y-115554761D02*
X102790238Y-115602380D01*
X102599761Y-115602380D01*
X102504523Y-115554761D01*
X102456904Y-115459523D01*
X102456904Y-115411904D01*
X102504523Y-115316666D01*
X102599761Y-115269047D01*
X102742619Y-115269047D01*
X102837857Y-115221428D01*
X102885476Y-115126190D01*
X102885476Y-115078571D01*
X102837857Y-114983333D01*
X102742619Y-114935714D01*
X102599761Y-114935714D01*
X102504523Y-114983333D01*
X102028333Y-115602380D02*
X102028333Y-114602380D01*
X101599761Y-115602380D02*
X101599761Y-115078571D01*
X101647380Y-114983333D01*
X101742619Y-114935714D01*
X101885476Y-114935714D01*
X101980714Y-114983333D01*
X102028333Y-115030952D01*
X100361666Y-115602380D02*
X100361666Y-114602380D01*
X100028333Y-115316666D01*
X99695000Y-114602380D01*
X99695000Y-115602380D01*
X98790238Y-115602380D02*
X98790238Y-115078571D01*
X98837857Y-114983333D01*
X98933095Y-114935714D01*
X99123571Y-114935714D01*
X99218809Y-114983333D01*
X98790238Y-115554761D02*
X98885476Y-115602380D01*
X99123571Y-115602380D01*
X99218809Y-115554761D01*
X99266428Y-115459523D01*
X99266428Y-115364285D01*
X99218809Y-115269047D01*
X99123571Y-115221428D01*
X98885476Y-115221428D01*
X98790238Y-115173809D01*
X98314047Y-114935714D02*
X98314047Y-115602380D01*
X98314047Y-115030952D02*
X98266428Y-114983333D01*
X98171190Y-114935714D01*
X98028333Y-114935714D01*
X97933095Y-114983333D01*
X97885476Y-115078571D01*
X97885476Y-115602380D01*
X97361666Y-115554761D02*
X97361666Y-115602380D01*
X97409285Y-115697619D01*
X97456904Y-115745238D01*
X95742619Y-115602380D02*
X95742619Y-115078571D01*
X95790238Y-114983333D01*
X95885476Y-114935714D01*
X96075952Y-114935714D01*
X96171190Y-114983333D01*
X95742619Y-115554761D02*
X95837857Y-115602380D01*
X96075952Y-115602380D01*
X96171190Y-115554761D01*
X96218809Y-115459523D01*
X96218809Y-115364285D01*
X96171190Y-115269047D01*
X96075952Y-115221428D01*
X95837857Y-115221428D01*
X95742619Y-115173809D01*
X95266428Y-114935714D02*
X95266428Y-115602380D01*
X95266428Y-115030952D02*
X95218809Y-114983333D01*
X95123571Y-114935714D01*
X94980714Y-114935714D01*
X94885476Y-114983333D01*
X94837857Y-115078571D01*
X94837857Y-115602380D01*
X93933095Y-115602380D02*
X93933095Y-114602380D01*
X93933095Y-115554761D02*
X94028333Y-115602380D01*
X94218809Y-115602380D01*
X94314047Y-115554761D01*
X94361666Y-115507142D01*
X94409285Y-115411904D01*
X94409285Y-115126190D01*
X94361666Y-115030952D01*
X94314047Y-114983333D01*
X94218809Y-114935714D01*
X94028333Y-114935714D01*
X93933095Y-114983333D01*
X92695000Y-115602380D02*
X92695000Y-114602380D01*
X92123571Y-115602380D02*
X92552142Y-115030952D01*
X92123571Y-114602380D02*
X92695000Y-115173809D01*
X91266428Y-114935714D02*
X91266428Y-115602380D01*
X91695000Y-114935714D02*
X91695000Y-115459523D01*
X91647380Y-115554761D01*
X91552142Y-115602380D01*
X91409285Y-115602380D01*
X91314047Y-115554761D01*
X91266428Y-115507142D01*
X90790238Y-115602380D02*
X90790238Y-114935714D01*
X90790238Y-115126190D02*
X90742619Y-115030952D01*
X90695000Y-114983333D01*
X90599761Y-114935714D01*
X90504523Y-114935714D01*
X90028333Y-115602380D02*
X90123571Y-115554761D01*
X90171190Y-115507142D01*
X90218809Y-115411904D01*
X90218809Y-115126190D01*
X90171190Y-115030952D01*
X90123571Y-114983333D01*
X90028333Y-114935714D01*
X89885476Y-114935714D01*
X89790238Y-114983333D01*
X89742619Y-115030952D01*
X89695000Y-115126190D01*
X89695000Y-115411904D01*
X89742619Y-115507142D01*
X89790238Y-115554761D01*
X89885476Y-115602380D01*
X90028333Y-115602380D01*
D11*
%TO.C,K9*%
X33337500Y-52387500D03*
D12*
X38417500Y-52387500D03*
X28257500Y-52387500D03*
D13*
X29527500Y-49847500D03*
X35877500Y-47307500D03*
%TD*%
D12*
%TO.C,K11*%
X71120000Y-52387500D03*
X81280000Y-52387500D03*
D11*
X76200000Y-52387500D03*
D13*
X72390000Y-49847500D03*
X78740000Y-47307500D03*
%TD*%
D12*
%TO.C,K1*%
X209232500Y-28575000D03*
D11*
X214312500Y-28575000D03*
D12*
X219392500Y-28575000D03*
D13*
X210502500Y-26035000D03*
X216852500Y-23495000D03*
%TD*%
D12*
%TO.C,K35*%
X161607500Y-90487500D03*
D11*
X166687500Y-90487500D03*
D12*
X171767500Y-90487500D03*
D13*
X162877500Y-87947500D03*
X169227500Y-85407500D03*
%TD*%
D12*
%TO.C,K37*%
X199707500Y-90487500D03*
D11*
X204787500Y-90487500D03*
D12*
X209867500Y-90487500D03*
D13*
X200977500Y-87947500D03*
X207327500Y-85407500D03*
%TD*%
D11*
%TO.C,K24*%
X119062500Y-71437500D03*
D12*
X124142500Y-71437500D03*
X113982500Y-71437500D03*
D13*
X115252500Y-68897500D03*
X121602500Y-66357500D03*
%TD*%
D14*
%TO.C,K30*%
X28575000Y-83502500D03*
D12*
X35401250Y-90487500D03*
D14*
X52387500Y-83502500D03*
D12*
X45561250Y-90487500D03*
D11*
X52387500Y-98742500D03*
X28575000Y-98742500D03*
X40481250Y-90487500D03*
D13*
X36671250Y-87947500D03*
X43021250Y-85407500D03*
%TD*%
D11*
%TO.C,K42*%
X250031250Y-109537500D03*
D12*
X255111250Y-109537500D03*
X244951250Y-109537500D03*
D13*
X246221250Y-106997500D03*
X252571250Y-104457500D03*
%TD*%
D11*
%TO.C,K26*%
X176212500Y-71437500D03*
D12*
X171132500Y-71437500D03*
X181292500Y-71437500D03*
D13*
X172402500Y-68897500D03*
X178752500Y-66357500D03*
%TD*%
D11*
%TO.C,K17*%
X209550000Y-52387500D03*
D12*
X204470000Y-52387500D03*
X214630000Y-52387500D03*
D13*
X205740000Y-49847500D03*
X212090000Y-47307500D03*
%TD*%
D12*
%TO.C,K33*%
X114617500Y-90487500D03*
D11*
X109537500Y-90487500D03*
D12*
X104457500Y-90487500D03*
D13*
X105727500Y-87947500D03*
X112077500Y-85407500D03*
%TD*%
D12*
%TO.C,K39*%
X30638750Y-109537500D03*
X40798750Y-109537500D03*
D11*
X35718750Y-109537500D03*
D13*
X31908750Y-106997500D03*
X38258750Y-104457500D03*
%TD*%
D11*
%TO.C,K6*%
X66675000Y-33337500D03*
D12*
X61595000Y-33337500D03*
X71755000Y-33337500D03*
D13*
X62865000Y-30797500D03*
X69215000Y-28257500D03*
%TD*%
D12*
%TO.C,K43*%
X147955000Y-114300000D03*
D11*
X85725000Y-122555000D03*
D14*
X85725000Y-107315000D03*
D11*
X200025000Y-122555000D03*
X142875000Y-114300000D03*
D14*
X200025000Y-107315000D03*
D12*
X137795000Y-114300000D03*
D13*
X139065000Y-111760000D03*
X145415000Y-109220000D03*
%TD*%
D12*
%TO.C,K44*%
X255111250Y-90487500D03*
X244951250Y-90487500D03*
D11*
X250031250Y-90487500D03*
D13*
X246221250Y-87947500D03*
X252571250Y-85407500D03*
%TD*%
D12*
%TO.C,K32*%
X85407500Y-90487500D03*
D11*
X90487500Y-90487500D03*
D12*
X95567500Y-90487500D03*
D13*
X86677500Y-87947500D03*
X93027500Y-85407500D03*
%TD*%
D12*
%TO.C,K16*%
X195580000Y-52387500D03*
X185420000Y-52387500D03*
D11*
X190500000Y-52387500D03*
D13*
X186690000Y-49847500D03*
X193040000Y-47307500D03*
%TD*%
D12*
%TO.C,K4*%
X257492500Y-28575000D03*
D11*
X252412500Y-28575000D03*
D12*
X247332500Y-28575000D03*
D13*
X248602500Y-26035000D03*
X254952500Y-23495000D03*
%TD*%
D14*
%TO.C,K29*%
X257175000Y-64452500D03*
D12*
X250348750Y-71437500D03*
X240188750Y-71437500D03*
D11*
X245268750Y-71437500D03*
X233362500Y-79692500D03*
D14*
X233362500Y-64452500D03*
D11*
X257175000Y-79692500D03*
D13*
X241458750Y-68897500D03*
X247808750Y-66357500D03*
%TD*%
D11*
%TO.C,K21*%
X61912500Y-71437500D03*
D12*
X66992500Y-71437500D03*
X56832500Y-71437500D03*
D13*
X58102500Y-68897500D03*
X64452500Y-66357500D03*
%TD*%
D11*
%TO.C,K3*%
X233362500Y-28575000D03*
D12*
X228282500Y-28575000D03*
X238442500Y-28575000D03*
D13*
X229552500Y-26035000D03*
X235902500Y-23495000D03*
%TD*%
D12*
%TO.C,K27*%
X190182500Y-71437500D03*
X200342500Y-71437500D03*
D11*
X195262500Y-71437500D03*
D13*
X191452500Y-68897500D03*
X197802500Y-66357500D03*
%TD*%
D12*
%TO.C,K34*%
X133667500Y-90487500D03*
X123507500Y-90487500D03*
D11*
X128587500Y-90487500D03*
D13*
X124777500Y-87947500D03*
X131127500Y-85407500D03*
%TD*%
D12*
%TO.C,K15*%
X166370000Y-52387500D03*
D11*
X171450000Y-52387500D03*
D12*
X176530000Y-52387500D03*
D13*
X167640000Y-49847500D03*
X173990000Y-47307500D03*
%TD*%
D11*
%TO.C,K12*%
X95250000Y-52387500D03*
D12*
X90170000Y-52387500D03*
X100330000Y-52387500D03*
D13*
X91440000Y-49847500D03*
X97790000Y-47307500D03*
%TD*%
D11*
%TO.C,K19*%
X252412500Y-52387500D03*
D12*
X257492500Y-52387500D03*
X247332500Y-52387500D03*
D13*
X248602500Y-49847500D03*
X254952500Y-47307500D03*
%TD*%
D11*
%TO.C,K40*%
X59531250Y-109537500D03*
D12*
X54451250Y-109537500D03*
X64611250Y-109537500D03*
D13*
X55721250Y-106997500D03*
X62071250Y-104457500D03*
%TD*%
D12*
%TO.C,K13*%
X109220000Y-52387500D03*
X119380000Y-52387500D03*
D11*
X114300000Y-52387500D03*
D13*
X110490000Y-49847500D03*
X116840000Y-47307500D03*
%TD*%
D12*
%TO.C,K36*%
X190817500Y-90487500D03*
X180657500Y-90487500D03*
D11*
X185737500Y-90487500D03*
D13*
X181927500Y-87947500D03*
X188277500Y-85407500D03*
%TD*%
D12*
%TO.C,K0*%
X200342500Y-28575000D03*
D11*
X195262500Y-28575000D03*
D12*
X190182500Y-28575000D03*
D13*
X191452500Y-26035000D03*
X197802500Y-23495000D03*
%TD*%
D12*
%TO.C,K18*%
X233680000Y-52387500D03*
D11*
X228600000Y-52387500D03*
D12*
X223520000Y-52387500D03*
D13*
X224790000Y-49847500D03*
X231140000Y-47307500D03*
%TD*%
D11*
%TO.C,K25*%
X157162500Y-71437500D03*
D12*
X162242500Y-71437500D03*
X152082500Y-71437500D03*
D13*
X153352500Y-68897500D03*
X159702500Y-66357500D03*
%TD*%
D11*
%TO.C,K23*%
X100012500Y-71437500D03*
D12*
X94932500Y-71437500D03*
X105092500Y-71437500D03*
D13*
X96202500Y-68897500D03*
X102552500Y-66357500D03*
%TD*%
D11*
%TO.C,K38*%
X223837500Y-90487500D03*
D12*
X218757500Y-90487500D03*
X228917500Y-90487500D03*
D13*
X220027500Y-87947500D03*
X226377500Y-85407500D03*
%TD*%
D12*
%TO.C,K14*%
X147320000Y-52387500D03*
D11*
X152400000Y-52387500D03*
D12*
X157480000Y-52387500D03*
D13*
X148590000Y-49847500D03*
X154940000Y-47307500D03*
%TD*%
D12*
%TO.C,K31*%
X66357500Y-90487500D03*
X76517500Y-90487500D03*
D11*
X71437500Y-90487500D03*
D13*
X67627500Y-87947500D03*
X73977500Y-85407500D03*
%TD*%
D11*
%TO.C,K10*%
X57150000Y-52387500D03*
D12*
X52070000Y-52387500D03*
X62230000Y-52387500D03*
D13*
X53340000Y-49847500D03*
X59690000Y-47307500D03*
%TD*%
D14*
%TO.C,K2*%
X254825500Y-21590000D03*
D11*
X230949500Y-36830000D03*
D12*
X247967500Y-28575000D03*
D11*
X242887500Y-28575000D03*
X254825500Y-36830000D03*
D14*
X230949500Y-21590000D03*
D12*
X237807500Y-28575000D03*
D13*
X239077500Y-26035000D03*
X245427500Y-23495000D03*
%TD*%
D12*
%TO.C,K7*%
X90805000Y-33337500D03*
D11*
X85725000Y-33337500D03*
D12*
X80645000Y-33337500D03*
D13*
X81915000Y-30797500D03*
X88265000Y-28257500D03*
%TD*%
D12*
%TO.C,K20*%
X40798750Y-71437500D03*
X30638750Y-71437500D03*
D11*
X35718750Y-71437500D03*
D13*
X31908750Y-68897500D03*
X38258750Y-66357500D03*
%TD*%
D11*
%TO.C,K5*%
X47625000Y-33337500D03*
D12*
X52705000Y-33337500D03*
X42545000Y-33337500D03*
D13*
X43815000Y-30797500D03*
X50165000Y-28257500D03*
%TD*%
D11*
%TO.C,K28*%
X214312500Y-71437500D03*
D12*
X219392500Y-71437500D03*
X209232500Y-71437500D03*
D13*
X210502500Y-68897500D03*
X216852500Y-66357500D03*
%TD*%
D12*
%TO.C,K8*%
X109855000Y-33337500D03*
D11*
X104775000Y-33337500D03*
D12*
X99695000Y-33337500D03*
D13*
X100965000Y-30797500D03*
X107315000Y-28257500D03*
%TD*%
D12*
%TO.C,K41*%
X231298750Y-109537500D03*
D11*
X226218750Y-109537500D03*
D12*
X221138750Y-109537500D03*
D13*
X222408750Y-106997500D03*
X228758750Y-104457500D03*
%TD*%
D12*
%TO.C,K22*%
X75882500Y-71437500D03*
X86042500Y-71437500D03*
D11*
X80962500Y-71437500D03*
D13*
X77152500Y-68897500D03*
X83502500Y-66357500D03*
%TD*%
D15*
%TO.C,U1*%
X131597000Y-28427500D03*
X132097000Y-28427500D03*
X132597000Y-28427500D03*
X133097000Y-28427500D03*
X133597000Y-28427500D03*
X134097000Y-28427500D03*
X134597000Y-28427500D03*
X135097000Y-28427500D03*
X135597000Y-28427500D03*
X136097000Y-28427500D03*
X136597000Y-28427500D03*
D16*
X137434500Y-29265000D03*
X137434500Y-29765000D03*
X137434500Y-30265000D03*
X137434500Y-30765000D03*
X137434500Y-31265000D03*
X137434500Y-31765000D03*
X137434500Y-32265000D03*
X137434500Y-32765000D03*
X137434500Y-33265000D03*
X137434500Y-33765000D03*
X137434500Y-34265000D03*
D15*
X136597000Y-35102500D03*
X136097000Y-35102500D03*
X135597000Y-35102500D03*
X135097000Y-35102500D03*
X134597000Y-35102500D03*
X134097000Y-35102500D03*
X133597000Y-35102500D03*
X133097000Y-35102500D03*
X132597000Y-35102500D03*
X132097000Y-35102500D03*
X131597000Y-35102500D03*
D16*
X130759500Y-34265000D03*
X130759500Y-33765000D03*
X130759500Y-33265000D03*
X130759500Y-32765000D03*
X130759500Y-32265000D03*
X130759500Y-31765000D03*
X130759500Y-31265000D03*
X130759500Y-30765000D03*
X130759500Y-30265000D03*
X130759500Y-29765000D03*
X130759500Y-29265000D03*
D17*
X134097000Y-31765000D03*
%TD*%
D18*
%TO.C,R5*%
X126937000Y-39624000D03*
X128587000Y-39624000D03*
%TD*%
D19*
%TO.C,R6*%
X142367000Y-28511000D03*
X142367000Y-26861000D03*
%TD*%
D20*
%TO.C,SW1*%
X148157000Y-26869000D03*
X154357000Y-23169000D03*
X148157000Y-23169000D03*
X154357000Y-26869000D03*
%TD*%
D21*
%TO.C,C8*%
X149948600Y-40360600D03*
X151498600Y-40360600D03*
%TD*%
D22*
%TO.C,C5*%
X130721400Y-23393400D03*
X129171400Y-23393400D03*
%TD*%
D23*
%TO.C,C7*%
X135915400Y-23330200D03*
X135915400Y-21780200D03*
%TD*%
D24*
%TO.C,C4*%
X124587000Y-26403000D03*
X124587000Y-27953000D03*
%TD*%
D22*
%TO.C,C9*%
X151473200Y-33655000D03*
X149923200Y-33655000D03*
%TD*%
D23*
%TO.C,C6*%
X137693400Y-23330200D03*
X137693400Y-21780200D03*
%TD*%
D21*
%TO.C,C2*%
X137401000Y-41910000D03*
X138951000Y-41910000D03*
%TD*%
D23*
%TO.C,C3*%
X124968000Y-37097000D03*
X124968000Y-35547000D03*
%TD*%
D24*
%TO.C,C1*%
X146050000Y-29070000D03*
X146050000Y-30620000D03*
%TD*%
D25*
%TO.C,Y1*%
X149848200Y-38184000D03*
X149848200Y-35984000D03*
X151548200Y-35984000D03*
X151548200Y-38184000D03*
%TD*%
D26*
%TO.C,D40*%
X69088000Y-111378000D03*
X69088000Y-108078000D03*
%TD*%
%TO.C,D23*%
X109569250Y-73278000D03*
X109569250Y-69978000D03*
%TD*%
D27*
%TO.C,U2*%
X165088000Y-28559000D03*
D28*
X163388000Y-28559000D03*
X163388000Y-26559000D03*
X165288000Y-26559000D03*
%TD*%
D26*
%TO.C,D34*%
X138144250Y-92328000D03*
X138144250Y-89028000D03*
%TD*%
%TO.C,D17*%
X218852750Y-53720000D03*
X218852750Y-50420000D03*
%TD*%
%TO.C,D44*%
X259334000Y-91820000D03*
X259334000Y-88520000D03*
%TD*%
%TO.C,D18*%
X237902750Y-53720000D03*
X237902750Y-50420000D03*
%TD*%
%TO.C,D15*%
X180752750Y-53720000D03*
X180752750Y-50420000D03*
%TD*%
D29*
%TO.C,U3*%
X130097000Y-26065000D03*
X130897000Y-26065000D03*
X131697000Y-26065000D03*
X132497000Y-26065000D03*
X133297000Y-26065000D03*
X134097000Y-26065000D03*
X134897000Y-26065000D03*
X135697000Y-26065000D03*
X136497000Y-26065000D03*
X137297000Y-26065000D03*
X138097000Y-26065000D03*
D30*
X139797000Y-27765000D03*
X139797000Y-28565000D03*
X139797000Y-29365000D03*
X139797000Y-30165000D03*
X139797000Y-30965000D03*
X139797000Y-31765000D03*
X139797000Y-32565000D03*
X139797000Y-33365000D03*
X139797000Y-34165000D03*
X139797000Y-34965000D03*
X139797000Y-35765000D03*
D29*
X138097000Y-37465000D03*
X137297000Y-37465000D03*
X136497000Y-37465000D03*
X135697000Y-37465000D03*
X134897000Y-37465000D03*
X134097000Y-37465000D03*
X133297000Y-37465000D03*
X132497000Y-37465000D03*
X131697000Y-37465000D03*
X130897000Y-37465000D03*
X130097000Y-37465000D03*
D30*
X128397000Y-35765000D03*
X128397000Y-34965000D03*
X128397000Y-34165000D03*
X128397000Y-33365000D03*
X128397000Y-32565000D03*
X128397000Y-31765000D03*
X128397000Y-30965000D03*
X128397000Y-30165000D03*
X128397000Y-29365000D03*
X128397000Y-28565000D03*
X128397000Y-27765000D03*
%TD*%
D18*
%TO.C,R4*%
X142812000Y-22225000D03*
X144462000Y-22225000D03*
%TD*%
D26*
%TO.C,D4*%
X249174000Y-40385000D03*
X249174000Y-37085000D03*
%TD*%
%TO.C,D42*%
X259334000Y-110870000D03*
X259334000Y-107570000D03*
%TD*%
%TO.C,D24*%
X128619250Y-73278000D03*
X128619250Y-69978000D03*
%TD*%
%TO.C,D8*%
X114331750Y-35178000D03*
X114331750Y-31878000D03*
%TD*%
D31*
%TO.C,F1*%
X161795000Y-23749000D03*
X164595000Y-23749000D03*
%TD*%
D26*
%TO.C,D14*%
X161702750Y-53720000D03*
X161702750Y-50420000D03*
%TD*%
%TO.C,D12*%
X104806750Y-54228000D03*
X104806750Y-50928000D03*
%TD*%
%TO.C,D21*%
X71469250Y-73278000D03*
X71469250Y-69978000D03*
%TD*%
%TO.C,D31*%
X80994250Y-92328000D03*
X80994250Y-89028000D03*
%TD*%
%TO.C,D11*%
X85756750Y-54228000D03*
X85756750Y-50928000D03*
%TD*%
%TO.C,D19*%
X261715250Y-53720000D03*
X261715250Y-50420000D03*
%TD*%
%TO.C,D6*%
X76231750Y-35178000D03*
X76231750Y-31878000D03*
%TD*%
%TO.C,D5*%
X57181750Y-35178000D03*
X57181750Y-31878000D03*
%TD*%
%TO.C,D1*%
X223615250Y-29907500D03*
X223615250Y-26607500D03*
%TD*%
%TO.C,D28*%
X223615250Y-72770000D03*
X223615250Y-69470000D03*
%TD*%
%TO.C,D39*%
X45275500Y-111378000D03*
X45275500Y-108078000D03*
%TD*%
%TO.C,D25*%
X166465250Y-72770000D03*
X166465250Y-69470000D03*
%TD*%
D32*
%TO.C,J1*%
X160687000Y-32536000D03*
X160687000Y-33536000D03*
X160687000Y-34536000D03*
X160687000Y-35536000D03*
D33*
X164562000Y-36836000D03*
X164562000Y-31236000D03*
%TD*%
D26*
%TO.C,D10*%
X66706750Y-54228000D03*
X66706750Y-50928000D03*
%TD*%
%TO.C,D7*%
X95281750Y-35178000D03*
X95281750Y-31878000D03*
%TD*%
%TO.C,D35*%
X175990250Y-91820000D03*
X175990250Y-88520000D03*
%TD*%
%TO.C,D20*%
X45275500Y-73278000D03*
X45275500Y-69978000D03*
%TD*%
%TO.C,D36*%
X195040250Y-91820000D03*
X195040250Y-88520000D03*
%TD*%
%TO.C,D9*%
X42894250Y-54228000D03*
X42894250Y-50928000D03*
%TD*%
%TO.C,D30*%
X50038000Y-92328000D03*
X50038000Y-89028000D03*
%TD*%
%TO.C,D27*%
X204565250Y-72770000D03*
X204565250Y-69470000D03*
%TD*%
%TO.C,D33*%
X119094250Y-92328000D03*
X119094250Y-89028000D03*
%TD*%
%TO.C,D3*%
X238633000Y-40385000D03*
X238633000Y-37085000D03*
%TD*%
%TO.C,D26*%
X185515250Y-72770000D03*
X185515250Y-69470000D03*
%TD*%
%TO.C,D2*%
X243967000Y-40385000D03*
X243967000Y-37085000D03*
%TD*%
%TO.C,D41*%
X235521500Y-110870000D03*
X235521500Y-107570000D03*
%TD*%
%TO.C,D32*%
X100044250Y-92328000D03*
X100044250Y-89028000D03*
%TD*%
%TO.C,D16*%
X199802750Y-53720000D03*
X199802750Y-50420000D03*
%TD*%
%TO.C,D43*%
X152146000Y-116331000D03*
X152146000Y-113031000D03*
%TD*%
%TO.C,D37*%
X214090250Y-91820000D03*
X214090250Y-88520000D03*
%TD*%
%TO.C,D22*%
X90519250Y-73278000D03*
X90519250Y-69978000D03*
%TD*%
%TO.C,D0*%
X204565250Y-29907500D03*
X204565250Y-26607500D03*
%TD*%
%TO.C,D13*%
X123856750Y-54228000D03*
X123856750Y-50928000D03*
%TD*%
%TO.C,D38*%
X233140250Y-91820000D03*
X233140250Y-88520000D03*
%TD*%
D18*
%TO.C,R3*%
X142812000Y-19558000D03*
X144462000Y-19558000D03*
%TD*%
D26*
%TO.C,D29*%
X254571500Y-72770000D03*
X254571500Y-69470000D03*
%TD*%
M02*
