0
SECTION
2
HEADER
9
$INSUNITS
70
4
9
$ACADVER
1
AC1014
9
$HANDSEED
5
FFFF
0
ENDSEC
0
SECTION
2
TABLES
0
TABLE
2
VPORT
5
8
100
AcDbSymbolTable
0
ENDTAB
0
TABLE
2
LTYPE
5
5
100
AcDbSymbolTable
0
LTYPE
5
14
100
AcDbSymbolTableRecord
100
AcDbLinetypeTableRecord
2
BYBLOCK
70
0
0
LTYPE
5
15
100
AcDbSymbolTableRecord
100
AcDbLinetypeTableRecord
2
BYLAYER
70
0
0
ENDTAB
0
TABLE
2
LAYER
5
2
100
AcDbSymbolTable
70
2
0
LAYER
5
50
100
AcDbSymbolTableRecord
100
AcDbLayerTableRecord
2
0
70
0
6
CONTINUOUS
0
ENDTAB
0
TABLE
2
STYLE
5
3
100
AcDbSymbolTable
70
1
0
STYLE
5
11
100
AcDbSymbolTableRecord
100
AcDbTextStyleTableRecord
2
STANDARD
70
0
0
ENDTAB
0
TABLE
2
VIEW
5
6
100
AcDbSymbolTable
70
0
0
ENDTAB
0
TABLE
2
UCS
5
7
100
AcDbSymbolTable
70
0
0
ENDTAB
0
TABLE
2
APPID
5
9
100
AcDbSymbolTable
70
2
0
APPID
5
12
100
AcDbSymbolTableRecord
100
AcDbRegAppTableRecord
2
ACAD
70
0
0
ENDTAB
0
TABLE
2
DIMSTYLE
5
A
100
AcDbSymbolTable
70
1
0
ENDTAB
0
TABLE
2
BLOCK_RECORD
5
1
100
AcDbSymbolTable
70
1
0
BLOCK_RECORD
5
1F
100
AcDbSymbolTableRecord
100
AcDbBlockTableRecord
2
*MODEL_SPACE
0
BLOCK_RECORD
5
1B
100
AcDbSymbolTableRecord
100
AcDbBlockTableRecord
2
*PAPER_SPACE
0
ENDTAB
0
ENDSEC
0
SECTION
2
BLOCKS
0
BLOCK
5
20
100
AcDbEntity
100
AcDbBlockBegin
2
*MODEL_SPACE
0
ENDBLK
5
21
100
AcDbEntity
100
AcDbBlockEnd
0
BLOCK
5
1C
100
AcDbEntity
100
AcDbBlockBegin
2
*PAPER_SPACE
0
ENDBLK
5
1D
100
AcDbEntity
100
AcDbBlockEnd
0
ENDSEC
0
SECTION
2
ENTITIES
0
LWPOLYLINE
5
100
100
AcDbEntity
8
0
100
AcDbPolyline
90
8
70
1
43
0.0
10
145.11220251218771
20
100.04693999479174
42
0.41421356237309503
10
147.11220251218765
20
102.0469399947917
10
147.11220251218771
20
118.14693999479172
42
0.41421356237309243
10
145.11220251218776
20
120.14693999479171
10
133.670270738022
20
120.14693999479175
42
0.41421356237310281
10
131.670270738022
20
118.14693999479175
10
131.67027073802194
20
102.0469399947917
42
0.41421356237310281
10
133.67027073802197
20
100.04693999479171
0
LWPOLYLINE
5
101
100
AcDbEntity
8
0
100
AcDbPolyline
90
8
70
1
43
0.0
10
199.99022038537177
20
100.04693999481134
42
0.41421356237308204
10
201.99022038537174
20
102.0469399948113
10
201.99022038537183
20
118.14693999479164
42
0.41421356237308982
10
199.99022038537186
20
120.14693999479165
10
193.0897056468751
20
120.14693999479164
42
0.41421356237309503
10
191.0897056468751
20
118.14693999479164
10
191.0897056468751
20
102.04693999479164
42
0.41421356237308204
10
193.08970564687502
20
100.0469399947918
0
CIRCLE
5
102
100
AcDbEntity
8
0
100
AcDbCircle
10
247.00000368058681
20
126.32828098156402
30
0
40
1.7000000000000171
210
0
220
-0
230
1
0
LWPOLYLINE
5
103
100
AcDbEntity
8
0
100
AcDbPolyline
90
8
70
1
43
0.0
10
85.170396627663109
20
100.04693999479223
42
0.4142135623730378
10
87.170396627663123
20
102.04693999479174
10
87.170396627663166
20
118.14693999479186
42
0.41421356237307161
10
85.170396627663195
20
120.14693999479169
10
78.616891591956417
20
120.14693999479186
42
0.41421356237309631
10
76.616891591956431
20
118.14693999479188
10
76.616891591956389
20
102.04693999479183
42
0.41421356237341239
10
78.616891591956389
20
100.04693999478962
0
LWPOLYLINE
5
104
100
AcDbEntity
8
0
100
AcDbPolyline
90
32
70
1
43
0.0
10
19.475000000000158
20
92.979108169652676
10
20.237500000000175
20
92.979108169652676
42
0.41421356237309503
10
22.23750000000015
20
94.979108169652648
10
22.23750000000021
20
110.11674854435154
42
-0.41421356237309437
10
24.2375000000002
20
112.11674854435152
10
62.91225000000022
20
112.11674854435148
42
-0.41421356237309243
10
64.912250000000213
20
110.11674854435148
10
64.912250000000171
20
96.316748544351483
42
0.41421356237309587
10
68.162250000000185
20
93.066748544351498
10
129.58750000000015
20
93.06674854435137
42
-0.41421356237309503
10
131.58750000000015
20
91.066748544351384
10
131.58750000000012
20
80.966748544351361
42
-0.41421356237309503
10
129.58750000000012
20
78.966748544351361
10
125.31249999999993
20
78.966748544351361
42
0.41421356237307183
10
122.06250000000014
20
75.716748544351361
10
122.06250000000014
20
61.916748544351364
42
-0.4142135623730937
10
120.06250000000011
20
59.916748544351357
10
120.55000000000057
20
59.916748544351357
42
0.41421356237313989
10
117.30000000000017
20
56.666748544351371
10
117.30000000000011
20
42.866748544351339
42
-0.41421356237309631
10
115.3000000000001
20
40.866748544351353
10
111.02500000000029
20
40.866748544351374
42
0.41421356237311824
10
107.77500000000009
20
37.616748544351367
10
107.77500000000006
20
23.816748544351391
42
-0.4142135623730957
10
105.77500000000008
20
21.816748544351384
10
38.525000000000048
20
21.816748544351494
42
-0.41421356237309437
10
36.525000000000048
20
23.816748544351498
10
36.525000000000048
20
37.616748544351459
42
0.41421356237309986
10
33.275000000000084
20
40.866748544351509
10
19.475000000000069
20
40.866748544351516
42
-0.41421356237309243
10
17.47500000000008
20
42.866748544351523
10
17.475000000000154
20
90.979108169652676
42
-0.41421356237309148
0
CIRCLE
5
105
100
AcDbEntity
8
0
100
AcDbCircle
10
30.334424635419026
20
126.32828098156401
30
0
40
1.6999999999999993
210
0
220
-0
230
1
0
CIRCLE
5
106
100
AcDbEntity
8
0
100
AcDbCircle
10
138.66721415800293
20
7.4855966228597426
30
0
40
1.6999999999999993
210
0
220
-0
230
1
0
CIRCLE
5
107
100
AcDbEntity
8
0
100
AcDbCircle
10
269.34725979790704
20
23.872860202148342
30
0
40
1.7000000000000171
210
0
220
-0
230
1
0
CIRCLE
5
108
100
AcDbEntity
8
0
100
AcDbCircle
10
7.9871685180988194
20
23.872860202148342
30
0
40
1.7000000000000004
210
0
220
-0
230
1
0
LWPOLYLINE
5
109
100
AcDbEntity
8
0
100
AcDbPolyline
90
24
70
1
43
0.0
10
255.41225000000023
20
110.11674854435115
10
255.41225000000014
20
96.316748544352379
42
0.41421356237321671
10
258.66224999999997
20
93.0667485443511
10
258.17475000000024
20
93.066748544351128
42
-0.41421356237306384
10
260.17475000000013
20
91.066748544351128
10
260.17475000000007
20
42.866748544351111
42
-0.41421356237309631
10
258.17475000000007
20
40.866748544351104
10
143.30000000000013
20
40.866748544351324
42
-0.41421356237309631
10
141.30000000000013
20
42.866748544351331
10
141.30000000000013
20
52.966748544351347
42
-0.4142135623730937
10
143.30000000000013
20
54.96674854435134
10
142.81249999999994
20
54.96674854435134
42
0.41421356237311746
10
146.06250000000014
20
58.21674854435134
10
146.06250000000014
20
72.01674854435133
42
-0.41421356237309243
10
148.06250000000014
20
74.01674854435133
10
152.33750000000012
20
74.01674854435133
42
0.41421356237309503
10
155.58750000000015
20
77.266748544351344
10
155.5875000000002
20
91.066748544351242
42
-0.41421356237309503
10
157.58750000000018
20
93.066748544351228
10
209.48774999999938
20
93.066748544351157
42
0.41421356237318308
10
212.73775000000018
20
96.316748544351171
10
212.73775000000015
20
110.1167485443512
42
-0.41421356237308982
10
214.73775000000018
20
112.11674854435117
10
253.41225000000023
20
112.11674854435117
42
-0.41421356237309764
0
LWPOLYLINE
5
110
100
AcDbEntity
8
0
100
AcDbPolyline
90
18
70
1
43
0.0
10
181.15000454206407
20
16.054270502535619
10
181.15003272178154
20
22.405360687484706
42
0.41421356237310675
10
179.15004159577927
20
24.405369561443059
10
170.00001137737311
20
24.405410160026697
42
0.41421486193768692
10
168.00000250339508
20
22.40541016004638
10
168.00000250339508
20
15.520077146338167
42
-0.41421356237310347
10
166.00000250339508
20
13.520077146338171
10
144.12830704891601
20
13.520077146338165
42
-0.4142135623730957
10
142.12830704891601
20
15.520077146338163
10
142.12830704891601
20
33.290760942188641
42
-0.41421356237309503
10
144.12830704891601
20
35.290760942188648
10
166.00000250339508
20
35.290760942188662
42
-0.28937557141183046
10
167.80602286686434
20
34.149999236688167
10
256.40202395954975
20
34.149999236688011
42
-0.41391619490531917
10
258.40202292854769
20
32.152030001883638
10
258.41836626883884
20
16.05629239375304
42
-0.41451099238165018
10
256.41836729984095
20
14.05426162855743
10
183.1500045420444
20
14.05426162855753
42
-0.41421486193768009
0
LWPOLYLINE
5
111
100
AcDbEntity
8
0
100
AcDbPolyline
90
28
70
1
43
0.0
10
33.334424687573105
20
122.32828098156401
10
33.334424687573105
20
126.32828098156401
42
1.0000863204594637
10
27.334424627968431
20
126.32776308115574
10
27.334424635419001
20
122.32828098156398
10
15.487168518098766
20
122.32828098156445
42
0.41421356237308371
10
11.987168518098834
20
118.82828098156445
10
11.987168518098805
20
26.872860202148345
10
7.9871685180988194
20
26.872860202148345
42
0.99999999999999989
10
7.9871685180988194
20
20.872860202148338
10
11.987168518098859
20
20.872860202148349
10
11.987168518098663
20
14.985596622859951
42
0.41421356237309653
10
15.487168518098642
20
11.485596622859957
10
135.66721415800293
20
11.485596622859742
10
135.66721415800293
20
7.4855966228597381
42
0.99999999999999989
10
141.66721415800293
20
7.4855966228597426
10
141.66721415800575
20
11.485596622859742
10
261.84725979790704
20
11.485596622859529
42
0.41421356237309154
10
265.34725979790693
20
14.985596622859505
10
265.34725979790693
20
20.872860202148349
10
269.34725979790704
20
20.872860202148349
42
0.99999999999999989
10
269.34725979790704
20
26.872860202148342
10
265.34725979790704
20
26.872860202148363
10
265.34725979790716
20
118.82828098156401
42
0.41421356237309059
10
261.8472597979071
20
122.32828098156401
10
250.00000368058681
20
122.32828098156401
10
250.00000368058681
20
126.32828098156402
42
0.99999999999999989
10
244.00000368058681
20
126.32828098156402
10
244.00000362843275
20
122.32828098156401
0
ENDSEC
0
SECTION
2
OBJECTS
0
DICTIONARY
5
C
100
AcDbDictionary
3
ACAD_GROUP
350
D
3
ACAD_MLINESTYLE
350
17
0
DICTIONARY
5
D
100
AcDbDictionary
0
DICTIONARY
5
1A
330
C
100
AcDbDictionary
0
DICTIONARY
5
17
100
AcDbDictionary
0
ENDSEC
0
EOF
