G04 #@! TF.GenerationSoftware,KiCad,Pcbnew,(6.0.4)*
G04 #@! TF.CreationDate,2022-08-25T09:41:07-05:00*
G04 #@! TF.ProjectId,Grouch,47726f75-6368-42e6-9b69-6361645f7063,rev?*
G04 #@! TF.SameCoordinates,Original*
G04 #@! TF.FileFunction,Legend,Top*
G04 #@! TF.FilePolarity,Positive*
%FSLAX46Y46*%
G04 Gerber Fmt 4.6, Leading zero omitted, Abs format (unit mm)*
G04 Created by KiCad (PCBNEW (6.0.4)) date 2022-08-25 09:41:07*
%MOMM*%
%LPD*%
G01*
G04 APERTURE LIST*
%ADD10C,3.987800*%
%ADD11C,1.750000*%
%ADD12C,3.048000*%
G04 APERTURE END LIST*
%LPC*%
D10*
X33337500Y-52387500D03*
D11*
X38417500Y-52387500D03*
X28257500Y-52387500D03*
X71120000Y-52387500D03*
X81280000Y-52387500D03*
D10*
X76200000Y-52387500D03*
D11*
X209232500Y-28575000D03*
D10*
X214312500Y-28575000D03*
D11*
X219392500Y-28575000D03*
X161607500Y-90487500D03*
D10*
X166687500Y-90487500D03*
D11*
X171767500Y-90487500D03*
X199707500Y-90487500D03*
D10*
X204787500Y-90487500D03*
D11*
X209867500Y-90487500D03*
D10*
X119062500Y-71437500D03*
D11*
X124142500Y-71437500D03*
X113982500Y-71437500D03*
D12*
X28575000Y-83502500D03*
D11*
X35401250Y-90487500D03*
D12*
X52387500Y-83502500D03*
D11*
X45561250Y-90487500D03*
D10*
X52387500Y-98742500D03*
X28575000Y-98742500D03*
X40481250Y-90487500D03*
X250031250Y-109537500D03*
D11*
X255111250Y-109537500D03*
X244951250Y-109537500D03*
D10*
X176212500Y-71437500D03*
D11*
X171132500Y-71437500D03*
X181292500Y-71437500D03*
D10*
X209550000Y-52387500D03*
D11*
X204470000Y-52387500D03*
X214630000Y-52387500D03*
X114617500Y-90487500D03*
D10*
X109537500Y-90487500D03*
D11*
X104457500Y-90487500D03*
X30638750Y-109537500D03*
X40798750Y-109537500D03*
D10*
X35718750Y-109537500D03*
X66675000Y-33337500D03*
D11*
X61595000Y-33337500D03*
X71755000Y-33337500D03*
X147955000Y-114300000D03*
D10*
X85725000Y-122555000D03*
D12*
X85725000Y-107315000D03*
D10*
X200025000Y-122555000D03*
X142875000Y-114300000D03*
D12*
X200025000Y-107315000D03*
D11*
X137795000Y-114300000D03*
X255111250Y-90487500D03*
X244951250Y-90487500D03*
D10*
X250031250Y-90487500D03*
D11*
X85407500Y-90487500D03*
D10*
X90487500Y-90487500D03*
D11*
X95567500Y-90487500D03*
X195580000Y-52387500D03*
X185420000Y-52387500D03*
D10*
X190500000Y-52387500D03*
D11*
X257492500Y-28575000D03*
D10*
X252412500Y-28575000D03*
D11*
X247332500Y-28575000D03*
D12*
X257175000Y-64452500D03*
D11*
X250348750Y-71437500D03*
X240188750Y-71437500D03*
D10*
X245268750Y-71437500D03*
X233362500Y-79692500D03*
D12*
X233362500Y-64452500D03*
D10*
X257175000Y-79692500D03*
X61912500Y-71437500D03*
D11*
X66992500Y-71437500D03*
X56832500Y-71437500D03*
D10*
X233362500Y-28575000D03*
D11*
X228282500Y-28575000D03*
X238442500Y-28575000D03*
X190182500Y-71437500D03*
X200342500Y-71437500D03*
D10*
X195262500Y-71437500D03*
D11*
X133667500Y-90487500D03*
X123507500Y-90487500D03*
D10*
X128587500Y-90487500D03*
D11*
X166370000Y-52387500D03*
D10*
X171450000Y-52387500D03*
D11*
X176530000Y-52387500D03*
D10*
X95250000Y-52387500D03*
D11*
X90170000Y-52387500D03*
X100330000Y-52387500D03*
D10*
X252412500Y-52387500D03*
D11*
X257492500Y-52387500D03*
X247332500Y-52387500D03*
D10*
X59531250Y-109537500D03*
D11*
X54451250Y-109537500D03*
X64611250Y-109537500D03*
X109220000Y-52387500D03*
X119380000Y-52387500D03*
D10*
X114300000Y-52387500D03*
D11*
X190817500Y-90487500D03*
X180657500Y-90487500D03*
D10*
X185737500Y-90487500D03*
D11*
X200342500Y-28575000D03*
D10*
X195262500Y-28575000D03*
D11*
X190182500Y-28575000D03*
X233680000Y-52387500D03*
D10*
X228600000Y-52387500D03*
D11*
X223520000Y-52387500D03*
D10*
X157162500Y-71437500D03*
D11*
X162242500Y-71437500D03*
X152082500Y-71437500D03*
D10*
X100012500Y-71437500D03*
D11*
X94932500Y-71437500D03*
X105092500Y-71437500D03*
D10*
X223837500Y-90487500D03*
D11*
X218757500Y-90487500D03*
X228917500Y-90487500D03*
X147320000Y-52387500D03*
D10*
X152400000Y-52387500D03*
D11*
X157480000Y-52387500D03*
X66357500Y-90487500D03*
X76517500Y-90487500D03*
D10*
X71437500Y-90487500D03*
X57150000Y-52387500D03*
D11*
X52070000Y-52387500D03*
X62230000Y-52387500D03*
D12*
X254825500Y-21590000D03*
D10*
X230949500Y-36830000D03*
D11*
X247967500Y-28575000D03*
D10*
X242887500Y-28575000D03*
X254825500Y-36830000D03*
D12*
X230949500Y-21590000D03*
D11*
X237807500Y-28575000D03*
X90805000Y-33337500D03*
D10*
X85725000Y-33337500D03*
D11*
X80645000Y-33337500D03*
X40798750Y-71437500D03*
X30638750Y-71437500D03*
D10*
X35718750Y-71437500D03*
X47625000Y-33337500D03*
D11*
X52705000Y-33337500D03*
X42545000Y-33337500D03*
D10*
X214312500Y-71437500D03*
D11*
X219392500Y-71437500D03*
X209232500Y-71437500D03*
X109855000Y-33337500D03*
D10*
X104775000Y-33337500D03*
D11*
X99695000Y-33337500D03*
X231298750Y-109537500D03*
D10*
X226218750Y-109537500D03*
D11*
X221138750Y-109537500D03*
X75882500Y-71437500D03*
X86042500Y-71437500D03*
D10*
X80962500Y-71437500D03*
M02*
